<svg width="22" height="20" viewBox="0 0 22 20" fill="none" xmlns="http://www.w3.org/2000/svg">
<path fill-rule="evenodd" clip-rule="evenodd" d="M18.9549 8.94059L10.9437 18.2526L2.93239 8.90221C1.97437 7.60537 1.59717 6.72932 1.59717 5.53004C1.59717 3.29342 3.23615 1.28054 5.60281 1.26168C7.54955 1.24607 9.75665 3.18285 10.9437 4.64293C12.0993 3.23423 14.3378 1.26168 16.2845 1.26168C18.5884 1.26168 20.2901 3.29342 20.2901 5.53004C20.2901 6.72932 19.9917 7.67042 18.9549 8.94059ZM16.2845 0.0422363C14.0594 0.0422363 12.3757 1.31436 10.9437 2.64371C9.57973 1.23306 7.82794 0.0422363 5.60281 0.0422363C2.46907 0.0422363 0.261963 2.66712 0.261963 5.53004C0.261963 7.06557 0.907538 8.17119 1.61453 9.21048L9.91487 18.9049C10.8462 19.8655 11.0224 19.8655 11.9537 18.9049L20.2728 9.21048C21.1046 8.17119 21.6253 7.06557 21.6253 5.53004C21.6253 2.66712 19.4182 0.0422363 16.2845 0.0422363Z" fill="#CC0000"/>
</svg>
