<svg width="73" height="13" viewBox="0 0 73 13" fill="none" xmlns="http://www.w3.org/2000/svg">
<path d="M6.5 0L8.03444 4.61088H13L8.98278 7.46055L10.5172 12.0714L6.5 9.22175L2.48278 12.0714L4.01722 7.46055L0 4.61088H4.96556L6.5 0Z" fill="#FFDC0F"/>
<path d="M21.5 0L23.0344 4.61088H28L23.9828 7.46055L25.5172 12.0714L21.5 9.22175L17.4828 12.0714L19.0172 7.46055L15 4.61088H19.9656L21.5 0Z" fill="#FFDC0F"/>
<path d="M36.5 0L38.0344 4.61088H43L38.9828 7.46055L40.5172 12.0714L36.5 9.22175L32.4828 12.0714L34.0172 7.46055L30 4.61088H34.9656L36.5 0Z" fill="#FFDC0F"/>
<path d="M51.5 0L53.0344 4.61088H58L53.9828 7.46055L55.5172 12.0714L51.5 9.22175L47.4828 12.0714L49.0172 7.46055L45 4.61088H49.9656L51.5 0Z" fill="#FFDC0F"/>
<path d="M66.5 0L68.0344 4.61088H73L68.9828 7.46055L70.5172 12.0714L66.5 9.22175L62.4828 12.0714L64.0172 7.46055L60 4.61088H64.9656L66.5 0Z" fill="#CCCCCC"/>
</svg>
