<svg width="343" height="19" viewBox="0 0 343 19" fill="none" xmlns="http://www.w3.org/2000/svg">
<path d="M117 0L119.361 7.25735H127L120.82 11.7426L123.18 19L117 14.5147L110.82 19L113.18 11.7426L107 7.25735H114.639L117 0Z" fill="white"/>
<path d="M144.5 0L146.979 7.25735H155L148.511 11.7426L150.989 19L144.5 14.5147L138.011 19L140.489 11.7426L134 7.25735H142.021L144.5 0Z" fill="white"/>
<path d="M172 0L174.361 7.25735H182L175.82 11.7426L178.18 19L172 14.5147L165.82 19L168.18 11.7426L162 7.25735H169.639L172 0Z" fill="white"/>
<path d="M199.5 0L201.979 7.25735H210L203.511 11.7426L205.989 19L199.5 14.5147L193.011 19L195.489 11.7426L189 7.25735H197.021L199.5 0Z" fill="white"/>
<path d="M227 0L229.361 7.25735H237L230.82 11.7426L233.18 19L227 14.5147L220.82 19L223.18 11.7426L217 7.25735H224.639L227 0Z" fill="white"/>
<rect x="249" y="9" width="94" height="2" rx="1" fill="white"/>
<rect y="9" width="94" height="2" rx="1" fill="white"/>
</svg>
