<svg width="130" height="19" viewBox="0 0 130 19" fill="none" xmlns="http://www.w3.org/2000/svg">
<path d="M10 0L12.3607 7.25735H20L13.8197 11.7426L16.1803 19L10 14.5147L3.81966 19L6.18034 11.7426L0 7.25735H7.63932L10 0Z" fill="#FFF500"/>
<path d="M37.5 0L39.9787 7.25735H48L41.5106 11.7426L43.9894 19L37.5 14.5147L31.0106 19L33.4894 11.7426L27 7.25735H35.0213L37.5 0Z" fill="#FFF500"/>
<path d="M65 0L67.3607 7.25735H75L68.8197 11.7426L71.1803 19L65 14.5147L58.8197 19L61.1803 11.7426L55 7.25735H62.6393L65 0Z" fill="#FFF500"/>
<path d="M92.5 0L94.9787 7.25735H103L96.5106 11.7426L98.9894 19L92.5 14.5147L86.0106 19L88.4894 11.7426L82 7.25735H90.0213L92.5 0Z" fill="#FFF500"/>
<path d="M120 0L122.361 7.25735H130L123.82 11.7426L126.18 19L120 14.5147L113.82 19L116.18 11.7426L110 7.25735H117.639L120 0Z" fill="#FFF500"/>
</svg>
