<svg width="22" height="22" viewBox="0 0 22 22" fill="none" xmlns="http://www.w3.org/2000/svg">
<path d="M21.7802 5.90753L20.6781 4.80548C20.5312 4.65831 20.362 4.58496 20.1708 4.58496C19.98 4.58496 19.8109 4.65831 19.664 4.80548L11.0001 13.4689L2.3366 4.80571C2.18966 4.65854 2.02057 4.58519 1.82954 4.58519C1.63844 4.58519 1.46935 4.65854 1.32249 4.80571L0.220518 5.90784C0.0733516 6.0547 0 6.22379 0 6.41489C0 6.60584 0.0735832 6.77493 0.220518 6.92179L10.4931 17.1946C10.6399 17.3415 10.8091 17.4149 11.0001 17.4149C11.1911 17.4149 11.36 17.3415 11.5068 17.1946L21.7802 6.92179C21.927 6.77485 22 6.60576 22 6.41489C22 6.22379 21.927 6.0547 21.7802 5.90753Z" fill="black"/>
</svg>
