<?xml version="1.0" encoding="UTF-8"?>
<svg width="57px" height="41px" viewBox="0 0 57 41" version="1.1" xmlns="http://www.w3.org/2000/svg" xmlns:xlink="http://www.w3.org/1999/xlink">
    <title>camion</title>
    <defs>
        <rect id="path-1" x="0" y="0" width="22" height="22"></rect>
        <polygon id="path-3" points="0 0.507692308 243.287407 0.507692308 243.287407 36.3846154 0 36.3846154"></polygon>
    </defs>
    <g id="product-page" stroke="none" stroke-width="1" fill="none" fill-rule="evenodd">
        <g id="DSK-v1" transform="translate(-488.000000, -2811.000000)">
            <g id="Group-8" transform="translate(440.000000, 2788.000000)">
                <g id="Group-3" transform="translate(34.000000, 0.000000)">
                    <g id="Group" transform="translate(14.000000, 22.500000)">
                        <g id="camion-(1)" fill="#000000" fill-rule="nonzero">
                            <path d="M13.4357143,30.8396875 C11.8617573,30.8396875 10.5857143,32.1246852 10.5857143,33.7096875 C10.5857143,35.2946898 11.8616459,36.5796875 13.4357143,36.5796875 C15.0097826,36.5796875 16.2857143,35.294802 16.2857143,33.7096875 C16.283933,32.1253578 15.0090033,30.8413691 13.4357143,30.8396875 Z M13.4357143,34.6663168 C12.9110248,34.6663168 12.4857514,34.238059 12.4857514,33.7096875 C12.4857514,33.181316 12.9110248,32.7530582 13.4357143,32.7530582 C13.9604037,32.7530582 14.3856772,33.181316 14.3856772,33.7096875 C14.3851205,34.2378348 13.9601811,34.6657562 13.4357143,34.6663168 Z" id="Shape"></path>
                            <path d="M43.5642857,30.8396875 C41.9903287,30.8396875 40.7142857,32.1246852 40.7142857,33.7096875 C40.7142857,35.2946898 41.9903287,36.5796875 43.5642857,36.5796875 C45.1382427,36.5796875 46.4142857,35.294802 46.4142857,33.7096875 C46.4126158,32.1253578 45.1375748,30.8413691 43.5642857,30.8396875 Z M43.5642857,34.6663168 C43.0395963,34.6663168 42.6143228,34.238059 42.6143228,33.7096875 C42.6143228,33.181316 43.0397076,32.7530582 43.5642857,32.7530582 C44.0889752,32.7530582 44.5142486,33.181316 44.5142486,33.7096875 C44.5138033,34.2378348 44.0887525,34.6657562 43.5642857,34.6663168 Z" id="Shape"></path>
                            <path d="M56.275922,17.4954213 L49.7317208,10.0738014 C49.1895528,9.45899531 48.4115919,9.10798184 47.5951114,9.10966348 L38.9500372,9.10966348 L38.9500372,3.36967949 C38.9483673,1.78535423 37.6733263,0.501369136 36.1000372,0.4996875 L2.85000009,0.4996875 C1.27671103,0.501369136 0.00167001465,1.78535423 0,3.36967949 L0,28.2429808 C0,28.4966836 0.099972749,28.7400724 0.278209077,28.919559 C0.456334077,29.0989335 0.698027437,29.1997195 0.950074312,29.1997195 L1.9000372,29.1997195 L1.9000372,32.0697115 C1.90170712,33.6540368 3.17674814,34.9380219 4.7500372,34.9397035 L6.72588876,34.9397035 C7.19413486,38.2334678 9.99581845,40.6796875 13.3000372,40.6796875 C16.604256,40.6796875 19.4059395,38.2334678 19.8741856,34.9397035 L37.1260372,34.9397035 C37.5942833,38.2334678 40.3959669,40.6796875 43.7001856,40.6796875 C47.0044044,40.6796875 49.806088,38.2334678 50.2743341,34.9397035 L54.1500001,34.9397035 C55.7232892,34.9380219 56.9983302,33.6540368 57,32.0697115 L57,19.4031812 C56.9993321,18.6992484 56.7416075,18.020316 56.275922,17.4954213 Z M1.9000372,27.2862421 L1.9000372,3.36967949 C1.90059384,2.8415337 2.3255333,2.4135013 2.85000009,2.41305286 L36.1000372,2.41305286 C36.624504,2.41361341 37.0495548,2.8415337 37.0500001,3.36967949 L37.0500001,27.2862421 L1.9000372,27.2862421 Z M6.72588876,33.026226 L4.7500372,33.026226 C4.22557041,33.0256655 3.80051962,32.5977452 3.80007431,32.0695994 L3.80007431,29.1996074 L8.65509384,29.1996074 C7.611504,30.2267506 6.93340439,31.5717231 6.72588876,33.026226 Z M13.3000372,38.76621 C10.6767013,38.76621 8.55000009,36.6245906 8.55000009,33.9828527 C8.55000009,31.3411147 10.6767013,29.1996074 13.3000372,29.1996074 C15.9233731,29.1996074 18.0500743,31.3412268 18.0500743,33.9829648 C18.0469571,36.6233574 15.9220372,38.7631831 13.3000372,38.76621 Z M22.8000001,33.026226 L19.8740743,33.026226 C19.6665587,31.5717231 18.9885704,30.2266385 17.9449806,29.1996074 L22.8000001,29.1996074 L22.8000001,33.026226 Z M31.3500001,33.026226 L24.7000372,33.026226 L24.7000372,29.1996074 L31.3500001,29.1996074 L31.3500001,33.026226 Z M37.1259259,33.026226 L33.2500372,33.026226 L33.2500372,29.1996074 L39.0550196,29.1996074 C38.0114298,30.2267506 37.3334415,31.5717231 37.1259259,33.026226 Z M43.699963,38.76621 C41.076627,38.76621 38.9499259,36.6245906 38.9499259,33.9828527 C38.9499259,31.3411147 41.0765157,29.1994953 43.699963,29.1994953 C46.3232989,29.1994953 48.4500001,31.3411147 48.4500001,33.9828527 C48.4468829,36.6233574 46.3220743,38.7631831 43.699963,38.76621 Z M55.099963,32.0695994 C55.0994063,32.5977452 54.6744669,33.0257776 54.1500001,33.026226 L50.2741114,33.026226 C49.8004102,29.7354887 47.0020665,27.2921838 43.699963,27.2862421 L38.9499259,27.2862421 L38.9499259,11.0230288 L42.7500001,11.0230288 L42.7500001,20.5896314 C42.75167,22.1739567 44.026711,23.4579418 45.6000001,23.4596234 L55.099963,23.4596234 L55.099963,32.0695994 Z M55.099963,21.5462581 L45.6000001,21.5462581 C45.0755333,21.5456975 44.6504825,21.1177772 44.6500372,20.5896314 L44.6500372,11.0230132 L47.5951114,11.0230132 C47.8678653,11.0214593 48.1281505,11.1378285 48.3099493,11.3425397 L54.8564884,18.7669623 C55.0123477,18.9418524 55.098961,19.1682006 55.1000743,19.4031812 L55.1000743,21.5462581 L55.099963,21.5462581 Z" id="Shape"></path>
                        </g>
                        <g id="logo" transform="translate(8.000000, 4.000000)">
                            <mask id="mask-2" fill="white">
                                <use xlink:href="#path-1"></use>
                            </mask>
                            <g id="Mask"></g>
                            <g mask="url(#mask-2)" id="Clipped">
                                <g transform="translate(-46.444444, 1.692308)">
                                    <g>
                                        <mask id="mask-4" fill="white">
                                            <use xlink:href="#path-3"></use>
                                        </mask>
                                        <g id="a"></g>
                                        <path d="M0,17.1769231 L11.2281481,17.1769231 L11.2281481,13.5130769 L4.34296296,13.5130769 L4.34296296,0.905384615 L0,0.905384615 L0,17.1769231 Z M26.9377778,17.1769231 L31.4192593,17.1769231 L23.5481481,0.617692308 C23.482963,0.448461538 23.3362963,0.448461538 23.2711111,0.617692308 L15.3674074,17.16 L19.6207407,17.16 L20.4355556,15.1884615 L26.0740741,15.1884615 L26.9377778,17.1515385 L26.9377778,17.1769231 Z M23.2222222,8.59692308 L24.6888889,12.0407692 L21.7555556,12.0407692 L23.2222222,8.59692308 Z M48.9459259,17.1769231 L53.2807407,17.1769231 L53.2807407,9.68846154 L57.2733333,13.7246154 C57.3792593,13.8092308 57.4037037,13.8092308 57.4933333,13.7246154 L61.5674074,9.68846154 L61.5674074,17.1684615 L65.9103704,17.1684615 L65.9103704,0.617692308 C65.9103704,0.499230769 65.7881481,0.473846154 65.6985185,0.566923077 L57.477037,8.63076923 L49.1659259,0.575384615 C49.0355556,0.456923077 48.9459259,0.490769231 48.9459259,0.626153846 L48.9459259,17.1769231 Z M81.2451852,17.1769231 L85.7266667,17.1769231 L77.8718519,0.617692308 C77.7903704,0.448461538 77.6518519,0.448461538 77.5866667,0.617692308 L69.6911111,17.1769231 L73.9281481,17.1769231 L74.742963,15.2053846 L80.3977778,15.2053846 L81.2533333,17.1684615 L81.2451852,17.1769231 Z M77.5377778,8.59692308 L79.0044444,12.0407692 L76.0711111,12.0407692 L77.5377778,8.59692308 Z M89.98,17.16 L101.208148,17.16 L101.208148,13.4961538 L94.322963,13.4961538 L94.322963,0.905384615 L89.98,0.905384615 L89.98,17.1769231 L89.98,17.16 Z M105.477778,17.16 L116.705926,17.16 L116.705926,13.4961538 L109.820741,13.4961538 L109.820741,0.905384615 L105.477778,0.905384615 L105.477778,17.1769231 L105.477778,17.16 Z M128.414815,17.3630769 C133.075556,17.3630769 137.108889,13.9192308 137.108889,9.02 C137.108889,4.12076923 133.075556,0.719230769 128.414815,0.719230769 C123.72963,0.719230769 119.696296,4.13769231 119.696296,9.03692308 C119.696296,13.9361538 123.72963,17.38 128.414815,17.38 M128.414815,13.6061538 C125.685185,13.6061538 124.137037,11.6007692 124.137037,9.03692308 C124.137037,6.47307692 125.685185,4.49307692 128.406667,4.49307692 C131.111852,4.49307692 132.66,6.49 132.66,9.04538462 C132.66,11.6007692 131.111852,13.6146154 128.398519,13.6146154 M146.194074,12.0915385 L147.677037,12.0915385 L150.528889,17.1684615 L155.23037,17.1684615 L151.873333,11.4146154 C153.812593,10.5346154 154.831111,8.83384615 154.831111,6.67615385 C154.831111,3.35923077 152.54963,0.922307692 148.418519,0.922307692 L141.867407,0.922307692 L141.867407,17.1684615 L146.202222,17.1684615 L146.202222,12.0915385 L146.194074,12.0915385 Z M146.194074,8.75769231 L146.194074,4.61153846 L148.198519,4.61153846 C149.665185,4.61153846 150.463704,5.33923077 150.463704,6.68461538 C150.463704,8.03 149.673333,8.74923077 148.198519,8.74923077 L146.194074,8.74923077 L146.194074,8.75769231 Z M174.207407,14.2830769 C175.42963,12.87 176.162963,11.0676923 176.162963,9.03692308 C176.162963,4.14615385 172.137778,0.727692308 167.460741,0.727692308 C162.791852,0.727692308 158.758519,4.14615385 158.758519,9.04538462 C158.758519,13.9446154 162.791852,17.3884615 167.460741,17.3884615 C168.845926,17.3884615 170.206667,17.05 171.396296,16.4830769 L173.637037,18.7338462 L176.138519,16.2207692 L174.199259,14.2746154 L174.207407,14.2830769 Z M168.560741,13.6061538 C168.218519,13.6907692 167.827407,13.7330769 167.452593,13.7330769 C164.739259,13.7330769 163.191111,11.8207692 163.191111,9.04538462 C163.191111,6.49 164.739259,4.50153846 167.460741,4.50153846 C170.182222,4.50153846 171.73037,6.49846154 171.73037,9.05384615 C171.73037,9.91692308 171.583704,10.6784615 171.298519,11.3553846 L169.587407,9.60384615 L167.061481,12.1169231 L168.560741,13.6230769 L168.560741,13.6061538 Z M187.301481,17.4138462 C191.375556,17.4138462 194.34963,15.2646154 194.34963,10.8984615 L194.34963,0.896923077 L190.006667,0.896923077 L190.006667,10.8307692 C190.006667,12.6753846 189.151111,13.7246154 187.317778,13.7246154 C185.476296,13.7246154 184.628889,12.6753846 184.628889,10.8307692 L184.628889,0.913846154 L180.277778,0.913846154 L180.277778,10.8815385 C180.277778,15.2561538 183.26,17.3969231 187.30963,17.3969231 M199.368889,17.1684615 L203.687407,17.1684615 L203.687407,0.905384615 L199.368889,0.905384615 L199.368889,17.1515385 L199.368889,17.1684615 Z M223.60963,17.4476923 C223.87037,17.6592308 223.935556,17.5915385 223.935556,17.3969231 L223.935556,0.905384615 L219.861481,0.905384615 L219.861481,9.06230769 L209.676296,0.66 C209.431852,0.44 209.35037,0.558461538 209.35037,0.702307692 L209.35037,17.1769231 L213.424444,17.1769231 L213.424444,9.05384615 L223.60963,17.4561538 L223.60963,17.4476923 Z M238.78963,17.16 L243.271111,17.16 L235.432593,0.617692308 C235.351111,0.448461538 235.220741,0.448461538 235.147407,0.617692308 L227.243704,17.16 L231.497037,17.16 L232.311852,15.1884615 L237.958519,15.1884615 L238.822222,17.1515385 L238.78963,17.16 Z M235.074074,8.58846154 L236.540741,12.0323077 L233.623704,12.0323077 L235.074074,8.58846154 Z M71.0925926,36.2830769 L73.3577778,36.2830769 C74.8081481,36.2830769 75.3948148,35.4876923 75.3948148,34.4046154 C75.3948148,33.4484615 74.9466667,32.8561538 74.0911111,32.6784615 C74.7837037,32.4246154 75.0281481,31.9169231 75.0281481,31.2061538 C75.0281481,30.2753846 74.4577778,29.5307692 73.1540741,29.5307692 L71.0925926,29.5307692 L71.0925926,36.2830769 L71.0925926,36.2830769 Z M71.5,35.9276923 L71.5,32.8815385 L73.2762963,32.8815385 C74.4577778,32.8815385 74.9874074,33.44 74.9874074,34.4046154 C74.9874074,35.3015385 74.5637037,35.9276923 73.3088889,35.9276923 L71.4918519,35.9276923 L71.5,35.9276923 Z M71.5,32.5261538 L71.5,29.8861538 L73.1296296,29.8861538 C74.2214815,29.8861538 74.6288889,30.4615385 74.6288889,31.2061538 C74.6288889,31.9676923 74.2622222,32.5261538 73.2925926,32.5261538 L71.4837037,32.5261538 L71.5,32.5261538 Z M79.697037,34.1169231 L81.0251852,30.7830769 C81.1066667,30.5546154 81.2125926,30.2076923 81.2207407,30.1907692 C81.2207407,30.2076923 81.3185185,30.5546154 81.4162963,30.8 L82.7444444,34.1169231 L79.6888889,34.1169231 L79.697037,34.1169231 Z M78.4340741,36.2830769 L78.8414815,36.2830769 L79.5585185,34.4723077 L82.8748148,34.4723077 L83.6081481,36.2830769 L84.0155556,36.2830769 L81.2777778,29.4461538 L81.1637037,29.4461538 L78.4422222,36.2830769 L78.4340741,36.2830769 Z M87.4540741,36.2830769 L87.8614815,36.2830769 L87.8614815,33.4907692 L89.2466667,33.4907692 C89.4096296,33.4907692 89.5725926,33.4907692 89.7111111,33.4653846 L91.3407407,36.2830769 L91.8296296,36.2830769 L90.1185185,33.3892308 C91.0392593,33.1353846 91.5851852,32.5007692 91.5851852,31.5107692 C91.5851852,30.1992308 90.6644444,29.5223077 89.2466667,29.5223077 L87.4540741,29.5223077 L87.4540741,36.2746154 L87.4540741,36.2830769 Z M87.8614815,33.1353846 L87.8614815,29.8861538 L89.2140741,29.8861538 C90.5177778,29.8861538 91.1696296,30.4361538 91.1696296,31.5107692 C91.1696296,32.5769231 90.5177778,33.1353846 89.2140741,33.1353846 L87.8614815,33.1353846 L87.8614815,33.1353846 Z M98.3481481,36.3507692 C99.5133333,36.3507692 100.507407,35.8769231 101.094074,34.9969231 L100.792593,34.7938462 C100.254815,35.5553846 99.382963,35.9953846 98.3481481,35.9953846 C96.6125926,35.9953846 95.3088889,34.6753846 95.3088889,32.9069231 C95.3088889,31.1384615 96.6125926,29.8015385 98.34,29.8015385 C99.3992593,29.8015385 100.214074,30.2415385 100.702963,30.9523077 L101.012593,30.6984615 C100.442222,29.8861538 99.5133333,29.4292308 98.3237037,29.4292308 C96.4333333,29.4292308 94.8851852,30.8338462 94.8851852,32.8984615 C94.8851852,34.9292308 96.4333333,36.3423077 98.3318519,36.3423077 M104.557037,36.2576923 L108.631111,36.2576923 L108.631111,35.9192308 L104.964444,35.9192308 L104.964444,33.0423077 L108.125926,33.0423077 L108.125926,32.6869231 L104.964444,32.6869231 L104.964444,29.8692308 L108.492593,29.8692308 L108.492593,29.5053846 L104.565185,29.5053846 L104.565185,36.2576923 L104.557037,36.2576923 Z M112.216296,36.2576923 L115.866667,36.2576923 L115.866667,35.9192308 L112.623704,35.9192308 L112.623704,29.5053846 L112.216296,29.5053846 L112.216296,36.2576923 L112.216296,36.2576923 Z M121.831111,36.3423077 C123.721481,36.3423077 125.26963,34.9461538 125.26963,32.89 C125.26963,30.8169231 123.721481,29.4207692 121.822963,29.4207692 C119.924444,29.4207692 118.376296,30.8253846 118.376296,32.89 C118.376296,34.9207692 119.924444,36.3338462 121.822963,36.3338462 M121.822963,35.97 C120.087407,35.97 118.791852,34.65 118.791852,32.8815385 C118.791852,31.1130769 120.095556,29.7761538 121.831111,29.7761538 C123.566667,29.7761538 124.862222,31.1046154 124.862222,32.8730769 C124.862222,34.6415385 123.558519,35.9530769 121.831111,35.9530769 M133.808889,36.3169231 L133.922963,36.3169231 L133.922963,29.5307692 L133.548148,29.5307692 L133.548148,34.9884615 C133.548148,35.1830769 133.588889,35.4961538 133.588889,35.4961538 C133.588889,35.4961538 133.40963,35.2169231 133.279259,35.0476923 L128.960741,29.4461538 L128.854815,29.4461538 L128.854815,36.2830769 L129.22963,36.2830769 L129.22963,30.8169231 C129.22963,30.6223077 129.197037,30.3092308 129.197037,30.3092308 C129.197037,30.3092308 129.376296,30.5884615 129.506667,30.7576923 L133.825185,36.3592308 L133.808889,36.3169231 Z M138.632593,34.0746154 L139.952593,30.7407692 C140.034074,30.5123077 140.14,30.1653846 140.148148,30.1484615 C140.164444,30.1653846 140.254074,30.5123077 140.351852,30.7576923 L141.671852,34.0746154 L138.640741,34.0746154 L138.632593,34.0746154 Z M137.361481,36.2407692 L137.768889,36.2407692 L138.477778,34.43 L141.794074,34.43 L142.527407,36.2407692 L142.934815,36.2407692 L140.197037,29.4038462 L140.082963,29.4038462 L137.361481,36.2407692 Z M151.099259,36.2407692 L151.49037,36.2407692 L151.49037,29.81 L150.105185,29.81 L150.105185,30.1484615 L151.099259,30.1484615 L151.099259,36.2407692 Z M156.314074,36.2407692 L156.721481,36.2407692 L158.677037,33.3384615 C159.002963,32.8646154 159.198519,32.4330769 159.198519,31.9 C159.198519,30.7153846 158.302222,29.7423077 157.022963,29.7423077 C155.751852,29.7423077 154.855556,30.7069231 154.855556,31.9 C154.855556,33.0846154 155.751852,34.0576923 156.974074,34.0576923 C157.397778,34.0576923 157.764444,33.9053846 158.114815,33.6346154 C158.114815,33.6346154 157.911111,33.8884615 157.805185,34.0323077 L156.297778,36.2323077 L156.314074,36.2407692 Z M157.022963,33.7192308 C155.882222,33.7192308 155.246667,32.8730769 155.246667,31.9 C155.246667,30.9269231 155.922963,30.0976923 157.022963,30.0976923 C158.139259,30.0976923 158.815556,30.9269231 158.815556,31.9 C158.815556,32.8984615 158.114815,33.7192308 157.022963,33.7192308 M164.926667,36.2407692 L165.334074,36.2407692 L165.334074,34.9292308 L165.985926,34.9292308 L165.985926,34.5907692 L165.334074,34.5907692 L165.334074,29.7 L165.285185,29.7 L161.276296,34.9292308 L161.276296,34.9715385 L164.942963,34.9715385 L164.942963,36.2830769 L164.926667,36.2407692 Z M161.846667,34.6330769 C161.846667,34.6330769 162.131852,34.3284615 162.302963,34.1253846 L164.584444,31.1384615 C164.763704,30.8846154 164.975556,30.5461538 164.975556,30.5461538 C164.975556,30.5461538 164.942963,30.9523077 164.942963,31.24 L164.942963,34.5823077 L162.514815,34.5823077 C162.254074,34.5823077 161.862963,34.6246154 161.862963,34.6246154 M169.359259,36.2323077 L169.766667,36.2323077 L173.001481,29.8607692 L173.001481,29.8184615 L168.601481,29.8184615 L168.601481,30.1569231 L172.447407,30.1569231 L169.351111,36.2323077 L169.359259,36.2323077 Z" id="Shape" fill="#131718" fill-rule="nonzero" mask="url(#mask-4)"></path>
                                    </g>
                                    <g transform="translate(70.888889, 28.769231)">
                                        <path d="M0.627407407,3.72307692 L2.42,3.72307692 C3.47925926,3.72307692 3.7237037,3.02923077 3.7237037,2.43692308 C3.7237037,1.84461538 3.45481481,1.14230769 2.23259259,1.14230769 L0.627407407,1.14230769 L0.627407407,3.73153846 L0.627407407,3.72307692 Z M2.42,3.78230769 L0.57037037,3.78230769 L0.57037037,1.08307692 L2.23259259,1.08307692 C3.21037037,1.08307692 3.76444444,1.56538462 3.76444444,2.43692308 C3.76444444,3.04615385 3.52,3.79076923 2.41185185,3.79076923 M16.997037,4.34076923 L18.317037,4.34076923 C19.5881481,4.34076923 20.2562963,3.78230769 20.2562963,2.73307692 C20.2562963,1.67538462 19.6044444,1.14230769 18.317037,1.14230769 L16.9888889,1.14230769 L16.9888889,4.33230769 L16.997037,4.34076923 Z M18.317037,4.39153846 L16.9318519,4.39153846 L16.9318519,1.09153846 L18.317037,1.09153846 C19.6207407,1.09153846 20.3051852,1.65 20.3051852,2.73307692 C20.3051852,3.80769231 19.6207407,4.38307692 18.317037,4.38307692 M86.1503704,1.37923077 C85.0096296,1.37923077 84.3985185,2.26769231 84.3985185,3.15615385 C84.3985185,4.01923077 84.9444444,4.95 86.1503704,4.95 C87.1688889,4.95 87.9103704,4.18846154 87.9103704,3.15615385 C87.9103704,2.10692308 87.177037,1.37923077 86.1422222,1.37923077 M86.1422222,5.00076923 C85.5962963,5.00076923 85.14,4.80615385 84.8059259,4.45076923 C84.4962963,4.11230769 84.317037,3.65538462 84.317037,3.15615385 C84.317037,2.09846154 85.0911111,1.32846154 86.1340741,1.32846154 C87.3237037,1.32846154 87.9511111,2.23384615 87.9511111,3.14769231 C87.9511111,4.21384615 87.1851852,4.99230769 86.1340741,4.99230769 M8.83259259,5.29692308 L11.7903704,5.29692308 L10.4703704,1.99692308 C10.4051852,1.82769231 10.3318519,1.59923077 10.3074074,1.47230769 C10.2666667,1.59076923 10.1933333,1.82769231 10.1281481,1.99692308 L8.82444444,5.29692308 L8.83259259,5.29692308 Z M11.8637037,5.33923077 L8.76740741,5.33923077 L8.76740741,5.30538462 L10.0874074,1.98 C10.1688889,1.79384615 10.2503704,1.52307692 10.2666667,1.42153846 C10.2666667,1.42153846 10.282963,1.39615385 10.282963,1.38769231 L10.3074074,1.30307692 L10.3318519,1.38769231 C10.3318519,1.38769231 10.3318519,1.41307692 10.3481481,1.43846154 C10.3807407,1.54846154 10.4540741,1.81076923 10.5274074,2.00538462 L11.8637037,5.34769231 L11.8637037,5.33923077 Z M67.7762963,5.28846154 L70.7259259,5.28846154 L69.4222222,1.98846154 C69.3407407,1.81923077 69.2837037,1.59076923 69.2592593,1.46384615 C69.1777778,1.73461538 69.1125926,1.88692308 69.0718519,1.98846154 L67.7681481,5.28846154 L67.7762963,5.28846154 Z M70.8074074,5.33076923 L67.6948148,5.33076923 L67.7111111,5.29692308 L69.0311111,1.97153846 C69.0637037,1.88692308 69.1288889,1.70076923 69.2185185,1.37923077 L69.2511111,1.29461538 L69.2837037,1.37923077 C69.2837037,1.37923077 69.2837037,1.39615385 69.3,1.42153846 C69.3244444,1.52307692 69.3977778,1.79384615 69.4792593,1.98846154 L70.8155556,5.33076923 L70.8074074,5.33076923 Z M94.0459259,1.86153846 C93.9644444,1.99692308 93.8340741,2.21692308 93.7037037,2.38615385 L91.4385185,5.36461538 C91.3081481,5.51692308 91.1125926,5.72 91.0311111,5.81307692 C91.1451852,5.81307692 91.4222222,5.78769231 91.6177778,5.78769231 L94.0214815,5.78769231 L94.0214815,2.46230769 C94.0214815,2.26769231 94.0459259,2.00538462 94.0540741,1.87 M90.9007407,5.92307692 L90.9496296,5.88076923 C90.9496296,5.88076923 91.242963,5.58461538 91.4140741,5.37307692 L93.6711111,2.39461538 C93.8585185,2.15769231 94.0622222,1.80230769 94.0622222,1.80230769 L94.1192593,1.70076923 L94.1192593,1.81923077 C94.1192593,1.81923077 94.0866667,2.24230769 94.0866667,2.52153846 L94.0866667,5.88923077 L91.6259259,5.88923077 C91.3651852,5.88923077 90.9740741,5.93153846 90.9740741,5.93153846 L90.8925926,5.93153846 L90.9007407,5.92307692 Z M0.619259259,7.12461538 L2.41185185,7.12461538 C3.5362963,7.12461538 4.08222222,6.64230769 4.08222222,5.63538462 C4.08222222,4.64538462 3.51185185,4.13769231 2.39555556,4.13769231 L0.635555556,4.13769231 L0.635555556,7.11615385 L0.619259259,7.12461538 Z M2.41185185,7.18384615 L0.578518519,7.18384615 L0.578518519,4.07846154 L2.39555556,4.07846154 C3.55259259,4.07846154 4.13925926,4.60307692 4.13925926,5.62692308 C4.13925926,6.65076923 3.56888889,7.17538462 2.42814815,7.17538462 M50.9585185,1.04923077 C49.2474074,1.04923077 47.9437037,2.36923077 47.9437037,4.12076923 C47.9437037,5.87230769 49.2474074,7.16692308 50.9585185,7.16692308 C52.6696296,7.16692308 53.9733333,5.85538462 53.9733333,4.12076923 C53.9733333,2.38615385 52.6696296,1.04076923 50.9585185,1.04076923 M50.9585185,7.21769231 C49.2148148,7.21769231 47.8948148,5.88076923 47.8948148,4.10384615 C47.8948148,2.32692308 49.2148148,0.99 50.9585185,0.99 C52.7022222,0.99 54.0140741,2.32692308 54.0140741,4.10384615 C54.0140741,5.88076923 52.7103704,7.23461538 50.9585185,7.23461538 M0.236296296,7.46307692 L2.47703704,7.46307692 C3.78074074,7.46307692 4.48962963,6.80307692 4.48962963,5.60153846 C4.48962963,4.67076923 4.04148148,4.07846154 3.18592593,3.90923077 L3.10444444,3.88384615 L3.18592593,3.85846154 C3.83777778,3.62153846 4.12296296,3.16461538 4.12296296,2.40307692 C4.12296296,1.36230769 3.43037037,0.744615385 2.28148148,0.744615385 L0.228148148,0.744615385 L0.228148148,7.45461538 L0.236296296,7.46307692 Z M2.47703704,7.51384615 L0.162962963,7.51384615 L0.162962963,0.710769231 L2.28148148,0.710769231 C3.45481481,0.710769231 4.15555556,1.35384615 4.15555556,2.42 C4.15555556,3.18153846 3.88666667,3.63846154 3.2837037,3.88384615 C4.09851852,4.08692308 4.53037037,4.68769231 4.53037037,5.62692308 C4.53037037,6.33769231 4.26148148,7.53076923 2.46888889,7.53076923 M12.7192593,7.48846154 L13.0859259,7.48846154 L10.3725926,0.702307692 L10.2911111,0.702307692 L7.58592593,7.48846154 L7.9362963,7.48846154 L8.65333333,5.67769231 L12.0103704,5.67769231 L12.0103704,5.70307692 L12.7437037,7.49692308 L12.7192593,7.48846154 Z M13.1674074,7.53923077 L12.6948148,7.53923077 L11.9614815,5.73692308 L8.68592593,5.73692308 L7.97703704,7.54769231 L7.51259259,7.54769231 L10.2666667,0.668461538 L10.4296296,0.668461538 L10.4296296,0.685384615 L13.1755556,7.53923077 L13.1674074,7.53923077 Z M20.4762963,7.49692308 L20.9,7.49692308 L19.2133333,4.62 L19.2459259,4.60307692 C20.1748148,4.34923077 20.6881481,3.69769231 20.6881481,2.74153846 C20.6881481,1.50615385 19.8488889,0.795384615 18.3740741,0.795384615 L16.5977778,0.795384615 L16.5977778,7.49692308 L16.9562963,7.49692308 L16.9562963,4.70461538 L18.3659259,4.70461538 C18.5288889,4.70461538 18.6755556,4.70461538 18.8222222,4.67923077 L18.8385185,4.69615385 L20.4681481,7.48846154 L20.4762963,7.49692308 Z M20.9896296,7.54769231 L20.4437037,7.54769231 L18.8140741,4.73846154 C18.6674074,4.76384615 18.5207407,4.76384615 18.3659259,4.76384615 L16.997037,4.76384615 L16.997037,7.55615385 L16.5407407,7.55615385 L16.5407407,0.753076923 L18.3577778,0.753076923 C19.8651852,0.753076923 20.7207407,1.48923077 20.7207407,2.76692308 C20.7207407,3.72307692 20.2155556,4.39153846 19.2785185,4.66230769 L20.9896296,7.56461538 L20.9896296,7.54769231 Z M33.7251852,7.50538462 L37.7422222,7.50538462 L37.7422222,7.20076923 L34.0755556,7.20076923 L34.0755556,4.27307692 L37.2533333,4.27307692 L37.2533333,3.96846154 L34.0755556,3.96846154 L34.0755556,1.09153846 L37.6118519,1.09153846 L37.6118519,0.795384615 L33.7333333,0.795384615 L33.7333333,7.49692308 L33.7251852,7.50538462 Z M37.7992593,7.55615385 L33.6681481,7.55615385 L33.6681481,0.753076923 L37.6607407,0.753076923 L37.6607407,1.15923077 L34.1325926,1.15923077 L34.1325926,3.93461538 L37.2940741,3.93461538 L37.2940741,4.34076923 L34.1325926,4.34076923 L34.1325926,7.15 L37.7992593,7.15 L37.7992593,7.57307692 L37.7992593,7.55615385 Z M41.3844444,7.51384615 L44.9696296,7.51384615 L44.9696296,7.20923077 L41.7348148,7.20923077 L41.7348148,0.761538462 L41.3925926,0.761538462 L41.3925926,7.47153846 L41.3844444,7.51384615 Z M45.0266667,7.56461538 L41.3274074,7.56461538 L41.3274074,0.761538462 L41.7918519,0.761538462 L41.7918519,7.15846154 L45.0348148,7.15846154 L45.0348148,7.58153846 L45.0266667,7.56461538 Z M71.6711111,7.52230769 L72.0296296,7.52230769 L69.3081481,0.736153846 L69.2266667,0.736153846 L66.5214815,7.52230769 L66.8718519,7.52230769 L67.5888889,5.71153846 L70.9296296,5.71153846 L70.9459259,5.73692308 L71.662963,7.53076923 L71.6711111,7.52230769 Z M72.1111111,7.57307692 L71.6222222,7.57307692 L70.9051852,5.77076923 L67.6296296,5.77076923 L66.8962963,7.58153846 L66.4481481,7.58153846 L69.1859259,0.702307692 L69.3488889,0.702307692 L69.3488889,0.719230769 L72.1192593,7.57307692 L72.1111111,7.57307692 Z M80.2592593,7.53076923 L80.5851852,7.53076923 L80.5851852,1.15923077 L79.2651852,1.15923077 L79.2651852,1.44692308 L80.2592593,1.44692308 L80.2592593,7.53923077 L80.2592593,7.53076923 Z M80.6422222,7.58153846 L80.2022222,7.58153846 L80.2022222,1.50615385 L79.2244444,1.50615385 L79.2244444,1.11692308 L80.6422222,1.11692308 L80.6422222,7.59 L80.6422222,7.58153846 Z M85.4822222,7.53923077 L85.8488889,7.53923077 L87.8044444,4.66230769 C88.162963,4.10384615 88.3096296,3.68923077 88.3096296,3.22384615 C88.3096296,2.00538462 87.3807407,1.09153846 86.1585185,1.09153846 C84.9362963,1.09153846 84.0155556,2.02230769 84.0155556,3.22384615 C84.0155556,4.44230769 84.9118519,5.35615385 86.1096296,5.35615385 C86.517037,5.35615385 86.8755556,5.22076923 87.2340741,4.93307692 L87.4296296,4.78076923 L87.2666667,4.96692308 C87.2666667,4.96692308 87.0548148,5.22076923 86.9407407,5.35615385 L85.4740741,7.53076923 L85.4822222,7.53923077 Z M85.8896296,7.59 L85.4007407,7.59 L85.4251852,7.55615385 L86.9162963,5.35615385 C86.9651852,5.27153846 87.0385185,5.18692308 87.1037037,5.10230769 C86.7777778,5.31384615 86.4518519,5.41538462 86.1014815,5.41538462 C84.8792593,5.41538462 83.9585185,4.48461538 83.9585185,3.23230769 C83.9585185,1.98846154 84.9037037,1.04923077 86.1585185,1.04923077 C87.4051852,1.04923077 88.3585185,1.98 88.3585185,3.23230769 C88.3585185,3.71461538 88.1955556,4.13769231 87.837037,4.68769231 L85.8814815,7.59846154 L85.8896296,7.59 Z M94.102963,7.54769231 L94.4288889,7.54769231 L94.4288889,6.17692308 L95.097037,6.17692308 L95.097037,5.88076923 L94.4451852,5.88076923 L94.4451852,0.956153846 L90.4362963,6.17692308 L94.102963,6.17692308 L94.102963,7.48846154 L94.102963,7.54769231 Z M94.4859259,7.59846154 L94.0459259,7.59846154 L94.0459259,6.29538462 L90.3955556,6.29538462 L90.3955556,6.21076923 L94.4207407,0.964615385 L94.5022222,0.964615385 L94.5022222,5.89769231 L95.1540741,5.89769231 L95.1540741,6.28692308 L94.5022222,6.28692308 L94.5022222,7.59846154 L94.4859259,7.59846154 Z M98.5192593,7.55615385 L98.8696296,7.55615385 L102.104444,1.18461538 L97.7614815,1.18461538 L97.7614815,1.47230769 L101.615556,1.47230769 L101.599259,1.51461538 L98.5192593,7.56461538 L98.5192593,7.55615385 Z M98.9022222,7.60692308 L98.4377778,7.60692308 L98.4540741,7.57307692 L101.534074,1.54 L97.7044444,1.54 L97.7044444,1.14230769 L102.161481,1.14230769 L102.161481,1.22692308 L98.9022222,7.61538462 L98.9022222,7.60692308 Z M27.4592593,0.778461538 C26.5222222,0.778461538 25.6666667,1.11692308 25.0392593,1.72615385 C24.3874074,2.36076923 24.037037,3.24923077 24.037037,4.21384615 C24.037037,5.17846154 24.3874074,6.05 25.0392593,6.68461538 C25.6666667,7.29384615 26.5222222,7.63230769 27.4511111,7.63230769 C28.6081481,7.63230769 29.5696296,7.16692308 30.1644444,6.31230769 L29.9037037,6.12615385 C29.3577778,6.88769231 28.4940741,7.31076923 27.4592593,7.31076923 C25.7155556,7.31076923 24.3955556,5.98230769 24.3955556,4.20538462 C24.3955556,2.42846154 25.7155556,1.07461538 27.4592593,1.07461538 C28.4777778,1.07461538 29.3007407,1.46384615 29.8222222,2.20846154 L30.0911111,2.01384615 C29.5207407,1.20153846 28.6244444,0.77 27.4511111,0.77 M27.4511111,7.68307692 C26.5059259,7.68307692 25.6340741,7.34461538 24.9903704,6.71846154 C24.3385185,6.08384615 23.9718519,5.19538462 23.9718519,4.19692308 C23.9718519,2.21692308 25.4711111,0.727692308 27.442963,0.727692308 C28.6244444,0.727692308 29.5614815,1.16769231 30.1318519,2.01384615 L30.1481481,2.03076923 L29.7977778,2.28461538 L29.7733333,2.26769231 C29.26,1.53153846 28.4451852,1.13384615 27.4266667,1.13384615 C25.7155556,1.13384615 24.4118519,2.45384615 24.4118519,4.20538462 C24.4118519,5.95692308 25.7155556,7.25153846 27.4266667,7.25153846 C28.4533333,7.25153846 29.3007407,6.82846154 29.8466667,6.06692308 L29.862963,6.04153846 L30.2051852,6.29538462 L30.1888889,6.31230769 C29.5859259,7.18384615 28.6,7.66615385 27.4185185,7.66615385 M50.9096296,0.753076923 C49.9725926,0.753076923 49.117037,1.09153846 48.4896296,1.70076923 C47.8377778,2.33538462 47.4874074,3.22384615 47.4874074,4.18846154 C47.4874074,5.15307692 47.8377778,6.03307692 48.4896296,6.65923077 C49.117037,7.26846154 49.9725926,7.60692308 50.9096296,7.60692308 C51.8385185,7.60692308 52.7022222,7.26846154 53.3296296,6.65923077 C53.9814815,6.03307692 54.3237037,5.13615385 54.3237037,4.18 C54.3237037,3.22384615 53.9733333,2.31846154 53.3296296,1.68384615 C52.6940741,1.07461538 51.8385185,0.736153846 50.9096296,0.736153846 M50.9096296,7.64923077 C49.9644444,7.64923077 49.0925926,7.31076923 48.4488889,6.68461538 C47.797037,6.05 47.4385185,5.16153846 47.4385185,4.16307692 C47.4385185,2.18307692 48.9377778,0.693846154 50.9177778,0.693846154 C52.8977778,0.693846154 54.3888889,2.18307692 54.3888889,4.16307692 C54.3888889,5.15307692 54.0140741,6.05 53.3622222,6.68461538 C52.7266667,7.30230769 51.8548148,7.64923077 50.9177778,7.64923077 M62.8955556,7.59846154 L62.977037,7.59846154 L62.977037,0.812307692 L62.6511111,0.812307692 L62.6511111,6.25307692 C62.6511111,6.44769231 62.6837037,6.76076923 62.6837037,6.76076923 L62.7,6.86230769 L62.6348148,6.77769231 C62.6348148,6.77769231 62.4555556,6.49846154 62.3333333,6.32923077 L58.0311111,0.744615385 L57.9496296,0.744615385 L57.9496296,7.51384615 L58.2755556,7.51384615 L58.2755556,2.08153846 C58.2755556,1.88692308 58.242963,1.57384615 58.242963,1.57384615 L58.242963,1.47230769 L58.2918519,1.55692308 C58.2918519,1.55692308 58.4548148,1.83615385 58.5851852,2.00538462 L62.8874074,7.59 L62.8955556,7.59846154 Z M63.0259259,7.64923077 L62.862963,7.64923077 L58.5444444,2.03923077 C58.462963,1.92923077 58.3651852,1.76846154 58.3,1.67538462 C58.3,1.78538462 58.3244444,1.95461538 58.3244444,2.08153846 L58.3244444,7.58153846 L57.9007407,7.58153846 L57.9007407,0.685384615 L58.0637037,0.685384615 L62.3822222,6.29538462 C62.4637037,6.40538462 62.5696296,6.56615385 62.6266667,6.65923077 C62.6266667,6.54923077 62.6103704,6.38 62.6103704,6.25307692 L62.6103704,0.753076923 L63.0422222,0.753076923 L63.0422222,7.61538462 L63.0259259,7.64923077 Z" id="Shape" fill="#000000" fill-rule="nonzero"></path>
                                    </g>
                                </g>
                            </g>
                        </g>
                    </g>
                </g>
            </g>
        </g>
    </g>
</svg>