<svg width="34" height="51" viewBox="0 0 34 51" fill="none" xmlns="http://www.w3.org/2000/svg">
<g clip-path="url(#clip0_241_749)">
<path d="M9.03964 21.1348H6.34123C5.96866 21.1348 5.66663 20.7665 5.66663 20.3122C5.66663 19.8579 5.96866 19.4896 6.34123 19.4896H9.03964C9.41221 19.4896 9.71425 19.8579 9.71425 20.3122C9.71425 20.7665 9.41221 21.1348 9.03964 21.1348Z" fill="black"/>
<path d="M29.0417 50.7477H4.95833C2.22122 50.7445 0.00312278 48.4717 0 45.6671V14.4574C0 14.0565 0.317132 13.7316 0.708333 13.7316H33.2917C33.6829 13.7316 34 14.0565 34 14.4574V45.6671C33.9969 48.4717 31.7788 50.7445 29.0417 50.7477ZM1.41667 15.1832V45.6671C1.41901 47.6703 3.0033 49.2937 4.95833 49.2961H29.0417C30.9967 49.2937 32.581 47.6703 32.5833 45.6671V15.1832H1.41667Z" fill="black"/>
<path d="M26.0205 21.1348C25.6372 21.1348 25.3266 20.8118 25.3266 20.4133V10.6722C25.3266 5.89009 21.5987 2.01344 17.0001 2.01344C12.4014 2.01344 8.67352 5.89009 8.67352 10.6722V20.4133C8.67352 20.8118 8.36286 21.1348 7.97964 21.1348C7.59643 21.1348 7.28577 20.8118 7.28577 20.4133V10.6722C7.28577 5.09307 11.635 0.570312 17.0001 0.570312C22.3651 0.570312 26.7143 5.09307 26.7143 10.6722V20.4133C26.7143 20.8118 26.4037 21.1348 26.0205 21.1348Z" fill="black"/>
<path d="M27.6588 21.1348H24.9604C24.5878 21.1348 24.2858 20.7665 24.2858 20.3122C24.2858 19.8579 24.5878 19.4896 24.9604 19.4896H27.6588C28.0314 19.4896 28.3334 19.8579 28.3334 20.3122C28.3334 20.7665 28.0314 21.1348 27.6588 21.1348Z" fill="black"/>
</g>
<defs>
<clipPath id="clip0_241_749">
<rect width="34" height="51" fill="white"/>
</clipPath>
</defs>
</svg>
