<svg width="58" height="47" viewBox="0 0 58 47" fill="none" xmlns="http://www.w3.org/2000/svg">
<g clip-path="url(#clip0_241_705)">
<path d="M51.4454 45.4544H28.0319C26.6486 45.4544 25.5233 44.3567 25.5233 43.0075V41.3763C25.5233 40.9257 25.8977 40.5606 26.3595 40.5606C26.8213 40.5606 27.1957 40.9257 27.1957 41.3763V43.0075C27.1957 43.4573 27.5708 43.8232 28.0319 43.8232H51.4454C51.9066 43.8232 52.2816 43.4573 52.2816 43.0075V20.1697C52.2816 19.7199 51.9066 19.3541 51.4454 19.3541H28.0319C27.5708 19.3541 27.1957 19.7199 27.1957 20.1697V38.1137C27.1957 38.5643 26.8213 38.9294 26.3595 38.9294H4.39546C2.09001 38.9294 0.214478 37.0999 0.214478 34.8512V5.2708C0.214478 3.02204 2.09001 1.19263 4.39546 1.19263H16.853C17.3148 1.19263 17.6892 1.55771 17.6892 2.00826C17.6892 2.45882 17.3148 2.8239 16.853 2.8239H4.39546C3.01217 2.8239 1.88687 3.92163 1.88687 5.2708V7.39146H55.6264V5.2708C55.6264 3.92163 54.501 2.8239 53.1178 2.8239H20.7552C20.2934 2.8239 19.919 2.45882 19.919 2.00826C19.919 1.55771 20.2934 1.19263 20.7552 1.19263H53.1178C55.4233 1.19263 57.2988 3.02204 57.2988 5.2708V34.8512C57.2988 36.8206 55.8601 38.4685 53.954 38.8475V43.0075C53.954 44.3567 52.8286 45.4544 51.4454 45.4544ZM1.88687 15.0041V34.8512C1.88687 36.2003 3.01217 37.2981 4.39546 37.2981H25.5233V28.0542H11.085C10.6232 28.0542 10.2488 27.6891 10.2488 27.2386C10.2488 26.788 10.6232 26.4229 11.085 26.4229H25.5233V23.1604H11.085C10.6232 23.1604 10.2488 22.7953 10.2488 22.3448C10.2488 21.8942 10.6232 21.5291 11.085 21.5291H25.5233V20.1697C25.5233 18.8206 26.6486 17.7228 28.0319 17.7228H51.4454C52.8286 17.7228 53.954 18.8206 53.954 20.1697V37.1583C54.9273 36.8216 55.6264 35.9145 55.6264 34.8512V15.0041H39.0697C38.6078 15.0041 38.2335 14.639 38.2335 14.1884C38.2335 13.7379 38.6078 13.3728 39.0697 13.3728H55.6264V9.02273H1.88687V13.3728H35.279C35.7409 13.3728 36.1152 13.7379 36.1152 14.1884C36.1152 14.639 35.7409 15.0041 35.279 15.0041H1.88687ZM39.4599 40.5606C36.1964 40.5606 33.9719 39.994 32.9366 39.6565C32.3369 39.4606 31.9342 38.9146 31.9342 38.2975V31.405C31.9342 30.7879 32.3369 30.2419 32.9363 30.0461C33.2966 29.9285 33.8008 29.7834 34.4428 29.6439V25.8792C34.4428 23.1807 36.6935 20.9854 39.4599 20.9854C42.2264 20.9854 44.4771 23.1807 44.4771 25.8792V29.6438C45.1189 29.7833 45.623 29.9284 45.9833 30.0459C46.583 30.2417 46.9857 30.7878 46.9857 31.4048V38.2974C46.9857 38.9145 46.583 39.4605 45.9836 39.6562C44.948 39.994 42.7235 40.5606 39.4599 40.5606ZM33.6066 38.1536C34.4608 38.4182 36.4959 38.9294 39.4599 38.9294C42.4238 38.9294 44.4587 38.4183 45.3133 38.1536V31.5487C44.4591 31.2841 42.424 30.773 39.4599 30.773C36.4961 30.773 34.4612 31.284 33.6066 31.5487V38.1536ZM39.4599 22.6166C37.6156 22.6166 36.1152 24.0802 36.1152 25.8792V29.3543C37.0651 29.2285 38.1829 29.1417 39.4599 29.1417C40.737 29.1417 41.8548 29.2285 42.8047 29.3543V25.8792C42.8047 24.0802 41.3043 22.6166 39.4599 22.6166ZM18.6404 32.948H11.085C10.6232 32.948 10.2488 32.5829 10.2488 32.1324C10.2488 31.6818 10.6232 31.3168 11.085 31.3168H18.6404C19.1023 31.3168 19.4766 31.6818 19.4766 32.1324C19.4766 32.5829 19.1023 32.948 18.6404 32.948Z" fill="black"/>
</g>
<defs>
<clipPath id="clip0_241_705">
<rect width="57.0843" height="46.068" fill="white" transform="translate(0.214478)"/>
</clipPath>
</defs>
</svg>
