<svg width="57" height="46" viewBox="0 0 57 46" fill="none" xmlns="http://www.w3.org/2000/svg">
<g clip-path="url(#clip0_241_717)">
<path d="M13.4357 33.3397C11.8617 33.3397 10.5857 34.6247 10.5857 36.2097C10.5857 37.7947 11.8616 39.0797 13.4357 39.0797C15.0098 39.0797 16.2857 37.7948 16.2857 36.2097C16.2839 34.6254 15.009 33.3414 13.4357 33.3397ZM13.4357 37.1664C12.911 37.1664 12.4857 36.7381 12.4857 36.2097C12.4857 35.6813 12.911 35.2531 13.4357 35.2531C13.9604 35.2531 14.3857 35.6813 14.3857 36.2097C14.3851 36.7379 13.9602 37.1658 13.4357 37.1664Z" fill="black"/>
<path d="M43.5642 33.3397C41.9903 33.3397 40.7142 34.6247 40.7142 36.2097C40.7142 37.7947 41.9903 39.0797 43.5642 39.0797C45.1382 39.0797 46.4142 37.7948 46.4142 36.2097C46.4126 34.6254 45.1375 33.3414 43.5642 33.3397ZM43.5642 37.1664C43.0395 37.1664 42.6143 36.7381 42.6143 36.2097C42.6143 35.6813 43.0397 35.2531 43.5642 35.2531C44.0889 35.2531 44.5142 35.6813 44.5142 36.2097C44.5137 36.7379 44.0887 37.1658 43.5642 37.1664Z" fill="black"/>
<path d="M56.2759 19.9955L49.7317 12.5739C49.1896 11.9591 48.4116 11.6081 47.5951 11.6097H38.95V5.86975C38.9484 4.28542 37.6733 3.00144 36.1 2.99976H2.85C1.27671 3.00144 0.00167001 4.28542 0 5.86975V30.743C0 30.9968 0.0999728 31.2401 0.278209 31.4196C0.456334 31.599 0.698027 31.6998 0.950074 31.6998H1.90004V34.5698C1.90171 36.1541 3.17675 37.4381 4.75004 37.4398H6.72589C7.19413 40.7335 9.99582 43.1798 13.3 43.1798C16.6043 43.1798 19.4059 40.7335 19.8742 37.4398H37.126C37.5943 40.7335 40.396 43.1798 43.7002 43.1798C47.0044 43.1798 49.8061 40.7335 50.2743 37.4398H54.15C55.7233 37.4381 56.9983 36.1541 57 34.5698V21.9032C56.9993 21.1993 56.7416 20.5204 56.2759 19.9955ZM1.90004 29.7863V5.86975C1.90059 5.3416 2.32553 4.91357 2.85 4.91312H36.1C36.6245 4.91368 37.0496 5.3416 37.05 5.86975V29.7863H1.90004ZM6.72589 35.5263H4.75004C4.22557 35.5257 3.80052 35.0978 3.80007 34.5697V31.6997H8.65509C7.6115 32.7268 6.9334 34.0718 6.72589 35.5263ZM13.3 41.2663C10.6767 41.2663 8.55 39.1247 8.55 36.4829C8.55 33.8412 10.6767 31.6997 13.3 31.6997C15.9234 31.6997 18.0501 33.8413 18.0501 36.483C18.047 39.1234 15.922 41.2633 13.3 41.2663ZM22.8 35.5263H19.8741C19.6666 34.0718 18.9886 32.7267 17.945 31.6997H22.8V35.5263ZM31.35 35.5263H24.7V31.6997H31.35V35.5263ZM37.1259 35.5263H33.25V31.6997H39.055C38.0114 32.7268 37.3334 34.0718 37.1259 35.5263ZM43.7 41.2663C41.0766 41.2663 38.9499 39.1247 38.9499 36.4829C38.9499 33.8412 41.0765 31.6996 43.7 31.6996C46.3233 31.6996 48.45 33.8412 48.45 36.4829C48.4469 39.1234 46.3221 41.2633 43.7 41.2663ZM55.1 34.5697C55.0994 35.0978 54.6745 35.5258 54.15 35.5263H50.2741C49.8004 32.2356 47.0021 29.7923 43.7 29.7863H38.9499V13.5231H42.75V23.0897C42.7517 24.674 44.0267 25.958 45.6 25.9597H55.1V34.5697ZM55.1 24.0463H45.6C45.0755 24.0458 44.6505 23.6178 44.65 23.0897V13.5231H47.5951C47.8679 13.5215 48.1282 13.6379 48.3099 13.8426L54.8565 21.267C55.0123 21.4419 55.099 21.6683 55.1001 21.9032L55.1 24.0463Z" fill="black"/>
</g>
<defs>
<clipPath id="clip0_241_717">
<rect width="57" height="41" fill="white" transform="translate(0 3)"/>
</clipPath>
</defs>
</svg>
