<?xml version="1.0" encoding="UTF-8"?>
<svg width="34px" height="51px" viewBox="0 0 34 51" version="1.1" xmlns="http://www.w3.org/2000/svg" xmlns:xlink="http://www.w3.org/1999/xlink">
    <title>bolsa</title>
    <defs>
        <rect id="path-1" x="0" y="0" width="22" height="21"></rect>
        <polygon id="path-3" points="0 0.484615385 243.287407 0.484615385 243.287407 34.7307692 0 34.7307692"></polygon>
    </defs>
    <g id="product-page" stroke="none" stroke-width="1" fill="none" fill-rule="evenodd">
        <g id="DSK-v1" transform="translate(-862.000000, -2804.000000)">
            <g id="Group-9" transform="translate(773.000000, 2788.000000)">
                <g id="Group-5" transform="translate(63.000000, 0.000000)">
                    <g id="Group" transform="translate(26.000000, 16.500000)">
                        <g id="bolsa-de-la-compra-(1)" fill="#000000" fill-rule="nonzero">
                            <path d="M9.03968254,20.6349172 L6.34126984,20.6349172 C5.9686968,20.6349172 5.66666667,20.2666353 5.66666667,19.8123365 C5.66666667,19.3580378 5.9686968,18.9897559 6.34126984,18.9897559 L9.03968254,18.9897559 C9.41225559,18.9897559 9.71428571,19.3580378 9.71428571,19.8123365 C9.71428571,20.2666353 9.41225559,20.6349172 9.03968254,20.6349172 Z" id="Path"></path>
                            <path d="M29.0416667,50.2478204 L4.95833333,50.2478204 C2.22121599,50.2446206 0.00312278381,47.9718116 0,45.1671752 L0,13.9574978 C0,13.556646 0.317131636,13.2316914 0.708333333,13.2316914 L33.2916667,13.2316914 C33.6828684,13.2316914 34,13.556646 34,13.9574978 L34,45.1671752 C33.9968772,47.9718116 31.778784,50.2446206 29.0416667,50.2478204 L29.0416667,50.2478204 Z M1.41666667,14.6833043 L1.41666667,45.1671752 C1.4190085,47.1704396 3.00329568,48.7938079 4.95833333,48.7962075 L29.0416667,48.7962075 C30.9967043,48.7938079 32.5809915,47.1704396 32.5833333,45.1671752 L32.5833333,14.6833043 L1.41666667,14.6833043 Z" id="Shape"></path>
                            <path d="M26.0204082,20.6349172 C25.6371902,20.6349172 25.3265306,20.3118629 25.3265306,19.9133552 L25.3265306,10.1722686 C25.3265306,5.39017656 21.5986159,1.51352499 17,1.51352499 C12.4013841,1.51352499 8.67346939,5.39017656 8.67346939,10.1722686 L8.67346939,19.9133552 C8.67346939,20.3118629 8.36280983,20.6349172 7.97959184,20.6349172 C7.59637385,20.6349172 7.28571429,20.3118629 7.28571429,19.9133552 L7.28571429,10.1722686 C7.28571429,4.59316121 11.6349481,0.0704010462 17,0.0704010462 C22.3650519,0.0704010462 26.7142857,4.59316121 26.7142857,10.1722686 L26.7142857,19.9133552 C26.7142857,20.3118629 26.4036262,20.6349172 26.0204082,20.6349172 L26.0204082,20.6349172 Z" id="Path"></path>
                            <path d="M27.6587302,20.6349172 L24.9603175,20.6349172 C24.5877444,20.6349172 24.2857143,20.2666353 24.2857143,19.8123365 C24.2857143,19.3580378 24.5877444,18.9897559 24.9603175,18.9897559 L27.6587302,18.9897559 C28.0313032,18.9897559 28.3333333,19.3580378 28.3333333,19.8123365 C28.3333333,20.2666353 28.0313032,20.6349172 27.6587302,20.6349172 Z" id="Path"></path>
                        </g>
                        <g id="logo-copy" transform="translate(6.000000, 24.000000)">
                            <mask id="mask-2" fill="white">
                                <use xlink:href="#path-1"></use>
                            </mask>
                            <g id="Mask"></g>
                            <g id="logo" mask="url(#mask-2)">
                                <g transform="translate(-46.444444, 1.615385)" id="Clipped">
                                    <g>
                                        <mask id="mask-4" fill="white">
                                            <use xlink:href="#path-3"></use>
                                        </mask>
                                        <g id="a"></g>
                                        <path d="M0,16.3961538 L11.2281481,16.3961538 L11.2281481,12.8988462 L4.34296296,12.8988462 L4.34296296,0.864230769 L0,0.864230769 L0,16.3961538 Z M26.9377778,16.3961538 L31.4192593,16.3961538 L23.5481481,0.589615385 C23.482963,0.428076923 23.3362963,0.428076923 23.2711111,0.589615385 L15.3674074,16.38 L19.6207407,16.38 L20.4355556,14.4980769 L26.0740741,14.4980769 L26.9377778,16.3719231 L26.9377778,16.3961538 Z M23.2222222,8.20615385 L24.6888889,11.4934615 L21.7555556,11.4934615 L23.2222222,8.20615385 Z M48.9459259,16.3961538 L53.2807407,16.3961538 L53.2807407,9.24807692 L57.2733333,13.1007692 C57.3792593,13.1815385 57.4037037,13.1815385 57.4933333,13.1007692 L61.5674074,9.24807692 L61.5674074,16.3880769 L65.9103704,16.3880769 L65.9103704,0.589615385 C65.9103704,0.476538462 65.7881481,0.452307692 65.6985185,0.541153846 L57.477037,8.23846154 L49.1659259,0.549230769 C49.0355556,0.436153846 48.9459259,0.468461538 48.9459259,0.597692308 L48.9459259,16.3961538 Z M81.2451852,16.3961538 L85.7266667,16.3961538 L77.8718519,0.589615385 C77.7903704,0.428076923 77.6518519,0.428076923 77.5866667,0.589615385 L69.6911111,16.3961538 L73.9281481,16.3961538 L74.742963,14.5142308 L80.3977778,14.5142308 L81.2533333,16.3880769 L81.2451852,16.3961538 Z M77.5377778,8.20615385 L79.0044444,11.4934615 L76.0711111,11.4934615 L77.5377778,8.20615385 Z M89.98,16.38 L101.208148,16.38 L101.208148,12.8826923 L94.322963,12.8826923 L94.322963,0.864230769 L89.98,0.864230769 L89.98,16.3961538 L89.98,16.38 Z M105.477778,16.38 L116.705926,16.38 L116.705926,12.8826923 L109.820741,12.8826923 L109.820741,0.864230769 L105.477778,0.864230769 L105.477778,16.3961538 L105.477778,16.38 Z M128.414815,16.5738462 C133.075556,16.5738462 137.108889,13.2865385 137.108889,8.61 C137.108889,3.93346154 133.075556,0.686538462 128.414815,0.686538462 C123.72963,0.686538462 119.696296,3.94961538 119.696296,8.62615385 C119.696296,13.3026923 123.72963,16.59 128.414815,16.59 M128.414815,12.9876923 C125.685185,12.9876923 124.137037,11.0734615 124.137037,8.62615385 C124.137037,6.17884615 125.685185,4.28884615 128.406667,4.28884615 C131.111852,4.28884615 132.66,6.195 132.66,8.63423077 C132.66,11.0734615 131.111852,12.9957692 128.398519,12.9957692 M146.194074,11.5419231 L147.677037,11.5419231 L150.528889,16.3880769 L155.23037,16.3880769 L151.873333,10.8957692 C153.812593,10.0557692 154.831111,8.43230769 154.831111,6.37269231 C154.831111,3.20653846 152.54963,0.880384615 148.418519,0.880384615 L141.867407,0.880384615 L141.867407,16.3880769 L146.202222,16.3880769 L146.202222,11.5419231 L146.194074,11.5419231 Z M146.194074,8.35961538 L146.194074,4.40192308 L148.198519,4.40192308 C149.665185,4.40192308 150.463704,5.09653846 150.463704,6.38076923 C150.463704,7.665 149.673333,8.35153846 148.198519,8.35153846 L146.194074,8.35153846 L146.194074,8.35961538 Z M174.207407,13.6338462 C175.42963,12.285 176.162963,10.5646154 176.162963,8.62615385 C176.162963,3.95769231 172.137778,0.694615385 167.460741,0.694615385 C162.791852,0.694615385 158.758519,3.95769231 158.758519,8.63423077 C158.758519,13.3107692 162.791852,16.5980769 167.460741,16.5980769 C168.845926,16.5980769 170.206667,16.275 171.396296,15.7338462 L173.637037,17.8823077 L176.138519,15.4834615 L174.199259,13.6257692 L174.207407,13.6338462 Z M168.560741,12.9876923 C168.218519,13.0684615 167.827407,13.1088462 167.452593,13.1088462 C164.739259,13.1088462 163.191111,11.2834615 163.191111,8.63423077 C163.191111,6.195 164.739259,4.29692308 167.460741,4.29692308 C170.182222,4.29692308 171.73037,6.20307692 171.73037,8.64230769 C171.73037,9.46615385 171.583704,10.1930769 171.298519,10.8392308 L169.587407,9.16730769 L167.061481,11.5661538 L168.560741,13.0038462 L168.560741,12.9876923 Z M187.301481,16.6223077 C191.375556,16.6223077 194.34963,14.5707692 194.34963,10.4030769 L194.34963,0.856153846 L190.006667,0.856153846 L190.006667,10.3384615 C190.006667,12.0992308 189.151111,13.1007692 187.317778,13.1007692 C185.476296,13.1007692 184.628889,12.0992308 184.628889,10.3384615 L184.628889,0.872307692 L180.277778,0.872307692 L180.277778,10.3869231 C180.277778,14.5626923 183.26,16.6061538 187.30963,16.6061538 M199.368889,16.3880769 L203.687407,16.3880769 L203.687407,0.864230769 L199.368889,0.864230769 L199.368889,16.3719231 L199.368889,16.3880769 Z M223.60963,16.6546154 C223.87037,16.8565385 223.935556,16.7919231 223.935556,16.6061538 L223.935556,0.864230769 L219.861481,0.864230769 L219.861481,8.65038462 L209.676296,0.63 C209.431852,0.42 209.35037,0.533076923 209.35037,0.670384615 L209.35037,16.3961538 L213.424444,16.3961538 L213.424444,8.64230769 L223.60963,16.6626923 L223.60963,16.6546154 Z M238.78963,16.38 L243.271111,16.38 L235.432593,0.589615385 C235.351111,0.428076923 235.220741,0.428076923 235.147407,0.589615385 L227.243704,16.38 L231.497037,16.38 L232.311852,14.4980769 L237.958519,14.4980769 L238.822222,16.3719231 L238.78963,16.38 Z M235.074074,8.19807692 L236.540741,11.4853846 L233.623704,11.4853846 L235.074074,8.19807692 Z M71.0925926,34.6338462 L73.3577778,34.6338462 C74.8081481,34.6338462 75.3948148,33.8746154 75.3948148,32.8407692 C75.3948148,31.9280769 74.9466667,31.3626923 74.0911111,31.1930769 C74.7837037,30.9507692 75.0281481,30.4661538 75.0281481,29.7876923 C75.0281481,28.8992308 74.4577778,28.1884615 73.1540741,28.1884615 L71.0925926,28.1884615 L71.0925926,34.6338462 L71.0925926,34.6338462 Z M71.5,34.2946154 L71.5,31.3869231 L73.2762963,31.3869231 C74.4577778,31.3869231 74.9874074,31.92 74.9874074,32.8407692 C74.9874074,33.6969231 74.5637037,34.2946154 73.3088889,34.2946154 L71.4918519,34.2946154 L71.5,34.2946154 Z M71.5,31.0476923 L71.5,28.5276923 L73.1296296,28.5276923 C74.2214815,28.5276923 74.6288889,29.0769231 74.6288889,29.7876923 C74.6288889,30.5146154 74.2622222,31.0476923 73.2925926,31.0476923 L71.4837037,31.0476923 L71.5,31.0476923 Z M79.697037,32.5661538 L81.0251852,29.3838462 C81.1066667,29.1657692 81.2125926,28.8346154 81.2207407,28.8184615 C81.2207407,28.8346154 81.3185185,29.1657692 81.4162963,29.4 L82.7444444,32.5661538 L79.6888889,32.5661538 L79.697037,32.5661538 Z M78.4340741,34.6338462 L78.8414815,34.6338462 L79.5585185,32.9053846 L82.8748148,32.9053846 L83.6081481,34.6338462 L84.0155556,34.6338462 L81.2777778,28.1076923 L81.1637037,28.1076923 L78.4422222,34.6338462 L78.4340741,34.6338462 Z M87.4540741,34.6338462 L87.8614815,34.6338462 L87.8614815,31.9684615 L89.2466667,31.9684615 C89.4096296,31.9684615 89.5725926,31.9684615 89.7111111,31.9442308 L91.3407407,34.6338462 L91.8296296,34.6338462 L90.1185185,31.8715385 C91.0392593,31.6292308 91.5851852,31.0234615 91.5851852,30.0784615 C91.5851852,28.8265385 90.6644444,28.1803846 89.2466667,28.1803846 L87.4540741,28.1803846 L87.4540741,34.6257692 L87.4540741,34.6338462 Z M87.8614815,31.6292308 L87.8614815,28.5276923 L89.2140741,28.5276923 C90.5177778,28.5276923 91.1696296,29.0526923 91.1696296,30.0784615 C91.1696296,31.0961538 90.5177778,31.6292308 89.2140741,31.6292308 L87.8614815,31.6292308 L87.8614815,31.6292308 Z M98.3481481,34.6984615 C99.5133333,34.6984615 100.507407,34.2461538 101.094074,33.4061538 L100.792593,33.2123077 C100.254815,33.9392308 99.382963,34.3592308 98.3481481,34.3592308 C96.6125926,34.3592308 95.3088889,33.0992308 95.3088889,31.4111538 C95.3088889,29.7230769 96.6125926,28.4469231 98.34,28.4469231 C99.3992593,28.4469231 100.214074,28.8669231 100.702963,29.5453846 L101.012593,29.3030769 C100.442222,28.5276923 99.5133333,28.0915385 98.3237037,28.0915385 C96.4333333,28.0915385 94.8851852,29.4323077 94.8851852,31.4030769 C94.8851852,33.3415385 96.4333333,34.6903846 98.3318519,34.6903846 M104.557037,34.6096154 L108.631111,34.6096154 L108.631111,34.2865385 L104.964444,34.2865385 L104.964444,31.5403846 L108.125926,31.5403846 L108.125926,31.2011538 L104.964444,31.2011538 L104.964444,28.5115385 L108.492593,28.5115385 L108.492593,28.1642308 L104.565185,28.1642308 L104.565185,34.6096154 L104.557037,34.6096154 Z M112.216296,34.6096154 L115.866667,34.6096154 L115.866667,34.2865385 L112.623704,34.2865385 L112.623704,28.1642308 L112.216296,28.1642308 L112.216296,34.6096154 L112.216296,34.6096154 Z M121.831111,34.6903846 C123.721481,34.6903846 125.26963,33.3576923 125.26963,31.395 C125.26963,29.4161538 123.721481,28.0834615 121.822963,28.0834615 C119.924444,28.0834615 118.376296,29.4242308 118.376296,31.395 C118.376296,33.3334615 119.924444,34.6823077 121.822963,34.6823077 M121.822963,34.335 C120.087407,34.335 118.791852,33.075 118.791852,31.3869231 C118.791852,29.6988462 120.095556,28.4226923 121.831111,28.4226923 C123.566667,28.4226923 124.862222,29.6907692 124.862222,31.3788462 C124.862222,33.0669231 123.558519,34.3188462 121.831111,34.3188462 M133.808889,34.6661538 L133.922963,34.6661538 L133.922963,28.1884615 L133.548148,28.1884615 L133.548148,33.3980769 C133.548148,33.5838462 133.588889,33.8826923 133.588889,33.8826923 C133.588889,33.8826923 133.40963,33.6161538 133.279259,33.4546154 L128.960741,28.1076923 L128.854815,28.1076923 L128.854815,34.6338462 L129.22963,34.6338462 L129.22963,29.4161538 C129.22963,29.2303846 129.197037,28.9315385 129.197037,28.9315385 C129.197037,28.9315385 129.376296,29.1980769 129.506667,29.3596154 L133.825185,34.7065385 L133.808889,34.6661538 Z M138.632593,32.5257692 L139.952593,29.3434615 C140.034074,29.1253846 140.14,28.7942308 140.148148,28.7780769 C140.164444,28.7942308 140.254074,29.1253846 140.351852,29.3596154 L141.671852,32.5257692 L138.640741,32.5257692 L138.632593,32.5257692 Z M137.361481,34.5934615 L137.768889,34.5934615 L138.477778,32.865 L141.794074,32.865 L142.527407,34.5934615 L142.934815,34.5934615 L140.197037,28.0673077 L140.082963,28.0673077 L137.361481,34.5934615 Z M151.099259,34.5934615 L151.49037,34.5934615 L151.49037,28.455 L150.105185,28.455 L150.105185,28.7780769 L151.099259,28.7780769 L151.099259,34.5934615 Z M156.314074,34.5934615 L156.721481,34.5934615 L158.677037,31.8230769 C159.002963,31.3707692 159.198519,30.9588462 159.198519,30.45 C159.198519,29.3192308 158.302222,28.3903846 157.022963,28.3903846 C155.751852,28.3903846 154.855556,29.3111538 154.855556,30.45 C154.855556,31.5807692 155.751852,32.5096154 156.974074,32.5096154 C157.397778,32.5096154 157.764444,32.3642308 158.114815,32.1057692 C158.114815,32.1057692 157.911111,32.3480769 157.805185,32.4853846 L156.297778,34.5853846 L156.314074,34.5934615 Z M157.022963,32.1865385 C155.882222,32.1865385 155.246667,31.3788462 155.246667,30.45 C155.246667,29.5211538 155.922963,28.7296154 157.022963,28.7296154 C158.139259,28.7296154 158.815556,29.5211538 158.815556,30.45 C158.815556,31.4030769 158.114815,32.1865385 157.022963,32.1865385 M164.926667,34.5934615 L165.334074,34.5934615 L165.334074,33.3415385 L165.985926,33.3415385 L165.985926,33.0184615 L165.334074,33.0184615 L165.334074,28.35 L165.285185,28.35 L161.276296,33.3415385 L161.276296,33.3819231 L164.942963,33.3819231 L164.942963,34.6338462 L164.926667,34.5934615 Z M161.846667,33.0588462 C161.846667,33.0588462 162.131852,32.7680769 162.302963,32.5742308 L164.584444,29.7230769 C164.763704,29.4807692 164.975556,29.1576923 164.975556,29.1576923 C164.975556,29.1576923 164.942963,29.5453846 164.942963,29.82 L164.942963,33.0103846 L162.514815,33.0103846 C162.254074,33.0103846 161.862963,33.0507692 161.862963,33.0507692 M169.359259,34.5853846 L169.766667,34.5853846 L173.001481,28.5034615 L173.001481,28.4630769 L168.601481,28.4630769 L168.601481,28.7861538 L172.447407,28.7861538 L169.351111,34.5853846 L169.359259,34.5853846 Z" id="Shape" fill="#131718" fill-rule="nonzero" mask="url(#mask-4)"></path>
                                    </g>
                                    <g transform="translate(70.888889, 27.461538)">
                                        <path d="M0.627407407,3.55384615 L2.42,3.55384615 C3.47925926,3.55384615 3.7237037,2.89153846 3.7237037,2.32615385 C3.7237037,1.76076923 3.45481481,1.09038462 2.23259259,1.09038462 L0.627407407,1.09038462 L0.627407407,3.56192308 L0.627407407,3.55384615 Z M2.42,3.61038462 L0.57037037,3.61038462 L0.57037037,1.03384615 L2.23259259,1.03384615 C3.21037037,1.03384615 3.76444444,1.49423077 3.76444444,2.32615385 C3.76444444,2.90769231 3.52,3.61846154 2.41185185,3.61846154 M16.997037,4.14346154 L18.317037,4.14346154 C19.5881481,4.14346154 20.2562963,3.61038462 20.2562963,2.60884615 C20.2562963,1.59923077 19.6044444,1.09038462 18.317037,1.09038462 L16.9888889,1.09038462 L16.9888889,4.13538462 L16.997037,4.14346154 Z M18.317037,4.19192308 L16.9318519,4.19192308 L16.9318519,1.04192308 L18.317037,1.04192308 C19.6207407,1.04192308 20.3051852,1.575 20.3051852,2.60884615 C20.3051852,3.63461538 19.6207407,4.18384615 18.317037,4.18384615 M86.1503704,1.31653846 C85.0096296,1.31653846 84.3985185,2.16461538 84.3985185,3.01269231 C84.3985185,3.83653846 84.9444444,4.725 86.1503704,4.725 C87.1688889,4.725 87.9103704,3.99807692 87.9103704,3.01269231 C87.9103704,2.01115385 87.177037,1.31653846 86.1422222,1.31653846 M86.1422222,4.77346154 C85.5962963,4.77346154 85.14,4.58769231 84.8059259,4.24846154 C84.4962963,3.92538462 84.317037,3.48923077 84.317037,3.01269231 C84.317037,2.00307692 85.0911111,1.26807692 86.1340741,1.26807692 C87.3237037,1.26807692 87.9511111,2.13230769 87.9511111,3.00461538 C87.9511111,4.02230769 87.1851852,4.76538462 86.1340741,4.76538462 M8.83259259,5.05615385 L11.7903704,5.05615385 L10.4703704,1.90615385 C10.4051852,1.74461538 10.3318519,1.52653846 10.3074074,1.40538462 C10.2666667,1.51846154 10.1933333,1.74461538 10.1281481,1.90615385 L8.82444444,5.05615385 L8.83259259,5.05615385 Z M11.8637037,5.09653846 L8.76740741,5.09653846 L8.76740741,5.06423077 L10.0874074,1.89 C10.1688889,1.71230769 10.2503704,1.45384615 10.2666667,1.35692308 C10.2666667,1.35692308 10.282963,1.33269231 10.282963,1.32461538 L10.3074074,1.24384615 L10.3318519,1.32461538 C10.3318519,1.32461538 10.3318519,1.34884615 10.3481481,1.37307692 C10.3807407,1.47807692 10.4540741,1.72846154 10.5274074,1.91423077 L11.8637037,5.10461538 L11.8637037,5.09653846 Z M67.7762963,5.04807692 L70.7259259,5.04807692 L69.4222222,1.89807692 C69.3407407,1.73653846 69.2837037,1.51846154 69.2592593,1.39730769 C69.1777778,1.65576923 69.1125926,1.80115385 69.0718519,1.89807692 L67.7681481,5.04807692 L67.7762963,5.04807692 Z M70.8074074,5.08846154 L67.6948148,5.08846154 L67.7111111,5.05615385 L69.0311111,1.88192308 C69.0637037,1.80115385 69.1288889,1.62346154 69.2185185,1.31653846 L69.2511111,1.23576923 L69.2837037,1.31653846 C69.2837037,1.31653846 69.2837037,1.33269231 69.3,1.35692308 C69.3244444,1.45384615 69.3977778,1.71230769 69.4792593,1.89807692 L70.8155556,5.08846154 L70.8074074,5.08846154 Z M94.0459259,1.77692308 C93.9644444,1.90615385 93.8340741,2.11615385 93.7037037,2.27769231 L91.4385185,5.12076923 C91.3081481,5.26615385 91.1125926,5.46 91.0311111,5.54884615 C91.1451852,5.54884615 91.4222222,5.52461538 91.6177778,5.52461538 L94.0214815,5.52461538 L94.0214815,2.35038462 C94.0214815,2.16461538 94.0459259,1.91423077 94.0540741,1.785 M90.9007407,5.65384615 L90.9496296,5.61346154 C90.9496296,5.61346154 91.242963,5.33076923 91.4140741,5.12884615 L93.6711111,2.28576923 C93.8585185,2.05961538 94.0622222,1.72038462 94.0622222,1.72038462 L94.1192593,1.62346154 L94.1192593,1.73653846 C94.1192593,1.73653846 94.0866667,2.14038462 94.0866667,2.40692308 L94.0866667,5.62153846 L91.6259259,5.62153846 C91.3651852,5.62153846 90.9740741,5.66192308 90.9740741,5.66192308 L90.8925926,5.66192308 L90.9007407,5.65384615 Z M0.619259259,6.80076923 L2.41185185,6.80076923 C3.5362963,6.80076923 4.08222222,6.34038462 4.08222222,5.37923077 C4.08222222,4.43423077 3.51185185,3.94961538 2.39555556,3.94961538 L0.635555556,3.94961538 L0.635555556,6.79269231 L0.619259259,6.80076923 Z M2.41185185,6.85730769 L0.578518519,6.85730769 L0.578518519,3.89307692 L2.39555556,3.89307692 C3.55259259,3.89307692 4.13925926,4.39384615 4.13925926,5.37115385 C4.13925926,6.34846154 3.56888889,6.84923077 2.42814815,6.84923077 M50.9585185,1.00153846 C49.2474074,1.00153846 47.9437037,2.26153846 47.9437037,3.93346154 C47.9437037,5.60538462 49.2474074,6.84115385 50.9585185,6.84115385 C52.6696296,6.84115385 53.9733333,5.58923077 53.9733333,3.93346154 C53.9733333,2.27769231 52.6696296,0.993461538 50.9585185,0.993461538 M50.9585185,6.88961538 C49.2148148,6.88961538 47.8948148,5.61346154 47.8948148,3.91730769 C47.8948148,2.22115385 49.2148148,0.945 50.9585185,0.945 C52.7022222,0.945 54.0140741,2.22115385 54.0140741,3.91730769 C54.0140741,5.61346154 52.7103704,6.90576923 50.9585185,6.90576923 M0.236296296,7.12384615 L2.47703704,7.12384615 C3.78074074,7.12384615 4.48962963,6.49384615 4.48962963,5.34692308 C4.48962963,4.45846154 4.04148148,3.89307692 3.18592593,3.73153846 L3.10444444,3.70730769 L3.18592593,3.68307692 C3.83777778,3.45692308 4.12296296,3.02076923 4.12296296,2.29384615 C4.12296296,1.30038462 3.43037037,0.710769231 2.28148148,0.710769231 L0.228148148,0.710769231 L0.228148148,7.11576923 L0.236296296,7.12384615 Z M2.47703704,7.17230769 L0.162962963,7.17230769 L0.162962963,0.678461538 L2.28148148,0.678461538 C3.45481481,0.678461538 4.15555556,1.29230769 4.15555556,2.31 C4.15555556,3.03692308 3.88666667,3.47307692 3.2837037,3.70730769 C4.09851852,3.90115385 4.53037037,4.47461538 4.53037037,5.37115385 C4.53037037,6.04961538 4.26148148,7.18846154 2.46888889,7.18846154 M12.7192593,7.14807692 L13.0859259,7.14807692 L10.3725926,0.670384615 L10.2911111,0.670384615 L7.58592593,7.14807692 L7.9362963,7.14807692 L8.65333333,5.41961538 L12.0103704,5.41961538 L12.0103704,5.44384615 L12.7437037,7.15615385 L12.7192593,7.14807692 Z M13.1674074,7.19653846 L12.6948148,7.19653846 L11.9614815,5.47615385 L8.68592593,5.47615385 L7.97703704,7.20461538 L7.51259259,7.20461538 L10.2666667,0.638076923 L10.4296296,0.638076923 L10.4296296,0.654230769 L13.1755556,7.19653846 L13.1674074,7.19653846 Z M20.4762963,7.15615385 L20.9,7.15615385 L19.2133333,4.41 L19.2459259,4.39384615 C20.1748148,4.15153846 20.6881481,3.52961538 20.6881481,2.61692308 C20.6881481,1.43769231 19.8488889,0.759230769 18.3740741,0.759230769 L16.5977778,0.759230769 L16.5977778,7.15615385 L16.9562963,7.15615385 L16.9562963,4.49076923 L18.3659259,4.49076923 C18.5288889,4.49076923 18.6755556,4.49076923 18.8222222,4.46653846 L18.8385185,4.48269231 L20.4681481,7.14807692 L20.4762963,7.15615385 Z M20.9896296,7.20461538 L20.4437037,7.20461538 L18.8140741,4.52307692 C18.6674074,4.54730769 18.5207407,4.54730769 18.3659259,4.54730769 L16.997037,4.54730769 L16.997037,7.21269231 L16.5407407,7.21269231 L16.5407407,0.718846154 L18.3577778,0.718846154 C19.8651852,0.718846154 20.7207407,1.42153846 20.7207407,2.64115385 C20.7207407,3.55384615 20.2155556,4.19192308 19.2785185,4.45038462 L20.9896296,7.22076923 L20.9896296,7.20461538 Z M33.7251852,7.16423077 L37.7422222,7.16423077 L37.7422222,6.87346154 L34.0755556,6.87346154 L34.0755556,4.07884615 L37.2533333,4.07884615 L37.2533333,3.78807692 L34.0755556,3.78807692 L34.0755556,1.04192308 L37.6118519,1.04192308 L37.6118519,0.759230769 L33.7333333,0.759230769 L33.7333333,7.15615385 L33.7251852,7.16423077 Z M37.7992593,7.21269231 L33.6681481,7.21269231 L33.6681481,0.718846154 L37.6607407,0.718846154 L37.6607407,1.10653846 L34.1325926,1.10653846 L34.1325926,3.75576923 L37.2940741,3.75576923 L37.2940741,4.14346154 L34.1325926,4.14346154 L34.1325926,6.825 L37.7992593,6.825 L37.7992593,7.22884615 L37.7992593,7.21269231 Z M41.3844444,7.17230769 L44.9696296,7.17230769 L44.9696296,6.88153846 L41.7348148,6.88153846 L41.7348148,0.726923077 L41.3925926,0.726923077 L41.3925926,7.13192308 L41.3844444,7.17230769 Z M45.0266667,7.22076923 L41.3274074,7.22076923 L41.3274074,0.726923077 L41.7918519,0.726923077 L41.7918519,6.83307692 L45.0348148,6.83307692 L45.0348148,7.23692308 L45.0266667,7.22076923 Z M71.6711111,7.18038462 L72.0296296,7.18038462 L69.3081481,0.702692308 L69.2266667,0.702692308 L66.5214815,7.18038462 L66.8718519,7.18038462 L67.5888889,5.45192308 L70.9296296,5.45192308 L70.9459259,5.47615385 L71.662963,7.18846154 L71.6711111,7.18038462 Z M72.1111111,7.22884615 L71.6222222,7.22884615 L70.9051852,5.50846154 L67.6296296,5.50846154 L66.8962963,7.23692308 L66.4481481,7.23692308 L69.1859259,0.670384615 L69.3488889,0.670384615 L69.3488889,0.686538462 L72.1192593,7.22884615 L72.1111111,7.22884615 Z M80.2592593,7.18846154 L80.5851852,7.18846154 L80.5851852,1.10653846 L79.2651852,1.10653846 L79.2651852,1.38115385 L80.2592593,1.38115385 L80.2592593,7.19653846 L80.2592593,7.18846154 Z M80.6422222,7.23692308 L80.2022222,7.23692308 L80.2022222,1.43769231 L79.2244444,1.43769231 L79.2244444,1.06615385 L80.6422222,1.06615385 L80.6422222,7.245 L80.6422222,7.23692308 Z M85.4822222,7.19653846 L85.8488889,7.19653846 L87.8044444,4.45038462 C88.162963,3.91730769 88.3096296,3.52153846 88.3096296,3.07730769 C88.3096296,1.91423077 87.3807407,1.04192308 86.1585185,1.04192308 C84.9362963,1.04192308 84.0155556,1.93038462 84.0155556,3.07730769 C84.0155556,4.24038462 84.9118519,5.11269231 86.1096296,5.11269231 C86.517037,5.11269231 86.8755556,4.98346154 87.2340741,4.70884615 L87.4296296,4.56346154 L87.2666667,4.74115385 C87.2666667,4.74115385 87.0548148,4.98346154 86.9407407,5.11269231 L85.4740741,7.18846154 L85.4822222,7.19653846 Z M85.8896296,7.245 L85.4007407,7.245 L85.4251852,7.21269231 L86.9162963,5.11269231 C86.9651852,5.03192308 87.0385185,4.95115385 87.1037037,4.87038462 C86.7777778,5.07230769 86.4518519,5.16923077 86.1014815,5.16923077 C84.8792593,5.16923077 83.9585185,4.28076923 83.9585185,3.08538462 C83.9585185,1.89807692 84.9037037,1.00153846 86.1585185,1.00153846 C87.4051852,1.00153846 88.3585185,1.89 88.3585185,3.08538462 C88.3585185,3.54576923 88.1955556,3.94961538 87.837037,4.47461538 L85.8814815,7.25307692 L85.8896296,7.245 Z M94.102963,7.20461538 L94.4288889,7.20461538 L94.4288889,5.89615385 L95.097037,5.89615385 L95.097037,5.61346154 L94.4451852,5.61346154 L94.4451852,0.912692308 L90.4362963,5.89615385 L94.102963,5.89615385 L94.102963,7.14807692 L94.102963,7.20461538 Z M94.4859259,7.25307692 L94.0459259,7.25307692 L94.0459259,6.00923077 L90.3955556,6.00923077 L90.3955556,5.92846154 L94.4207407,0.920769231 L94.5022222,0.920769231 L94.5022222,5.62961538 L95.1540741,5.62961538 L95.1540741,6.00115385 L94.5022222,6.00115385 L94.5022222,7.25307692 L94.4859259,7.25307692 Z M98.5192593,7.21269231 L98.8696296,7.21269231 L102.104444,1.13076923 L97.7614815,1.13076923 L97.7614815,1.40538462 L101.615556,1.40538462 L101.599259,1.44576923 L98.5192593,7.22076923 L98.5192593,7.21269231 Z M98.9022222,7.26115385 L98.4377778,7.26115385 L98.4540741,7.22884615 L101.534074,1.47 L97.7044444,1.47 L97.7044444,1.09038462 L102.161481,1.09038462 L102.161481,1.17115385 L98.9022222,7.26923077 L98.9022222,7.26115385 Z M27.4592593,0.743076923 C26.5222222,0.743076923 25.6666667,1.06615385 25.0392593,1.64769231 C24.3874074,2.25346154 24.037037,3.10153846 24.037037,4.02230769 C24.037037,4.94307692 24.3874074,5.775 25.0392593,6.38076923 C25.6666667,6.96230769 26.5222222,7.28538462 27.4511111,7.28538462 C28.6081481,7.28538462 29.5696296,6.84115385 30.1644444,6.02538462 L29.9037037,5.84769231 C29.3577778,6.57461538 28.4940741,6.97846154 27.4592593,6.97846154 C25.7155556,6.97846154 24.3955556,5.71038462 24.3955556,4.01423077 C24.3955556,2.31807692 25.7155556,1.02576923 27.4592593,1.02576923 C28.4777778,1.02576923 29.3007407,1.39730769 29.8222222,2.10807692 L30.0911111,1.92230769 C29.5207407,1.14692308 28.6244444,0.735 27.4511111,0.735 M27.4511111,7.33384615 C26.5059259,7.33384615 25.6340741,7.01076923 24.9903704,6.41307692 C24.3385185,5.80730769 23.9718519,4.95923077 23.9718519,4.00615385 C23.9718519,2.11615385 25.4711111,0.694615385 27.442963,0.694615385 C28.6244444,0.694615385 29.5614815,1.11461538 30.1318519,1.92230769 L30.1481481,1.93846154 L29.7977778,2.18076923 L29.7733333,2.16461538 C29.26,1.46192308 28.4451852,1.08230769 27.4266667,1.08230769 C25.7155556,1.08230769 24.4118519,2.34230769 24.4118519,4.01423077 C24.4118519,5.68615385 25.7155556,6.92192308 27.4266667,6.92192308 C28.4533333,6.92192308 29.3007407,6.51807692 29.8466667,5.79115385 L29.862963,5.76692308 L30.2051852,6.00923077 L30.1888889,6.02538462 C29.5859259,6.85730769 28.6,7.31769231 27.4185185,7.31769231 M50.9096296,0.718846154 C49.9725926,0.718846154 49.117037,1.04192308 48.4896296,1.62346154 C47.8377778,2.22923077 47.4874074,3.07730769 47.4874074,3.99807692 C47.4874074,4.91884615 47.8377778,5.75884615 48.4896296,6.35653846 C49.117037,6.93807692 49.9725926,7.26115385 50.9096296,7.26115385 C51.8385185,7.26115385 52.7022222,6.93807692 53.3296296,6.35653846 C53.9814815,5.75884615 54.3237037,4.90269231 54.3237037,3.99 C54.3237037,3.07730769 53.9733333,2.21307692 53.3296296,1.60730769 C52.6940741,1.02576923 51.8385185,0.702692308 50.9096296,0.702692308 M50.9096296,7.30153846 C49.9644444,7.30153846 49.0925926,6.97846154 48.4488889,6.38076923 C47.797037,5.775 47.4385185,4.92692308 47.4385185,3.97384615 C47.4385185,2.08384615 48.9377778,0.662307692 50.9177778,0.662307692 C52.8977778,0.662307692 54.3888889,2.08384615 54.3888889,3.97384615 C54.3888889,4.91884615 54.0140741,5.775 53.3622222,6.38076923 C52.7266667,6.97038462 51.8548148,7.30153846 50.9177778,7.30153846 M62.8955556,7.25307692 L62.977037,7.25307692 L62.977037,0.775384615 L62.6511111,0.775384615 L62.6511111,5.96884615 C62.6511111,6.15461538 62.6837037,6.45346154 62.6837037,6.45346154 L62.7,6.55038462 L62.6348148,6.46961538 C62.6348148,6.46961538 62.4555556,6.20307692 62.3333333,6.04153846 L58.0311111,0.710769231 L57.9496296,0.710769231 L57.9496296,7.17230769 L58.2755556,7.17230769 L58.2755556,1.98692308 C58.2755556,1.80115385 58.242963,1.50230769 58.242963,1.50230769 L58.242963,1.40538462 L58.2918519,1.48615385 C58.2918519,1.48615385 58.4548148,1.75269231 58.5851852,1.91423077 L62.8874074,7.245 L62.8955556,7.25307692 Z M63.0259259,7.30153846 L62.862963,7.30153846 L58.5444444,1.94653846 C58.462963,1.84153846 58.3651852,1.68807692 58.3,1.59923077 C58.3,1.70423077 58.3244444,1.86576923 58.3244444,1.98692308 L58.3244444,7.23692308 L57.9007407,7.23692308 L57.9007407,0.654230769 L58.0637037,0.654230769 L62.3822222,6.00923077 C62.4637037,6.11423077 62.5696296,6.26769231 62.6266667,6.35653846 C62.6266667,6.25153846 62.6103704,6.09 62.6103704,5.96884615 L62.6103704,0.718846154 L63.0422222,0.718846154 L63.0422222,7.26923077 L63.0259259,7.30153846 Z" id="Shape" fill="#000000" fill-rule="nonzero"></path>
                                    </g>
                                </g>
                            </g>
                        </g>
                    </g>
                </g>
            </g>
        </g>
    </g>
</svg>