<svg width="43" height="45" viewBox="0 0 43 45" fill="none" xmlns="http://www.w3.org/2000/svg">
<path d="M0.25354 42.6095V44.0447C0.25354 44.4637 0.590818 44.8034 1.00707 44.8034C1.42298 44.8034 1.76025 44.4637 1.76025 44.0447V42.6095C1.76025 36.8454 5.87897 32.6605 11.5541 32.6605H15.7625L20.8154 37.7507C21.1096 38.0471 21.5865 38.0471 21.8807 37.7507L26.9333 32.6605H31.1417C36.8168 32.6605 40.9355 36.8454 40.9355 42.6095V44.0447C40.9355 44.4637 41.2728 44.8034 41.689 44.8034C42.1049 44.8034 42.4422 44.4637 42.4422 44.0447V42.6095C42.4422 35.965 37.6893 31.1427 31.1417 31.1427H26.6215C26.4219 31.1427 26.2301 31.223 26.0891 31.3654L21.3479 36.1412L16.607 31.3654C16.466 31.223 16.2742 31.143 16.0746 31.1427H11.5544C5.00681 31.1427 0.25354 35.965 0.25354 42.6095Z" fill="url(#paint0_linear_241_775)"/>
<path d="M6.20932 24.0066C5.51138 24.4042 4.77644 24.737 4.01489 25.0005C3.61942 25.1296 3.40579 25.5479 3.53784 25.9343C3.57483 26.0428 3.63705 26.1411 3.71967 26.2222C5.18539 27.7749 7.2329 28.6804 9.3938 28.7314C9.75816 28.7368 10.1218 28.702 10.4782 28.6273C10.8823 28.5253 11.125 28.1229 11.0206 27.7283C10.9176 27.3378 10.5125 27.1003 10.1111 27.1955C8.51575 27.4131 6.90139 26.954 5.67385 25.9343C6.12221 25.7367 6.55881 25.5151 6.98193 25.2701C8.52371 24.3742 9.17637 22.5984 8.77226 20.3991C8.07742 16.6226 7.8783 9.40144 11.5416 6.33345C11.573 6.3071 11.6024 6.27804 11.629 6.24696C11.6646 6.20507 15.2681 2.08299 20.8672 2.08299C26.466 2.08299 30.0694 6.20507 30.105 6.24696C30.132 6.27838 30.161 6.30743 30.1925 6.33412C31.5697 7.61119 32.4969 9.28286 32.8394 11.1079C32.9203 11.4404 33.2238 11.6752 33.5737 11.6752C33.6324 11.6752 33.6912 11.6684 33.7486 11.6552C34.1531 11.5613 34.4037 11.1653 34.309 10.7697C33.8983 8.65953 32.818 6.72974 31.2213 5.25369C28.5681 2.38266 24.8246 0.702544 20.8672 0.606934C16.9101 0.702207 13.167 2.38131 10.5131 5.25132C5.42184 9.58456 7.07942 19.5399 7.28614 20.6646C7.45484 21.5812 7.53849 23.2346 6.20932 24.0066Z" fill="url(#paint1_linear_241_775)"/>
<path d="M31.6391 28.627C31.9833 28.7016 32.3352 28.7368 32.6873 28.7314C34.7761 28.6802 36.7552 27.7717 38.172 26.2134C38.457 25.9242 38.4567 25.4554 38.1717 25.1662C38.0918 25.0855 37.9946 25.0242 37.8873 24.9879C37.1639 24.7282 36.4659 24.4018 35.8013 24.0126C35.4534 23.8055 35.006 23.9235 34.8018 24.2764C34.5977 24.6293 34.7139 25.0828 35.0618 25.2903C35.4578 25.5249 35.8654 25.7374 36.2838 25.9279C35.0965 26.9534 33.5327 27.4137 31.9886 27.1917C31.597 27.0937 31.2017 27.3365 31.1052 27.7338C31.0086 28.1307 31.2475 28.5321 31.6391 28.63V28.627Z" fill="url(#paint2_linear_241_775)"/>
<path d="M34.5328 13.858H31.6043C31.5887 13.858 31.5747 13.8485 31.5591 13.8485H28.5949V10.9786C28.5949 10.576 28.2576 10.2498 27.8417 10.2498C27.4259 10.2498 27.0886 10.576 27.0886 10.9786V13.8485H24.1342V10.9786C24.1342 10.576 23.797 10.2498 23.3811 10.2498C22.9652 10.2498 22.628 10.576 22.628 10.9786V13.8485H19.6736V10.9786C19.6736 10.576 19.3364 10.2498 18.9205 10.2498C18.5043 10.2498 18.1674 10.576 18.1674 10.9786V13.8485H15.213V10.9786C15.213 10.576 14.8757 10.2498 14.4599 10.2498C14.0437 10.2498 13.7067 10.576 13.7067 10.9786V13.8485H10.7425C10.3263 13.8491 9.98904 14.1763 9.98938 14.5793C9.98938 14.5935 9.99006 14.608 9.99074 14.6225L10.3624 20.5764C10.7098 26.8954 15.0136 31.1423 21.0683 31.1423H21.2248C22.8539 31.1551 24.4644 30.8092 25.9346 30.1311C26.3092 29.9564 26.4665 29.5212 26.2864 29.1584C26.1061 28.7959 25.6565 28.6437 25.2818 28.818C24.0144 29.3996 22.6273 29.6948 21.2248 29.682H21.0761C15.8719 29.682 12.1732 25.9906 11.8707 20.4914L11.5453 15.3048H30.759L30.4333 20.4914C30.4081 20.8934 30.7239 21.2387 31.1388 21.2631C31.5536 21.2878 31.9106 20.9817 31.9358 20.58L32.268 15.2976H34.5325C34.9433 15.2976 35.2761 15.6198 35.2761 16.0172V20.3359C35.2761 20.7336 34.9433 21.0558 34.5325 21.0558C34.1221 21.0558 33.7892 21.3781 33.7892 21.7758C33.7892 22.1731 34.1221 22.4954 34.5325 22.4954C35.7645 22.4954 36.763 21.5286 36.763 20.3362V16.0175C36.763 14.8248 35.7645 13.858 34.5328 13.858Z" fill="url(#paint3_linear_241_775)"/>
<path d="M34.3289 17.4433C34.3289 17.0209 33.9966 16.6783 33.5868 16.6783C33.177 16.6783 32.8447 17.0209 32.8447 17.4433C32.8397 22.0229 29.2392 25.7342 24.7963 25.7397H24.6987C24.2889 24.1203 22.683 23.1501 21.1123 23.5724C19.5412 23.9948 18.5999 25.6502 19.0097 27.2696C19.4195 28.889 21.0254 29.8592 22.5961 29.4365C23.626 29.1596 24.4301 28.3307 24.6987 27.2696H24.7963C30.0584 27.2634 34.3229 22.8677 34.3289 17.4433ZM21.8661 28.0048C21.0623 28.0048 20.4104 27.3332 20.4104 26.5046C20.4104 25.6761 21.062 25.0042 21.8661 25.0042C22.6699 25.0042 23.3218 25.6758 23.3218 26.5046C23.3208 27.3328 22.6696 28.0041 21.8661 28.0048Z" fill="url(#paint4_linear_241_775)"/>
<defs>
<linearGradient id="paint0_linear_241_775" x1="-12335.6" y1="-2359.9" x2="-6635.57" y2="9432.3" gradientUnits="userSpaceOnUse">
<stop/>
</linearGradient>
<linearGradient id="paint1_linear_241_775" x1="-9011.16" y1="-4922.12" x2="5277.34" y2="5570.06" gradientUnits="userSpaceOnUse">
<stop/>
</linearGradient>
<linearGradient id="paint2_linear_241_775" x1="-2103.97" y1="-819.986" x2="462.96" y2="1784.18" gradientUnits="userSpaceOnUse">
<stop/>
</linearGradient>
<linearGradient id="paint3_linear_241_775" x1="-7818.53" y1="-3646.63" x2="3177.61" y2="5792.77" gradientUnits="userSpaceOnUse">
<stop/>
</linearGradient>
<linearGradient id="paint4_linear_241_775" x1="-4488.42" y1="-2233.71" x2="2196.18" y2="3135.03" gradientUnits="userSpaceOnUse">
<stop/>
</linearGradient>
</defs>
</svg>
