<svg width="18" height="18" viewBox="0 0 18 18" fill="none" xmlns="http://www.w3.org/2000/svg">
<rect width="18" height="18" rx="1" fill="#4A4A4A"/>
<path d="M12.9592 5.35007C11.8812 3.17679 9.26462 2.49003 6.82185 3.37673C5.86561 3.72446 5.11801 4.40252 4.61381 5.24575C4.13569 6.04552 3.92705 6.97568 4.02268 7.87976C4.1183 8.723 4.37909 9.34021 4.82244 9.71401C5.01369 9.87918 5.19624 9.99219 5.33533 10.0704C5.43965 10.1313 5.57005 10.0791 5.60482 9.96611C5.67436 9.75748 5.77868 9.43583 5.83084 9.25327C5.85692 9.17504 5.83084 9.0968 5.76999 9.04464C5.59613 8.89686 5.2484 8.53175 5.16147 7.74937C5.005 6.35847 5.87431 4.99365 7.25651 4.4286C8.76042 3.82008 10.812 4.0548 11.4553 5.69779C11.9856 7.05392 11.3597 9.74009 10.4208 10.253C9.98615 10.4877 9.56888 10.6529 9.20377 10.5051C8.86474 10.3747 8.54309 10.1139 8.39531 9.67924C8.29099 9.36628 8.29968 9.08811 8.25622 8.62737L8.43878 7.90584C8.46486 7.8363 8.55178 7.54073 8.62133 7.22778C8.76042 6.5758 8.74303 6.1933 8.56048 5.93251C8.43877 5.74995 8.23884 5.64564 8.02151 5.62825C7.43907 5.58478 6.69146 6.14984 6.69146 7.49727C6.69146 8.02755 6.87402 8.51436 6.90009 8.76646L5.78738 13.113C5.7613 13.1999 5.75261 13.2869 5.7613 13.3825L5.85692 14.8516C5.86561 15.0081 6.06555 15.0516 6.14379 14.9299L6.92617 13.6868C6.96964 13.6085 7.0131 13.5303 7.03049 13.4434L7.72594 10.7137C8.04759 11.1918 8.45616 11.4439 8.7778 11.5743C9.46456 11.8438 10.3686 11.8091 11.1945 11.3657C12.8027 10.4964 14.0545 7.56681 12.9592 5.35007Z" fill="white"/>
</svg>
