<svg width="18" height="18" viewBox="0 0 18 18" fill="none" xmlns="http://www.w3.org/2000/svg">
<rect width="18" height="18" rx="1" fill="#4A4A4A"/>
<path d="M15.5889 5.6543C15.369 4.61774 14.385 4.24082 13.5788 4.17799C12.8041 4.11517 10.3439 4 8.92008 4C7.49628 4 5.03604 4.11517 4.26133 4.17799C3.44474 4.24082 2.47111 4.61774 2.25126 5.6543C2.04188 6.66991 2 7.73787 2 9.09901C2 10.4601 2.04188 11.5176 2.25126 12.5437C2.47111 13.5803 3.4552 13.9572 4.26133 14.02C5.03604 14.0828 7.49628 14.198 8.92008 14.198C10.3439 14.198 12.8041 14.0828 13.5788 14.02C14.3954 13.9572 15.369 13.5803 15.5889 12.5437C15.7983 11.5281 15.8402 10.4601 15.8402 9.09901C15.8402 7.73787 15.7983 6.66991 15.5889 5.6543Z" fill="white"/>
<path d="M7.00781 11.2844L10.9231 9.14464L7.00781 7.00488V11.2844Z" fill="#504C4C"/>
</svg>
