<svg width="40" height="40" viewBox="0 0 40 40" fill="none" xmlns="http://www.w3.org/2000/svg">
<path d="M13.6853 24.8417C13.627 24.8417 13.5832 24.8125 13.5395 24.7833L12.402 23.5583C12.3291 23.4708 12.3291 23.3542 12.4166 23.2667C12.5041 23.1938 12.6207 23.1938 12.7082 23.2813L13.8457 24.5063C13.9187 24.5938 13.9187 24.7104 13.8312 24.7979C13.7874 24.8271 13.7437 24.8417 13.6853 24.8417ZM15.9749 27.2771C15.9166 27.2771 15.8728 27.2625 15.8291 27.2188L14.6916 25.9938C14.6187 25.9063 14.6187 25.7896 14.7062 25.7021C14.7937 25.6292 14.9103 25.6292 14.9978 25.7167L16.1353 26.9417C16.2082 27.0292 16.2082 27.1458 16.1207 27.2333C16.0624 27.2625 16.0187 27.2771 15.9749 27.2771ZM18.2499 29.7271C18.1916 29.7271 18.1478 29.7125 18.1041 29.6688L16.9666 28.4438C16.8937 28.3563 16.8937 28.2396 16.9812 28.1521C17.0687 28.0792 17.1853 28.0792 17.2728 28.1667L18.4103 29.3917C18.4832 29.4792 18.4832 29.5958 18.3957 29.6833C18.352 29.6979 18.2937 29.7271 18.2499 29.7271Z" fill="#1D1D1B"/>
<path d="M13.6853 24.8417C13.627 24.8417 13.5832 24.8125 13.5395 24.7833L12.402 23.5583C12.3291 23.4708 12.3291 23.3542 12.4166 23.2667C12.5041 23.1938 12.6207 23.1938 12.7082 23.2813L13.8457 24.5063C13.9187 24.5938 13.9187 24.7104 13.8312 24.7979C13.7874 24.8271 13.7437 24.8417 13.6853 24.8417ZM15.9749 27.2771C15.9166 27.2771 15.8728 27.2625 15.8291 27.2188L14.6916 25.9938C14.6187 25.9063 14.6187 25.7896 14.7062 25.7021C14.7937 25.6292 14.9103 25.6292 14.9978 25.7167L16.1353 26.9417C16.2082 27.0292 16.2082 27.1458 16.1207 27.2333C16.0624 27.2625 16.0187 27.2771 15.9749 27.2771ZM18.2499 29.7271C18.1916 29.7271 18.1478 29.7125 18.1041 29.6688L16.9666 28.4438C16.8937 28.3563 16.8937 28.2396 16.9812 28.1521C17.0687 28.0792 17.1853 28.0792 17.2728 28.1667L18.4103 29.3917C18.4832 29.4792 18.4832 29.5958 18.3957 29.6833C18.352 29.6979 18.2937 29.7271 18.2499 29.7271Z" stroke="#1D1D1B" stroke-width="0.5" stroke-miterlimit="10"/>
<path d="M10.8416 26.0813C10.725 26.0813 10.6375 25.9938 10.6375 25.8771V24.1563C10.6375 24.0396 10.725 23.9521 10.8416 23.9521C10.9583 23.9521 11.0458 24.0396 11.0458 24.1563V25.8771C11.0458 25.9938 10.9583 26.0813 10.8416 26.0813ZM10.8416 29.5083C10.725 29.5083 10.6375 29.4208 10.6375 29.3042V27.5833C10.6375 27.4667 10.725 27.3792 10.8416 27.3792C10.9583 27.3792 11.0458 27.4667 11.0458 27.5833V29.3042C11.0458 29.4208 10.9583 29.5083 10.8416 29.5083ZM10.8416 32.9354C10.725 32.9354 10.6375 32.8479 10.6375 32.7313V31.0104C10.6375 30.8938 10.725 30.8063 10.8416 30.8063C10.9583 30.8063 11.0458 30.8938 11.0458 31.0104V32.7313C11.0458 32.8479 10.9583 32.9354 10.8416 32.9354ZM10.8416 36.3625C10.725 36.3625 10.6375 36.275 10.6375 36.1583V34.4375C10.6375 34.3208 10.725 34.2333 10.8416 34.2333C10.9583 34.2333 11.0458 34.3208 11.0458 34.4375V36.1583C11.0458 36.275 10.9583 36.3625 10.8416 36.3625Z" fill="#1D1D1B"/>
<path d="M10.8416 26.0813C10.725 26.0813 10.6375 25.9938 10.6375 25.8771V24.1563C10.6375 24.0396 10.725 23.9521 10.8416 23.9521C10.9583 23.9521 11.0458 24.0396 11.0458 24.1563V25.8771C11.0458 25.9938 10.9583 26.0813 10.8416 26.0813ZM10.8416 29.5083C10.725 29.5083 10.6375 29.4208 10.6375 29.3042V27.5833C10.6375 27.4667 10.725 27.3792 10.8416 27.3792C10.9583 27.3792 11.0458 27.4667 11.0458 27.5833V29.3042C11.0458 29.4208 10.9583 29.5083 10.8416 29.5083ZM10.8416 32.9354C10.725 32.9354 10.6375 32.8479 10.6375 32.7313V31.0104C10.6375 30.8938 10.725 30.8063 10.8416 30.8063C10.9583 30.8063 11.0458 30.8938 11.0458 31.0104V32.7313C11.0458 32.8479 10.9583 32.9354 10.8416 32.9354ZM10.8416 36.3625C10.725 36.3625 10.6375 36.275 10.6375 36.1583V34.4375C10.6375 34.3208 10.725 34.2333 10.8416 34.2333C10.9583 34.2333 11.0458 34.3208 11.0458 34.4375V36.1583C11.0458 36.275 10.9583 36.3625 10.8416 36.3625Z" stroke="#1D1D1B" stroke-width="0.5" stroke-miterlimit="10"/>
<path d="M5.09574 38.9437H3.44782C3.33115 38.9437 3.24365 38.8562 3.24365 38.7396C3.24365 38.6229 3.33115 38.5354 3.44782 38.5354H5.09574C5.2124 38.5354 5.2999 38.6229 5.2999 38.7396C5.2999 38.8562 5.2124 38.9437 5.09574 38.9437ZM8.37699 38.9437H6.72907C6.6124 38.9437 6.5249 38.8562 6.5249 38.7396C6.5249 38.6229 6.6124 38.5354 6.72907 38.5354H8.37699C8.49365 38.5354 8.58115 38.6229 8.58115 38.7396C8.58115 38.8562 8.49365 38.9437 8.37699 38.9437Z" fill="#1D1D1B"/>
<path d="M5.09574 38.9437H3.44782C3.33115 38.9437 3.24365 38.8562 3.24365 38.7396C3.24365 38.6229 3.33115 38.5354 3.44782 38.5354H5.09574C5.2124 38.5354 5.2999 38.6229 5.2999 38.7396C5.2999 38.8562 5.2124 38.9437 5.09574 38.9437ZM8.37699 38.9437H6.72907C6.6124 38.9437 6.5249 38.8562 6.5249 38.7396C6.5249 38.6229 6.6124 38.5354 6.72907 38.5354H8.37699C8.49365 38.5354 8.58115 38.6229 8.58115 38.7396C8.58115 38.8562 8.49365 38.9437 8.37699 38.9437Z" stroke="#1D1D1B" stroke-width="0.5" stroke-miterlimit="10"/>
<path d="M0.997867 5.95623C0.8812 5.95623 0.793701 5.86873 0.793701 5.75206V4.0604C0.793701 3.94373 0.8812 3.85623 0.997867 3.85623C1.11453 3.85623 1.20203 3.94373 1.20203 4.0604V5.75206C1.18745 5.86873 1.09995 5.95623 0.997867 5.95623ZM0.997867 9.33956C0.8812 9.33956 0.793701 9.25206 0.793701 9.1354V7.44373C0.793701 7.32706 0.8812 7.23956 0.997867 7.23956C1.11453 7.23956 1.20203 7.32706 1.20203 7.44373V9.1354C1.18745 9.25206 1.09995 9.33956 0.997867 9.33956ZM0.997867 12.7229C0.8812 12.7229 0.793701 12.6354 0.793701 12.5187V10.8271C0.793701 10.7104 0.8812 10.6229 0.997867 10.6229C1.11453 10.6229 1.20203 10.7104 1.20203 10.8271V12.5187C1.18745 12.6354 1.09995 12.7229 0.997867 12.7229ZM0.997867 16.1062C0.8812 16.1062 0.793701 16.0187 0.793701 15.9021V14.2104C0.793701 14.0937 0.8812 14.0062 0.997867 14.0062C1.11453 14.0062 1.20203 14.0937 1.20203 14.2104V15.9021C1.18745 16.0187 1.09995 16.1062 0.997867 16.1062ZM0.997867 19.4896C0.8812 19.4896 0.793701 19.4021 0.793701 19.2854V17.5937C0.793701 17.4771 0.8812 17.3896 0.997867 17.3896C1.11453 17.3896 1.20203 17.4771 1.20203 17.5937V19.2854C1.18745 19.4021 1.09995 19.4896 0.997867 19.4896ZM0.997867 22.8729C0.8812 22.8729 0.793701 22.7854 0.793701 22.6687V20.9771C0.793701 20.8604 0.8812 20.7729 0.997867 20.7729C1.11453 20.7729 1.20203 20.8604 1.20203 20.9771V22.6687C1.18745 22.7854 1.09995 22.8729 0.997867 22.8729ZM0.997867 26.2562C0.8812 26.2562 0.793701 26.1687 0.793701 26.0521V24.3604C0.793701 24.2437 0.8812 24.1562 0.997867 24.1562C1.11453 24.1562 1.20203 24.2437 1.20203 24.3604V26.0521C1.18745 26.1687 1.09995 26.2562 0.997867 26.2562ZM0.997867 29.6396C0.8812 29.6396 0.793701 29.5521 0.793701 29.4354V27.7437C0.793701 27.6271 0.8812 27.5396 0.997867 27.5396C1.11453 27.5396 1.20203 27.6271 1.20203 27.7437V29.4354C1.18745 29.5521 1.09995 29.6396 0.997867 29.6396ZM0.997867 33.0229C0.8812 33.0229 0.793701 32.9354 0.793701 32.8187V31.1271C0.793701 31.0104 0.8812 30.9229 0.997867 30.9229C1.11453 30.9229 1.20203 31.0104 1.20203 31.1271V32.8187C1.18745 32.9354 1.09995 33.0229 0.997867 33.0229ZM0.997867 36.4062C0.8812 36.4062 0.793701 36.3187 0.793701 36.2021V34.5104C0.793701 34.3937 0.8812 34.3062 0.997867 34.3062C1.11453 34.3062 1.20203 34.3937 1.20203 34.5104V36.2021C1.18745 36.3041 1.09995 36.4062 0.997867 36.4062Z" fill="#1D1D1B"/>
<path d="M0.997867 5.95623C0.8812 5.95623 0.793701 5.86873 0.793701 5.75206V4.0604C0.793701 3.94373 0.8812 3.85623 0.997867 3.85623C1.11453 3.85623 1.20203 3.94373 1.20203 4.0604V5.75206C1.18745 5.86873 1.09995 5.95623 0.997867 5.95623ZM0.997867 9.33956C0.8812 9.33956 0.793701 9.25206 0.793701 9.1354V7.44373C0.793701 7.32706 0.8812 7.23956 0.997867 7.23956C1.11453 7.23956 1.20203 7.32706 1.20203 7.44373V9.1354C1.18745 9.25206 1.09995 9.33956 0.997867 9.33956ZM0.997867 12.7229C0.8812 12.7229 0.793701 12.6354 0.793701 12.5187V10.8271C0.793701 10.7104 0.8812 10.6229 0.997867 10.6229C1.11453 10.6229 1.20203 10.7104 1.20203 10.8271V12.5187C1.18745 12.6354 1.09995 12.7229 0.997867 12.7229ZM0.997867 16.1062C0.8812 16.1062 0.793701 16.0187 0.793701 15.9021V14.2104C0.793701 14.0937 0.8812 14.0062 0.997867 14.0062C1.11453 14.0062 1.20203 14.0937 1.20203 14.2104V15.9021C1.18745 16.0187 1.09995 16.1062 0.997867 16.1062ZM0.997867 19.4896C0.8812 19.4896 0.793701 19.4021 0.793701 19.2854V17.5937C0.793701 17.4771 0.8812 17.3896 0.997867 17.3896C1.11453 17.3896 1.20203 17.4771 1.20203 17.5937V19.2854C1.18745 19.4021 1.09995 19.4896 0.997867 19.4896ZM0.997867 22.8729C0.8812 22.8729 0.793701 22.7854 0.793701 22.6687V20.9771C0.793701 20.8604 0.8812 20.7729 0.997867 20.7729C1.11453 20.7729 1.20203 20.8604 1.20203 20.9771V22.6687C1.18745 22.7854 1.09995 22.8729 0.997867 22.8729ZM0.997867 26.2562C0.8812 26.2562 0.793701 26.1687 0.793701 26.0521V24.3604C0.793701 24.2437 0.8812 24.1562 0.997867 24.1562C1.11453 24.1562 1.20203 24.2437 1.20203 24.3604V26.0521C1.18745 26.1687 1.09995 26.2562 0.997867 26.2562ZM0.997867 29.6396C0.8812 29.6396 0.793701 29.5521 0.793701 29.4354V27.7437C0.793701 27.6271 0.8812 27.5396 0.997867 27.5396C1.11453 27.5396 1.20203 27.6271 1.20203 27.7437V29.4354C1.18745 29.5521 1.09995 29.6396 0.997867 29.6396ZM0.997867 33.0229C0.8812 33.0229 0.793701 32.9354 0.793701 32.8187V31.1271C0.793701 31.0104 0.8812 30.9229 0.997867 30.9229C1.11453 30.9229 1.20203 31.0104 1.20203 31.1271V32.8187C1.18745 32.9354 1.09995 33.0229 0.997867 33.0229ZM0.997867 36.4062C0.8812 36.4062 0.793701 36.3187 0.793701 36.2021V34.5104C0.793701 34.3937 0.8812 34.3062 0.997867 34.3062C1.11453 34.3062 1.20203 34.3937 1.20203 34.5104V36.2021C1.18745 36.3041 1.09995 36.4062 0.997867 36.4062Z" stroke="#1D1D1B" stroke-width="0.5" stroke-miterlimit="10"/>
<path d="M3.9729 4.52706C3.92915 4.52706 3.87082 4.51248 3.84165 4.46873L2.64582 3.3604C2.55832 3.28748 2.55832 3.15623 2.63124 3.06873C2.70415 2.98123 2.8354 2.98123 2.9229 3.05415L4.11874 4.16248C4.20624 4.2354 4.20624 4.36665 4.13332 4.45415C4.08957 4.4979 4.03124 4.52706 3.9729 4.52706ZM6.36457 6.74373C6.32082 6.74373 6.26249 6.72915 6.23332 6.6854L5.03748 5.57707C4.94999 5.50415 4.94999 5.3729 5.0229 5.2854C5.09582 5.1979 5.22707 5.1979 5.31457 5.27082L6.5104 6.37915C6.5979 6.45207 6.5979 6.58332 6.52499 6.67082C6.46665 6.72915 6.4229 6.74373 6.36457 6.74373ZM8.75623 8.97498C8.71248 8.97498 8.65415 8.9604 8.62499 8.91665L7.42915 7.80831C7.34165 7.7354 7.34165 7.60415 7.41457 7.51665C7.48749 7.42915 7.61874 7.42915 7.70624 7.50207L8.90207 8.6104C8.98957 8.68331 8.98957 8.81456 8.91665 8.90206C8.85832 8.9604 8.79998 8.97498 8.75623 8.97498ZM11.1333 11.2062C11.0896 11.2062 11.0312 11.1916 11.0021 11.1479L9.80624 10.0396C9.71874 9.96665 9.71874 9.8354 9.79165 9.7479C9.86457 9.6604 9.99582 9.6604 10.0833 9.73332L11.2792 10.8416C11.3667 10.9146 11.3667 11.0458 11.2937 11.1333C11.25 11.1916 11.1917 11.2062 11.1333 11.2062ZM13.525 13.4375C13.4812 13.4375 13.4229 13.4229 13.3937 13.3792L12.1979 12.2708C12.1104 12.1979 12.1104 12.0666 12.1833 11.9791C12.2562 11.8916 12.3875 11.8916 12.475 11.9646L13.6708 13.0729C13.7583 13.1458 13.7583 13.2771 13.6854 13.3646C13.6417 13.4229 13.5833 13.4375 13.525 13.4375ZM15.9167 15.6687C15.8729 15.6687 15.8146 15.6541 15.7854 15.6104L14.5896 14.5021C14.5021 14.4291 14.5021 14.2979 14.575 14.2104C14.6479 14.1229 14.7792 14.1229 14.8667 14.1958L16.0625 15.3042C16.15 15.3771 16.15 15.5083 16.0771 15.5958C16.0187 15.6396 15.975 15.6687 15.9167 15.6687ZM18.3083 17.9C18.2646 17.9 18.2062 17.8854 18.1771 17.8416L16.9812 16.7333C16.8937 16.6604 16.8937 16.5292 16.9667 16.4417C17.0396 16.3542 17.1708 16.3541 17.2583 16.4271L18.4542 17.5354C18.5417 17.6083 18.5417 17.7396 18.4687 17.8271C18.4104 17.8708 18.3521 17.9 18.3083 17.9Z" fill="#1D1D1B"/>
<path d="M3.9729 4.52706C3.92915 4.52706 3.87082 4.51248 3.84165 4.46873L2.64582 3.3604C2.55832 3.28748 2.55832 3.15623 2.63124 3.06873C2.70415 2.98123 2.8354 2.98123 2.9229 3.05415L4.11874 4.16248C4.20624 4.2354 4.20624 4.36665 4.13332 4.45415C4.08957 4.4979 4.03124 4.52706 3.9729 4.52706ZM6.36457 6.74373C6.32082 6.74373 6.26249 6.72915 6.23332 6.6854L5.03748 5.57707C4.94998 5.50415 4.94999 5.3729 5.0229 5.2854C5.09582 5.1979 5.22707 5.1979 5.31457 5.27082L6.5104 6.37915C6.5979 6.45207 6.5979 6.58332 6.52499 6.67082C6.46665 6.72915 6.4229 6.74373 6.36457 6.74373ZM8.75623 8.97498C8.71248 8.97498 8.65415 8.9604 8.62499 8.91665L7.42915 7.80831C7.34165 7.7354 7.34165 7.60415 7.41457 7.51665C7.48749 7.42915 7.61874 7.42915 7.70624 7.50207L8.90207 8.6104C8.98957 8.68331 8.98957 8.81456 8.91665 8.90206C8.85832 8.9604 8.79998 8.97498 8.75623 8.97498ZM11.1333 11.2062C11.0896 11.2062 11.0312 11.1916 11.0021 11.1479L9.80624 10.0396C9.71874 9.96665 9.71874 9.8354 9.79165 9.7479C9.86457 9.6604 9.99582 9.6604 10.0833 9.73332L11.2792 10.8416C11.3667 10.9146 11.3667 11.0458 11.2937 11.1333C11.25 11.1916 11.1917 11.2062 11.1333 11.2062ZM13.525 13.4375C13.4812 13.4375 13.4229 13.4229 13.3937 13.3792L12.1979 12.2708C12.1104 12.1979 12.1104 12.0666 12.1833 11.9791C12.2562 11.8916 12.3875 11.8916 12.475 11.9646L13.6708 13.0729C13.7583 13.1458 13.7583 13.2771 13.6854 13.3646C13.6417 13.4229 13.5833 13.4375 13.525 13.4375ZM15.9167 15.6687C15.8729 15.6687 15.8146 15.6541 15.7854 15.6104L14.5896 14.5021C14.5021 14.4292 14.5021 14.2979 14.575 14.2104C14.6479 14.1229 14.7792 14.1229 14.8667 14.1958L16.0625 15.3042C16.15 15.3771 16.15 15.5083 16.0771 15.5958C16.0187 15.6396 15.975 15.6687 15.9167 15.6687ZM18.3083 17.9C18.2646 17.9 18.2062 17.8854 18.1771 17.8416L16.9812 16.7333C16.8937 16.6604 16.8937 16.5292 16.9667 16.4417C17.0396 16.3542 17.1708 16.3541 17.2583 16.4271L18.4542 17.5354C18.5417 17.6083 18.5417 17.7396 18.4687 17.8271C18.4104 17.8708 18.3521 17.9 18.3083 17.9Z" stroke="#1D1D1B" stroke-width="0.5" stroke-miterlimit="10"/>
<path d="M0.997867 2.5875C0.8812 2.5875 0.793701 2.5 0.793701 2.38333V1.07083L1.72703 1.94583C1.81453 2.01875 1.81453 2.15 1.74162 2.2375C1.6687 2.325 1.53745 2.325 1.44995 2.25208L1.18745 2.01875V2.39792C1.18745 2.48542 1.09995 2.5875 0.997867 2.5875ZM20.0875 19.5625C20.0437 19.5625 19.9854 19.5479 19.9562 19.5042L19.3583 18.95C19.2708 18.8771 19.2708 18.7458 19.3437 18.6583C19.4166 18.5708 19.5479 18.5708 19.6354 18.6437L20.2333 19.1979C20.3208 19.2708 20.3208 19.4021 20.2479 19.4896C20.2041 19.5479 20.1458 19.5625 20.0875 19.5625ZM10.8416 22.6542C10.7249 22.6542 10.6375 22.5667 10.6375 22.45V21.0792L11.5562 22.0708C11.6291 22.1583 11.6291 22.275 11.5416 22.3625C11.4541 22.4354 11.3375 22.4354 11.25 22.3479L11.0312 22.1146V22.4646C11.0458 22.5667 10.9583 22.6542 10.8416 22.6542ZM19.9562 31.55C19.8979 31.55 19.8541 31.5354 19.8104 31.4917L19.2416 30.8792C19.1687 30.7917 19.1687 30.675 19.2562 30.5875C19.3437 30.5146 19.4604 30.5146 19.5479 30.6021L20.1166 31.2146C20.1895 31.3021 20.1895 31.4187 20.102 31.5062C20.0583 31.5354 20.0145 31.55 19.9562 31.55ZM1.81453 38.9437H0.793701V37.8937C0.793701 37.7771 0.8812 37.6896 0.997867 37.6896C1.11453 37.6896 1.20203 37.7771 1.20203 37.8937V38.5354H1.81453C1.9312 38.5354 2.0187 38.6229 2.0187 38.7396C2.0187 38.8562 1.9312 38.9437 1.81453 38.9437ZM11.0458 38.9437H10.025C9.90828 38.9437 9.82078 38.8562 9.82078 38.7396C9.82078 38.6229 9.90828 38.5354 10.025 38.5354H10.6375V37.8792C10.6375 37.7625 10.7249 37.675 10.8416 37.675C10.9583 37.675 11.0458 37.7625 11.0458 37.8792V38.9437Z" fill="#1D1D1B"/>
<path d="M0.997867 2.5875C0.8812 2.5875 0.793701 2.5 0.793701 2.38333V1.07083L1.72703 1.94583C1.81453 2.01875 1.81453 2.15 1.74162 2.2375C1.6687 2.325 1.53745 2.325 1.44995 2.25208L1.18745 2.01875V2.39792C1.18745 2.48542 1.09995 2.5875 0.997867 2.5875ZM20.0875 19.5625C20.0437 19.5625 19.9854 19.5479 19.9562 19.5042L19.3583 18.95C19.2708 18.8771 19.2708 18.7458 19.3437 18.6583C19.4166 18.5708 19.5479 18.5708 19.6354 18.6437L20.2333 19.1979C20.3208 19.2708 20.3208 19.4021 20.2479 19.4896C20.2041 19.5479 20.1458 19.5625 20.0875 19.5625ZM10.8416 22.6542C10.7249 22.6542 10.6375 22.5667 10.6375 22.45V21.0792L11.5562 22.0708C11.6291 22.1583 11.6291 22.275 11.5416 22.3625C11.4541 22.4354 11.3375 22.4354 11.25 22.3479L11.0312 22.1146V22.4646C11.0458 22.5667 10.9583 22.6542 10.8416 22.6542ZM19.9562 31.55C19.8979 31.55 19.8541 31.5354 19.8104 31.4917L19.2416 30.8792C19.1687 30.7917 19.1687 30.675 19.2562 30.5875C19.3437 30.5146 19.4604 30.5146 19.5479 30.6021L20.1166 31.2146C20.1895 31.3021 20.1895 31.4187 20.102 31.5062C20.0583 31.5354 20.0145 31.55 19.9562 31.55ZM1.81453 38.9437H0.793701V37.8937C0.793701 37.7771 0.8812 37.6896 0.997867 37.6896C1.11453 37.6896 1.20203 37.7771 1.20203 37.8937V38.5354H1.81453C1.9312 38.5354 2.0187 38.6229 2.0187 38.7396C2.0187 38.8562 1.9312 38.9437 1.81453 38.9437ZM11.0458 38.9437H10.025C9.90828 38.9437 9.82078 38.8562 9.82078 38.7396C9.82078 38.6229 9.90828 38.5354 10.025 38.5354H10.6375V37.8792C10.6375 37.7625 10.7249 37.675 10.8416 37.675C10.9583 37.675 11.0458 37.7625 11.0458 37.8792V38.9437Z" stroke="#1D1D1B" stroke-width="0.5" stroke-miterlimit="10"/>
<path d="M26.3146 24.8417C26.2708 24.8417 26.2125 24.8271 26.1833 24.7833C26.0958 24.7104 26.0958 24.5792 26.1687 24.4917L27.3062 23.2667C27.3791 23.1792 27.5104 23.1792 27.5979 23.2521C27.6854 23.325 27.6854 23.4563 27.6125 23.5438L26.475 24.7688C26.4166 24.8271 26.3583 24.8417 26.3146 24.8417ZM24.025 27.2771C23.9812 27.2771 23.9229 27.2625 23.8937 27.2188C23.8062 27.1458 23.8062 27.0146 23.8791 26.9271L25.0166 25.7021C25.0896 25.6146 25.2208 25.6146 25.3083 25.6875C25.3958 25.7604 25.3958 25.8917 25.3229 25.9792L24.1854 27.2042C24.1416 27.2625 24.0833 27.2771 24.025 27.2771ZM21.75 29.7271C21.7062 29.7271 21.6479 29.7125 21.6187 29.6688C21.5312 29.5958 21.5312 29.4646 21.6041 29.3771L22.7416 28.1521C22.8146 28.0646 22.9458 28.0646 23.0333 28.1375C23.1208 28.2104 23.1208 28.3417 23.0479 28.4292L21.9104 29.6542C21.8666 29.6979 21.8083 29.7271 21.75 29.7271Z" fill="#1D1D1B"/>
<path d="M26.3146 24.8417C26.2708 24.8417 26.2125 24.8271 26.1833 24.7833C26.0958 24.7104 26.0958 24.5792 26.1687 24.4917L27.3062 23.2667C27.3791 23.1792 27.5104 23.1792 27.5979 23.2521C27.6854 23.325 27.6854 23.4563 27.6125 23.5438L26.475 24.7688C26.4166 24.8271 26.3583 24.8417 26.3146 24.8417ZM24.025 27.2771C23.9812 27.2771 23.9229 27.2625 23.8937 27.2188C23.8062 27.1458 23.8062 27.0146 23.8791 26.9271L25.0166 25.7021C25.0896 25.6146 25.2208 25.6146 25.3083 25.6875C25.3958 25.7604 25.3958 25.8917 25.3229 25.9792L24.1854 27.2042C24.1416 27.2625 24.0833 27.2771 24.025 27.2771ZM21.75 29.7271C21.7062 29.7271 21.6479 29.7125 21.6187 29.6688C21.5312 29.5958 21.5312 29.4646 21.6041 29.3771L22.7416 28.1521C22.8146 28.0646 22.9458 28.0646 23.0333 28.1375C23.1208 28.2104 23.1208 28.3417 23.0479 28.4292L21.9104 29.6542C21.8666 29.6979 21.8083 29.7271 21.75 29.7271Z" stroke="#1D1D1B" stroke-width="0.5" stroke-miterlimit="10"/>
<path d="M29.1583 26.0813C29.0416 26.0813 28.9541 25.9938 28.9541 25.8771V24.1563C28.9541 24.0396 29.0416 23.9521 29.1583 23.9521C29.2749 23.9521 29.3624 24.0396 29.3624 24.1563V25.8771C29.3624 25.9938 29.2749 26.0813 29.1583 26.0813ZM29.1583 29.5083C29.0416 29.5083 28.9541 29.4208 28.9541 29.3042V27.5833C28.9541 27.4667 29.0416 27.3792 29.1583 27.3792C29.2749 27.3792 29.3624 27.4667 29.3624 27.5833V29.3042C29.3624 29.4208 29.2749 29.5083 29.1583 29.5083ZM29.1583 32.9354C29.0416 32.9354 28.9541 32.8479 28.9541 32.7313V31.0104C28.9541 30.8938 29.0416 30.8063 29.1583 30.8063C29.2749 30.8063 29.3624 30.8938 29.3624 31.0104V32.7313C29.3624 32.8479 29.2749 32.9354 29.1583 32.9354ZM29.1583 36.3625C29.0416 36.3625 28.9541 36.275 28.9541 36.1583V34.4375C28.9541 34.3208 29.0416 34.2333 29.1583 34.2333C29.2749 34.2333 29.3624 34.3208 29.3624 34.4375V36.1583C29.3624 36.275 29.2749 36.3625 29.1583 36.3625Z" fill="#1D1D1B"/>
<path d="M29.1583 26.0813C29.0416 26.0813 28.9541 25.9938 28.9541 25.8771V24.1563C28.9541 24.0396 29.0416 23.9521 29.1583 23.9521C29.2749 23.9521 29.3624 24.0396 29.3624 24.1563V25.8771C29.3624 25.9938 29.2749 26.0813 29.1583 26.0813ZM29.1583 29.5083C29.0416 29.5083 28.9541 29.4208 28.9541 29.3042V27.5833C28.9541 27.4667 29.0416 27.3792 29.1583 27.3792C29.2749 27.3792 29.3624 27.4667 29.3624 27.5833V29.3042C29.3624 29.4208 29.2749 29.5083 29.1583 29.5083ZM29.1583 32.9354C29.0416 32.9354 28.9541 32.8479 28.9541 32.7313V31.0104C28.9541 30.8938 29.0416 30.8063 29.1583 30.8063C29.2749 30.8063 29.3624 30.8938 29.3624 31.0104V32.7313C29.3624 32.8479 29.2749 32.9354 29.1583 32.9354ZM29.1583 36.3625C29.0416 36.3625 28.9541 36.275 28.9541 36.1583V34.4375C28.9541 34.3208 29.0416 34.2333 29.1583 34.2333C29.2749 34.2333 29.3624 34.3208 29.3624 34.4375V36.1583C29.3624 36.275 29.2749 36.3625 29.1583 36.3625Z" stroke="#1D1D1B" stroke-width="0.5" stroke-miterlimit="10"/>
<path d="M33.2563 38.9437H31.6083C31.4917 38.9437 31.4042 38.8562 31.4042 38.7396C31.4042 38.6229 31.4917 38.5354 31.6083 38.5354H33.2563C33.3729 38.5354 33.4604 38.6229 33.4604 38.7396C33.4604 38.8562 33.3729 38.9437 33.2563 38.9437ZM36.5521 38.9437H34.9042C34.7875 38.9437 34.7 38.8562 34.7 38.7396C34.7 38.6229 34.7875 38.5354 34.9042 38.5354H36.5521C36.6688 38.5354 36.7563 38.6229 36.7563 38.7396C36.7563 38.8562 36.6542 38.9437 36.5521 38.9437Z" fill="#1D1D1B"/>
<path d="M33.2563 38.9437H31.6083C31.4917 38.9437 31.4042 38.8562 31.4042 38.7396C31.4042 38.6229 31.4917 38.5354 31.6083 38.5354H33.2563C33.3729 38.5354 33.4604 38.6229 33.4604 38.7396C33.4604 38.8562 33.3729 38.9437 33.2563 38.9437ZM36.5521 38.9437H34.9042C34.7875 38.9437 34.7 38.8562 34.7 38.7396C34.7 38.6229 34.7875 38.5354 34.9042 38.5354H36.5521C36.6688 38.5354 36.7563 38.6229 36.7563 38.7396C36.7563 38.8562 36.6542 38.9437 36.5521 38.9437Z" stroke="#1D1D1B" stroke-width="0.5" stroke-miterlimit="10"/>
<path d="M39.002 5.95623C38.8854 5.95623 38.7979 5.86873 38.7979 5.75206V4.0604C38.7979 3.94373 38.8854 3.85623 39.002 3.85623C39.1187 3.85623 39.2062 3.94373 39.2062 4.0604V5.75206C39.2062 5.86873 39.1187 5.95623 39.002 5.95623ZM39.002 9.33956C38.8854 9.33956 38.7979 9.25206 38.7979 9.1354V7.44373C38.7979 7.32706 38.8854 7.23956 39.002 7.23956C39.1187 7.23956 39.2062 7.32706 39.2062 7.44373V9.1354C39.2062 9.25206 39.1187 9.33956 39.002 9.33956ZM39.002 12.7229C38.8854 12.7229 38.7979 12.6354 38.7979 12.5187V10.8271C38.7979 10.7104 38.8854 10.6229 39.002 10.6229C39.1187 10.6229 39.2062 10.7104 39.2062 10.8271V12.5187C39.2062 12.6354 39.1187 12.7229 39.002 12.7229ZM39.002 16.1062C38.8854 16.1062 38.7979 16.0187 38.7979 15.9021V14.2104C38.7979 14.0937 38.8854 14.0062 39.002 14.0062C39.1187 14.0062 39.2062 14.0937 39.2062 14.2104V15.9021C39.2062 16.0187 39.1187 16.1062 39.002 16.1062ZM39.002 19.4896C38.8854 19.4896 38.7979 19.4021 38.7979 19.2854V17.5937C38.7979 17.4771 38.8854 17.3896 39.002 17.3896C39.1187 17.3896 39.2062 17.4771 39.2062 17.5937V19.2854C39.2062 19.4021 39.1187 19.4896 39.002 19.4896ZM39.002 22.8729C38.8854 22.8729 38.7979 22.7854 38.7979 22.6687V20.9771C38.7979 20.8604 38.8854 20.7729 39.002 20.7729C39.1187 20.7729 39.2062 20.8604 39.2062 20.9771V22.6687C39.2062 22.7854 39.1187 22.8729 39.002 22.8729ZM39.002 26.2562C38.8854 26.2562 38.7979 26.1687 38.7979 26.0521V24.3604C38.7979 24.2437 38.8854 24.1562 39.002 24.1562C39.1187 24.1562 39.2062 24.2437 39.2062 24.3604V26.0521C39.2062 26.1687 39.1187 26.2562 39.002 26.2562ZM39.002 29.6396C38.8854 29.6396 38.7979 29.5521 38.7979 29.4354V27.7437C38.7979 27.6271 38.8854 27.5396 39.002 27.5396C39.1187 27.5396 39.2062 27.6271 39.2062 27.7437V29.4354C39.2062 29.5521 39.1187 29.6396 39.002 29.6396ZM39.002 33.0229C38.8854 33.0229 38.7979 32.9354 38.7979 32.8187V31.1271C38.7979 31.0104 38.8854 30.9229 39.002 30.9229C39.1187 30.9229 39.2062 31.0104 39.2062 31.1271V32.8187C39.2062 32.9354 39.1187 33.0229 39.002 33.0229ZM39.002 36.4062C38.8854 36.4062 38.7979 36.3187 38.7979 36.2021V34.5104C38.7979 34.3937 38.8854 34.3062 39.002 34.3062C39.1187 34.3062 39.2062 34.3937 39.2062 34.5104V36.2021C39.2062 36.3041 39.1187 36.4062 39.002 36.4062Z" fill="#1D1D1B"/>
<path d="M39.002 5.95623C38.8854 5.95623 38.7979 5.86873 38.7979 5.75206V4.0604C38.7979 3.94373 38.8854 3.85623 39.002 3.85623C39.1187 3.85623 39.2062 3.94373 39.2062 4.0604V5.75206C39.2062 5.86873 39.1187 5.95623 39.002 5.95623ZM39.002 9.33956C38.8854 9.33956 38.7979 9.25206 38.7979 9.1354V7.44373C38.7979 7.32706 38.8854 7.23956 39.002 7.23956C39.1187 7.23956 39.2062 7.32706 39.2062 7.44373V9.1354C39.2062 9.25206 39.1187 9.33956 39.002 9.33956ZM39.002 12.7229C38.8854 12.7229 38.7979 12.6354 38.7979 12.5187V10.8271C38.7979 10.7104 38.8854 10.6229 39.002 10.6229C39.1187 10.6229 39.2062 10.7104 39.2062 10.8271V12.5187C39.2062 12.6354 39.1187 12.7229 39.002 12.7229ZM39.002 16.1062C38.8854 16.1062 38.7979 16.0187 38.7979 15.9021V14.2104C38.7979 14.0937 38.8854 14.0062 39.002 14.0062C39.1187 14.0062 39.2062 14.0937 39.2062 14.2104V15.9021C39.2062 16.0187 39.1187 16.1062 39.002 16.1062ZM39.002 19.4896C38.8854 19.4896 38.7979 19.4021 38.7979 19.2854V17.5937C38.7979 17.4771 38.8854 17.3896 39.002 17.3896C39.1187 17.3896 39.2062 17.4771 39.2062 17.5937V19.2854C39.2062 19.4021 39.1187 19.4896 39.002 19.4896ZM39.002 22.8729C38.8854 22.8729 38.7979 22.7854 38.7979 22.6687V20.9771C38.7979 20.8604 38.8854 20.7729 39.002 20.7729C39.1187 20.7729 39.2062 20.8604 39.2062 20.9771V22.6687C39.2062 22.7854 39.1187 22.8729 39.002 22.8729ZM39.002 26.2562C38.8854 26.2562 38.7979 26.1687 38.7979 26.0521V24.3604C38.7979 24.2437 38.8854 24.1562 39.002 24.1562C39.1187 24.1562 39.2062 24.2437 39.2062 24.3604V26.0521C39.2062 26.1687 39.1187 26.2562 39.002 26.2562ZM39.002 29.6396C38.8854 29.6396 38.7979 29.5521 38.7979 29.4354V27.7437C38.7979 27.6271 38.8854 27.5396 39.002 27.5396C39.1187 27.5396 39.2062 27.6271 39.2062 27.7437V29.4354C39.2062 29.5521 39.1187 29.6396 39.002 29.6396ZM39.002 33.0229C38.8854 33.0229 38.7979 32.9354 38.7979 32.8187V31.1271C38.7979 31.0104 38.8854 30.9229 39.002 30.9229C39.1187 30.9229 39.2062 31.0104 39.2062 31.1271V32.8187C39.2062 32.9354 39.1187 33.0229 39.002 33.0229ZM39.002 36.4062C38.8854 36.4062 38.7979 36.3187 38.7979 36.2021V34.5104C38.7979 34.3937 38.8854 34.3062 39.002 34.3062C39.1187 34.3062 39.2062 34.3937 39.2062 34.5104V36.2021C39.2062 36.3041 39.1187 36.4062 39.002 36.4062Z" stroke="#1D1D1B" stroke-width="0.5" stroke-miterlimit="10"/>
<path d="M36.0562 4.52707C35.9979 4.52707 35.9541 4.51249 35.9104 4.46874C35.8375 4.38124 35.8375 4.26457 35.925 4.17707L37.1062 3.06874C37.1937 2.99582 37.3104 2.99582 37.3979 3.08332C37.4708 3.17082 37.4708 3.28749 37.3833 3.37499L36.202 4.48332C36.1583 4.4979 36.1145 4.52707 36.0562 4.52707ZM33.7083 6.75832C33.65 6.75832 33.6062 6.74374 33.5625 6.69999C33.4895 6.61249 33.4895 6.49582 33.577 6.40832L34.7583 5.29999C34.8458 5.22707 34.9625 5.22707 35.05 5.31457C35.1229 5.40207 35.1229 5.51874 35.0354 5.60624L33.8541 6.71457C33.7958 6.72915 33.752 6.75832 33.7083 6.75832ZM31.3458 8.97498C31.2875 8.97498 31.2437 8.9604 31.2 8.91665C31.127 8.82915 31.127 8.71249 31.2145 8.62499L32.3958 7.51665C32.4833 7.44374 32.6 7.44374 32.6875 7.53124C32.7604 7.61874 32.7604 7.7354 32.6729 7.8229L31.4916 8.93124C31.4479 8.9604 31.3895 8.97498 31.3458 8.97498ZM28.9833 11.2062C28.925 11.2062 28.8812 11.1917 28.8375 11.1479C28.7645 11.0604 28.7645 10.9437 28.852 10.8562L30.0333 9.7479C30.1208 9.67499 30.2375 9.67499 30.325 9.76249C30.3979 9.84999 30.3979 9.96665 30.3104 10.0542L29.1291 11.1625C29.0854 11.1917 29.027 11.2062 28.9833 11.2062ZM26.6208 13.4375C26.5625 13.4375 26.5187 13.4229 26.475 13.3792C26.402 13.2917 26.402 13.175 26.4895 13.0875L27.6708 11.9792C27.7583 11.9062 27.875 11.9062 27.9625 11.9937C28.0354 12.0812 28.0354 12.1979 27.9479 12.2854L26.7666 13.3937C26.7229 13.4229 26.6791 13.4375 26.6208 13.4375ZM24.2729 15.6687C24.2145 15.6687 24.1708 15.6542 24.127 15.6104C24.0541 15.5229 24.0541 15.4062 24.1416 15.3187L25.3229 14.2104C25.4104 14.1375 25.527 14.1375 25.6145 14.225C25.6875 14.3125 25.6875 14.4292 25.6 14.5167L24.4187 15.625C24.3604 15.6542 24.3166 15.6687 24.2729 15.6687ZM21.9104 17.9C21.852 17.9 21.8083 17.8854 21.7645 17.8417C21.6916 17.7542 21.6916 17.6375 21.7791 17.55L22.9604 16.4417C23.0479 16.3687 23.1645 16.3687 23.252 16.4562C23.325 16.5437 23.325 16.6604 23.2375 16.7479L22.0562 17.8562C22.0125 17.8854 21.9541 17.9 21.9104 17.9Z" fill="#1D1D1B"/>
<path d="M36.0562 4.52707C35.9979 4.52707 35.9541 4.51249 35.9104 4.46874C35.8375 4.38124 35.8375 4.26457 35.925 4.17707L37.1062 3.06874C37.1937 2.99582 37.3104 2.99582 37.3979 3.08332C37.4708 3.17082 37.4708 3.28749 37.3833 3.37499L36.202 4.48332C36.1583 4.4979 36.1145 4.52707 36.0562 4.52707ZM33.7083 6.75832C33.65 6.75832 33.6062 6.74374 33.5625 6.69999C33.4895 6.61249 33.4895 6.49582 33.577 6.40832L34.7583 5.29999C34.8458 5.22707 34.9625 5.22707 35.05 5.31457C35.1229 5.40207 35.1229 5.51874 35.0354 5.60624L33.8541 6.71457C33.7958 6.72915 33.752 6.75832 33.7083 6.75832ZM31.3458 8.97498C31.2875 8.97498 31.2437 8.9604 31.2 8.91665C31.127 8.82915 31.127 8.71249 31.2145 8.62499L32.3958 7.51665C32.4833 7.44373 32.6 7.44374 32.6875 7.53124C32.7604 7.61874 32.7604 7.7354 32.6729 7.8229L31.4916 8.93124C31.4479 8.9604 31.3895 8.97498 31.3458 8.97498ZM28.9833 11.2062C28.925 11.2062 28.8812 11.1917 28.8375 11.1479C28.7645 11.0604 28.7645 10.9437 28.852 10.8562L30.0333 9.7479C30.1208 9.67499 30.2375 9.67499 30.325 9.76249C30.3979 9.84999 30.3979 9.96665 30.3104 10.0542L29.1291 11.1625C29.0854 11.1917 29.027 11.2062 28.9833 11.2062ZM26.6208 13.4375C26.5625 13.4375 26.5187 13.4229 26.475 13.3792C26.402 13.2917 26.402 13.175 26.4895 13.0875L27.6708 11.9792C27.7583 11.9062 27.875 11.9062 27.9625 11.9937C28.0354 12.0812 28.0354 12.1979 27.9479 12.2854L26.7666 13.3937C26.7229 13.4229 26.6791 13.4375 26.6208 13.4375ZM24.2729 15.6687C24.2145 15.6687 24.1708 15.6542 24.127 15.6104C24.0541 15.5229 24.0541 15.4062 24.1416 15.3187L25.3229 14.2104C25.4104 14.1375 25.527 14.1375 25.6145 14.225C25.6875 14.3125 25.6875 14.4292 25.6 14.5167L24.4187 15.625C24.3604 15.6542 24.3166 15.6687 24.2729 15.6687ZM21.9104 17.9C21.852 17.9 21.8083 17.8854 21.7645 17.8417C21.6916 17.7542 21.6916 17.6375 21.7791 17.55L22.9604 16.4417C23.0479 16.3687 23.1645 16.3687 23.252 16.4562C23.325 16.5437 23.325 16.6604 23.2375 16.7479L22.0562 17.8562C22.0125 17.8854 21.9541 17.9 21.9104 17.9Z" stroke="#1D1D1B" stroke-width="0.5" stroke-miterlimit="10"/>
<path d="M39.002 2.58749C38.8853 2.58749 38.7978 2.49999 38.7978 2.38333V2.00416L38.5499 2.23749C38.4624 2.31041 38.3458 2.31041 38.2583 2.22291C38.1853 2.13541 38.1853 2.01874 38.2728 1.93124L39.2062 1.05624V2.36874C39.2062 2.48541 39.1187 2.58749 39.002 2.58749ZM20.1458 19.5625C20.0874 19.5625 20.0437 19.5479 19.9999 19.5042C19.927 19.4167 19.927 19.3 20.0145 19.2125L20.5978 18.6583C20.6853 18.5854 20.802 18.5854 20.8895 18.6729C20.9624 18.7604 20.9624 18.8771 20.8749 18.9646L20.2916 19.5187C20.2333 19.5479 20.1895 19.5625 20.1458 19.5625ZM29.1583 22.6542C29.0416 22.6542 28.9541 22.5667 28.9541 22.45V22.1L28.7353 22.3333C28.6624 22.4208 28.5312 22.4208 28.4437 22.3479C28.3562 22.275 28.3562 22.1437 28.4291 22.0562L29.3478 21.0646V22.4354C29.3624 22.5667 29.2749 22.6542 29.1583 22.6542ZM20.0437 31.55C19.9999 31.55 19.9416 31.5354 19.9124 31.4917C19.8249 31.4187 19.8249 31.2875 19.8978 31.2L20.4666 30.5875C20.5395 30.5 20.6708 30.5 20.7583 30.5729C20.8458 30.6458 20.8458 30.7771 20.7728 30.8646L20.2041 31.4771C20.1458 31.5354 20.102 31.55 20.0437 31.55ZM29.9749 38.9437H28.9541V37.8792C28.9541 37.7625 29.0416 37.675 29.1583 37.675C29.2749 37.675 29.3624 37.7625 29.3624 37.8792V38.5354H29.9749C30.0916 38.5354 30.1791 38.6229 30.1791 38.7396C30.1791 38.8562 30.0916 38.9437 29.9749 38.9437ZM39.2062 38.9437H38.1853C38.0687 38.9437 37.9812 38.8562 37.9812 38.7396C37.9812 38.6229 38.0687 38.5354 38.1853 38.5354H38.7978V37.8937C38.7978 37.7771 38.8853 37.6896 39.002 37.6896C39.1187 37.6896 39.2062 37.7771 39.2062 37.8937V38.9437Z" fill="#1D1D1B"/>
<path d="M39.002 2.58749C38.8853 2.58749 38.7978 2.49999 38.7978 2.38333V2.00416L38.5499 2.23749C38.4624 2.31041 38.3458 2.31041 38.2583 2.22291C38.1853 2.13541 38.1853 2.01874 38.2728 1.93124L39.2062 1.05624V2.36874C39.2062 2.48541 39.1187 2.58749 39.002 2.58749ZM20.1458 19.5625C20.0874 19.5625 20.0437 19.5479 19.9999 19.5042C19.927 19.4167 19.927 19.3 20.0145 19.2125L20.5978 18.6583C20.6853 18.5854 20.802 18.5854 20.8895 18.6729C20.9624 18.7604 20.9624 18.8771 20.8749 18.9646L20.2916 19.5187C20.2333 19.5479 20.1895 19.5625 20.1458 19.5625ZM29.1583 22.6542C29.0416 22.6542 28.9541 22.5667 28.9541 22.45V22.1L28.7353 22.3333C28.6624 22.4208 28.5312 22.4208 28.4437 22.3479C28.3562 22.275 28.3562 22.1437 28.4291 22.0562L29.3478 21.0646V22.4354C29.3624 22.5667 29.2749 22.6542 29.1583 22.6542ZM20.0437 31.55C19.9999 31.55 19.9416 31.5354 19.9124 31.4917C19.8249 31.4187 19.8249 31.2875 19.8978 31.2L20.4666 30.5875C20.5395 30.5 20.6708 30.5 20.7583 30.5729C20.8458 30.6458 20.8458 30.7771 20.7728 30.8646L20.2041 31.4771C20.1458 31.5354 20.102 31.55 20.0437 31.55ZM29.9749 38.9437H28.9541V37.8792C28.9541 37.7625 29.0416 37.675 29.1583 37.675C29.2749 37.675 29.3624 37.7625 29.3624 37.8792V38.5354H29.9749C30.0916 38.5354 30.1791 38.6229 30.1791 38.7396C30.1791 38.8562 30.0916 38.9437 29.9749 38.9437ZM39.2062 38.9437H38.1853C38.0687 38.9437 37.9812 38.8562 37.9812 38.7396C37.9812 38.6229 38.0687 38.5354 38.1853 38.5354H38.7978V37.8937C38.7978 37.7771 38.8853 37.6896 39.002 37.6896C39.1187 37.6896 39.2062 37.7771 39.2062 37.8937V38.9437Z" stroke="#1D1D1B" stroke-width="0.5" stroke-miterlimit="10"/>
</svg>
