<svg width="18" height="18" viewBox="0 0 18 18" fill="none" xmlns="http://www.w3.org/2000/svg">
<rect width="18" height="18" rx="1" fill="#4A4A4A"/>
<path d="M12.3913 2H5.60869C3.61739 2 2 3.61739 2 5.6087V12.3913C2 14.3826 3.61739 16 5.60869 16H12.3913C14.3826 16 16 14.3826 16 12.3913V5.6087C16 3.62609 14.3826 2 12.3913 2ZM14.7739 12.3913C14.7739 13.7044 13.7043 14.7652 12.4 14.7652H5.61739C4.30435 14.7652 3.24348 13.6957 3.24348 12.3913V5.6087C3.24348 4.29565 4.31304 3.23478 5.61739 3.23478H12.4C13.713 3.23478 14.7739 4.30435 14.7739 5.6087V12.3913Z" fill="white"/>
<path d="M9 5.42603C7.02608 5.42603 5.42609 7.03472 5.42609 8.99994C5.42609 10.9739 7.03478 12.5738 9 12.5738C10.9739 12.5738 12.5739 10.9652 12.5739 8.99994C12.5826 7.03472 10.9739 5.42603 9 5.42603ZM9 11.3478C7.70435 11.3478 6.65217 10.2956 6.65217 8.99994C6.65217 7.70428 7.70435 6.65211 9 6.65211C10.2957 6.65211 11.3478 7.70428 11.3478 8.99994C11.3478 10.2956 10.2957 11.3478 9 11.3478Z" fill="white"/>
<path d="M12.8609 6.02607C13.2451 6.02607 13.5565 5.71462 13.5565 5.33042C13.5565 4.94622 13.2451 4.63477 12.8609 4.63477C12.4767 4.63477 12.1652 4.94622 12.1652 5.33042C12.1652 5.71462 12.4767 6.02607 12.8609 6.02607Z" fill="white"/>
</svg>
