<svg width="34" height="34" viewBox="0 0 34 34" fill="none" xmlns="http://www.w3.org/2000/svg">
<path d="M8.94737 14.3158C8.94687 14.0806 8.99312 13.8476 9.08344 13.6304C9.17375 13.4132 9.30633 13.2161 9.47347 13.0506L14.8401 7.68221C15.0052 7.5113 15.2026 7.37497 15.421 7.28119C15.6393 7.1874 15.8741 7.13804 16.1117 7.13597C16.3493 7.13391 16.5849 7.17918 16.8049 7.26916C17.0248 7.35914 17.2246 7.49201 17.3926 7.66003C17.5606 7.82805 17.6935 8.02785 17.7835 8.24777C17.8734 8.46769 17.9187 8.70332 17.9167 8.94093C17.9146 9.17853 17.8652 9.41335 17.7714 9.63167C17.6777 9.84999 17.5413 10.0475 17.3704 10.2125L15.0566 12.5263H25.9474C27.1339 12.5263 28.2718 12.055 29.1107 11.216C29.9497 10.377 30.4211 9.23913 30.4211 8.05263C30.4211 6.86614 29.9497 5.72824 29.1107 4.88926C28.2718 4.05028 27.1339 3.57895 25.9474 3.57895C25.4728 3.57895 25.0176 3.39041 24.682 3.05482C24.3464 2.71923 24.1579 2.26407 24.1579 1.78947C24.1579 1.31488 24.3464 0.859716 24.682 0.524125C25.0176 0.188533 25.4728 0 25.9474 0C30.3871 0 34 3.61116 34 8.05263C34 12.4923 30.3871 16.1053 25.9474 16.1053H15.0566L17.3704 18.4191C17.6227 18.6688 17.795 18.988 17.8652 19.336C17.9354 19.6839 17.9004 20.0449 17.7647 20.373C17.629 20.701 17.3987 20.9812 17.1032 21.1779C16.8077 21.3745 16.4603 21.4788 16.1053 21.4773C15.8704 21.477 15.6379 21.4304 15.4211 21.3402C15.2043 21.2499 15.0075 21.1177 14.8419 20.9512L9.47347 15.5827C9.30648 15.4161 9.17446 15.2177 9.08516 14.9994C8.99449 14.7829 8.94765 14.5505 8.94737 14.3158ZM3.57895 5.36842V25.0526H9.84211C11.2289 25.0526 12.3259 26.2373 13.2886 27.2787L13.4855 27.4935C14.1404 28.1932 15.0709 28.6316 16.1053 28.6316C17.1396 28.6316 18.0701 28.1932 18.7233 27.4917L18.9201 27.2787H18.9219C19.8846 26.2373 20.9816 25.0526 22.3684 25.0526H28.6316V21.4737C28.6316 20.9991 28.8201 20.5439 29.1557 20.2083C29.4913 19.8727 29.9465 19.6842 30.4211 19.6842C30.8957 19.6842 31.3508 19.8727 31.6864 20.2083C32.022 20.5439 32.2105 20.9991 32.2105 21.4737V31.3158C32.2105 32.0277 31.9277 32.7104 31.4243 33.2138C30.921 33.7172 30.2382 34 29.5263 34H2.68421C1.97231 34 1.28957 33.7172 0.786187 33.2138C0.2828 32.7104 0 32.0277 0 31.3158V4.47368C0 3.76179 0.2828 3.07905 0.786187 2.57566C1.28957 2.07227 1.97231 1.78947 2.68421 1.78947H10.7368C11.2114 1.78947 11.6666 1.97801 12.0022 2.3136C12.3378 2.64919 12.5263 3.10435 12.5263 3.57895C12.5263 4.05355 12.3378 4.5087 12.0022 4.8443C11.6666 5.17989 11.2114 5.36842 10.7368 5.36842H3.57895Z" fill="black"/>
</svg>
