<svg width="30" height="23" viewBox="0 0 30 23" fill="none" xmlns="http://www.w3.org/2000/svg">
<path fill-rule="evenodd" clip-rule="evenodd" d="M28.7797 17.1824L28.7724 17.1742C28.7617 17.162 28.741 17.1377 28.7125 17.1004C28.6556 17.0259 28.5672 16.8994 28.4648 16.7149C28.2605 16.3468 27.9971 15.7418 27.8187 14.8486C27.7543 14.5262 27.7136 14.2425 27.6898 13.9951C28.5186 12.7161 29 11.19 29 9.55339C29 5.04023 25.3451 1.38159 20.8365 1.38159C16.3279 1.38159 12.673 5.04023 12.673 9.55339C12.673 14.0666 16.3279 17.7252 20.8365 17.7252C21.774 17.7252 22.6761 17.5667 23.5165 17.2744L28.0222 18.4772C28.362 18.5679 28.7204 18.4189 28.8961 18.1139C29.07 17.812 29.022 17.4316 28.7797 17.1824Z" fill="#D9D9D9"/>
<path d="M28.7724 17.1742L28.3986 17.5063L28.3969 17.5043L28.7724 17.1742ZM28.7797 17.1824L28.4212 17.531L28.4134 17.523L28.4059 17.5146L28.7797 17.1824ZM28.7125 17.1004L29.1099 16.7968L29.1099 16.7969L28.7125 17.1004ZM28.4648 16.7149L28.0276 16.9576L28.0276 16.9575L28.4648 16.7149ZM27.8187 14.8486L27.3284 14.9466L27.3284 14.9466L27.8187 14.8486ZM27.6898 13.9951L27.1921 14.0431L27.1754 13.8695L27.2702 13.7232L27.6898 13.9951ZM23.5165 17.2744L23.3522 16.8022L23.4972 16.7518L23.6454 16.7913L23.5165 17.2744ZM28.0222 18.4772L28.1511 17.9941L28.1512 17.9941L28.0222 18.4772ZM28.8961 18.1139L29.3293 18.3635L29.3293 18.3635L28.8961 18.1139ZM29.1461 16.842L29.1534 16.8503L28.4059 17.5146L28.3986 17.5063L29.1461 16.842ZM29.1099 16.7969C29.1314 16.825 29.1448 16.8405 29.1479 16.844L28.3969 17.5043C28.3786 17.4836 28.3507 17.4503 28.3152 17.4039L29.1099 16.7969ZM28.902 16.4723C28.9922 16.6347 29.0671 16.7409 29.1099 16.7968L28.3152 17.4039C28.2442 17.3109 28.1423 17.1642 28.0276 16.9576L28.902 16.4723ZM28.309 14.7507C28.4772 15.5926 28.7225 16.1489 28.902 16.4723L28.0276 16.9575C27.7985 16.5447 27.517 15.8909 27.3284 14.9466L28.309 14.7507ZM28.1875 13.9471C28.2096 14.1769 28.2477 14.4439 28.309 14.7507L27.3284 14.9466C27.2608 14.6085 27.2177 14.3081 27.1921 14.0431L28.1875 13.9471ZM29.5 9.55339C29.5 11.2894 28.9891 12.9095 28.1094 14.267L27.2702 13.7232C28.0481 12.5227 28.5 11.0906 28.5 9.55339H29.5ZM20.8365 0.881592C25.6217 0.881592 29.5 4.76457 29.5 9.55339H28.5C28.5 5.31589 25.0684 1.88159 20.8365 1.88159V0.881592ZM12.173 9.55339C12.173 4.76457 16.0513 0.881592 20.8365 0.881592V1.88159C16.6046 1.88159 13.173 5.31589 13.173 9.55339H12.173ZM20.8365 18.2252C16.0513 18.2252 12.173 14.3422 12.173 9.55339H13.173C13.173 13.7909 16.6046 17.2252 20.8365 17.2252V18.2252ZM23.6807 17.7467C22.7883 18.057 21.8307 18.2252 20.8365 18.2252V17.2252C21.7173 17.2252 22.5639 17.0763 23.3522 16.8022L23.6807 17.7467ZM27.8932 18.9602L23.3875 17.7575L23.6454 16.7913L28.1511 17.9941L27.8932 18.9602ZM29.3293 18.3635C29.0408 18.8644 28.4519 19.1094 27.8932 18.9602L28.1512 17.9941C28.2721 18.0264 28.4 17.9735 28.4628 17.8644L29.3293 18.3635ZM29.1381 16.8338C29.5361 17.2431 29.6149 17.8677 29.3293 18.3635L28.4628 17.8644C28.5251 17.7562 28.5078 17.62 28.4212 17.531L29.1381 16.8338Z" fill="#3D3D3D"/>
<path fill-rule="evenodd" clip-rule="evenodd" d="M1.27488 20.7141L1.28402 20.7038C1.29734 20.6887 1.32312 20.6583 1.35865 20.6118C1.42964 20.5189 1.53995 20.3611 1.66774 20.1308C1.92261 19.6715 2.25127 18.9167 2.4739 17.8023C2.55426 17.4001 2.60494 17.0461 2.63469 16.7374C1.60065 15.1417 1.00002 13.2376 1.00002 11.1957C1.00002 5.56475 5.56013 1 11.1853 1C16.8105 1 21.3706 5.56475 21.3706 11.1957C21.3706 16.8266 16.8105 21.3913 11.1853 21.3913C10.0156 21.3913 8.8901 21.1935 7.84162 20.8289L2.21999 22.3295C1.79598 22.4427 1.34888 22.2569 1.12969 21.8763C0.912707 21.4996 0.972597 21.025 1.27488 20.7141Z" fill="#D9D9D9"/>
<path d="M1.28402 20.7038L1.65776 21.036L1.65953 21.034L1.28402 20.7038ZM1.27488 20.7141L1.63332 21.0627L1.64115 21.0547L1.6486 21.0463L1.27488 20.7141ZM1.35865 20.6118L0.961335 20.3082L0.961325 20.3082L1.35865 20.6118ZM1.66774 20.1308L2.10491 20.3735L2.10493 20.3735L1.66774 20.1308ZM2.4739 17.8023L2.96421 17.9003L2.96421 17.9003L2.4739 17.8023ZM2.63469 16.7374L3.13238 16.7854L3.14911 16.6118L3.0543 16.4655L2.63469 16.7374ZM7.84162 20.8289L8.00585 20.3566L7.86092 20.3062L7.71267 20.3458L7.84162 20.8289ZM2.21999 22.3295L2.09104 21.8464L2.091 21.8464L2.21999 22.3295ZM1.12969 21.8763L0.696414 22.1259L0.696424 22.1259L1.12969 21.8763ZM0.910297 20.3717L0.90115 20.382L1.6486 21.0463L1.65775 21.036L0.910297 20.3717ZM0.961325 20.3082C0.932754 20.3456 0.914257 20.3672 0.90852 20.3737L1.65953 21.034C1.68043 21.0102 1.71348 20.9709 1.75597 20.9153L0.961325 20.3082ZM1.23057 19.8882C1.11503 20.0963 1.01817 20.2338 0.961335 20.3082L1.75596 20.9153C1.84112 20.8039 1.96487 20.6258 2.10491 20.3735L1.23057 19.8882ZM1.98359 17.7044C1.77118 18.7676 1.46059 19.4737 1.23054 19.8882L2.10493 20.3735C2.38463 19.8694 2.73135 19.0658 2.96421 17.9003L1.98359 17.7044ZM2.137 16.6895C2.10895 16.9805 2.06083 17.3178 1.98359 17.7044L2.96421 17.9003C3.0477 17.4824 3.10093 17.1117 3.13238 16.7854L2.137 16.6895ZM0.500019 11.1957C0.500019 13.337 1.13016 15.335 2.21508 17.0093L3.0543 16.4655C2.07114 14.9483 1.50002 13.1382 1.50002 11.1957H0.500019ZM11.1853 0.5C5.2835 0.5 0.500019 5.28909 0.500019 11.1957H1.50002C1.50002 5.84041 5.83675 1.5 11.1853 1.5V0.5ZM21.8706 11.1957C21.8706 5.28909 17.0871 0.5 11.1853 0.5V1.5C16.5338 1.5 20.8706 5.84041 20.8706 11.1957H21.8706ZM11.1853 21.8913C17.0871 21.8913 21.8706 17.1022 21.8706 11.1957H20.8706C20.8706 16.5509 16.5339 20.8913 11.1853 20.8913V21.8913ZM7.67739 21.3012C8.77794 21.6839 9.95894 21.8913 11.1853 21.8913V20.8913C10.0723 20.8913 9.00226 20.7031 8.00585 20.3566L7.67739 21.3012ZM2.34895 22.8126L7.97057 21.312L7.71267 20.3458L2.09104 21.8464L2.34895 22.8126ZM0.696424 22.1259C1.02846 22.7024 1.70607 22.9843 2.34899 22.8126L2.091 21.8464C1.88589 21.9012 1.6693 21.8114 1.56296 21.6268L0.696424 22.1259ZM0.916431 20.3655C0.458418 20.8365 0.367803 21.5553 0.696414 22.1259L1.56297 21.6268C1.45761 21.4439 1.48678 21.2134 1.63332 21.0627L0.916431 20.3655Z" fill="#3D3D3D"/>
</svg>
