<svg width="18" height="18" viewBox="0 0 18 18" fill="none" xmlns="http://www.w3.org/2000/svg">
<rect width="18" height="18" rx="1" fill="#4A4A4A"/>
<path d="M15.1151 4.19206C15.1151 4.19206 14.1072 4.81203 13.5084 4.81203C13.5084 4.81203 13.0593 4.05206 11.752 4.00206C10.4447 3.95207 9.72617 4.82203 9.38687 5.32201C9.04756 5.82199 9.04757 6.95194 9.15734 7.16193C9.15734 7.16193 5.94395 7.20192 3.83827 4.49204C3.83827 4.49204 2.71059 6.49196 4.64661 7.8719C4.64661 7.8719 4.01791 7.89189 3.46904 7.60191C3.46904 7.60191 3.45906 9.58182 5.50485 10.1318C5.50485 10.1318 4.88612 10.3518 4.38715 10.1918C4.38715 10.1918 4.74641 11.7617 6.71237 11.9617C6.71237 11.9617 5.55475 13.2217 3 13.0217C3 13.0217 6.59261 15.7915 10.774 13.1417C14.4964 10.7818 14.2169 6.54195 14.2169 6.54195C14.2169 6.54195 15.1949 5.91198 15.4744 5.24201C15.4744 5.24201 14.7459 5.512 14.0473 5.61199C14.0573 5.60199 15.145 4.72203 15.1151 4.19206Z" fill="white"/>
</svg>
