<svg width="18" height="18" viewBox="0 0 18 18" fill="none" xmlns="http://www.w3.org/2000/svg">
<rect width="18" height="18" rx="1" fill="#4A4A4A"/>
<path d="M9.99 12.2401V9.00011H10.89C11.565 9.00011 11.79 9.00011 11.79 8.95511C11.79 8.91011 11.835 8.50511 11.88 8.01011C11.925 7.51511 11.97 7.02011 11.97 6.93011V6.75011H10.98H9.99V6.03011C9.99 5.62511 10.035 5.22011 10.08 5.17511C10.17 4.95011 10.395 4.86011 11.25 4.86011H12.015V3.73511V2.61011H10.8C9.45 2.61011 9.09 2.65511 8.55 2.92511C8.19 3.10511 7.83 3.46511 7.65 3.78011C7.425 4.27511 7.335 4.59011 7.335 5.71511L7.29 6.75011H6.615H5.94V7.87511V9.00011H6.615H7.29V12.2401V15.4801H8.64H9.99V12.2401Z" fill="white"/>
</svg>
