<svg width="18" height="18" viewBox="0 0 18 18" fill="none" xmlns="http://www.w3.org/2000/svg">
<path d="M6.99669 0C3.13288 0 0 3.13288 0 6.99672C0 10.8606 3.13288 13.9934 6.99672 13.9934C8.48252 13.9934 9.86043 13.53 10.9931 12.7406L10.9939 12.7398L16.183 17.9289C16.2793 18.0252 16.4324 18.0277 16.5312 17.9289L17.9297 16.5304C18.026 16.4341 18.0211 16.2744 17.9289 16.1822L12.7406 10.9939C13.53 9.86043 13.9934 8.48249 13.9934 6.99672C13.9934 3.13288 10.8605 0 6.99669 0ZM6.99669 12.3471C4.0416 12.3471 1.64626 9.95181 1.64626 6.99672C1.64626 4.04163 4.04163 1.64629 6.99669 1.64629C9.95175 1.64629 12.3471 4.04163 12.3471 6.99672C12.3471 9.95181 9.95178 12.3471 6.99669 12.3471Z" fill="#11100F"/>
</svg>
