<svg width="34" height="34" viewBox="0 0 34 34" fill="none" xmlns="http://www.w3.org/2000/svg">
<path fill-rule="evenodd" clip-rule="evenodd" d="M17.8255 0.194482C17.3121 -0.0648272 16.6879 -0.0648272 16.1745 0.194482L0.874412 7.92175L0.86241 7.9403L0.837879 7.94058C0.318733 8.21826 0 8.72514 0 9.27273V24.7271C0 25.2884 0.334713 25.8055 0.874412 26.078L16.1537 33.7949C16.67 34.0643 17.3045 34.0688 17.8255 33.8056L33.1255 26.0783C33.6653 25.8057 34 25.2886 34 24.7273V9.27273C34 8.72514 33.6813 8.21843 33.1621 7.94075C33.1493 7.93393 33.1366 7.92729 33.1237 7.92079L17.8255 0.194482ZM5.20069 9.27265L17.0002 15.232L21.2254 13.098L9.76303 6.96842L5.20069 9.27265ZM24.6741 11.3562L28.7995 9.27273L17 3.31339L13.2118 5.22665L24.6741 11.3562ZM3.4 23.8178V11.8992L15.3 17.9093V29.8279L3.4 23.8178ZM18.7 29.828V17.9093L30.6 11.8992V23.8179L18.7 29.828Z" fill="black"/>
</svg>
