<svg width="225" height="103" viewBox="0 0 225 103" fill="none" xmlns="http://www.w3.org/2000/svg">
<g clip-path="url(#clip0_241_939)">
<path d="M0 85.47H10.38V82.08H4V70.38H0V85.47ZM24.91 85.47H29.06L21.78 70.12C21.72 69.96 21.58 69.96 21.52 70.12L14.22 85.47H18.15L18.9 83.65H24.12L24.91 85.47ZM21.47 77.53L22.84 80.72H20.13L21.47 77.53ZM45.26 85.47H49.26V78.53L53 82.28C53.09 82.36 53.11 82.36 53.2 82.28L57 78.53V85.47H61V70.12C61 70.01 60.89 69.98 60.8 70.12L53.2 77.6L45.46 70.07C45.35 69.96 45.26 69.98 45.26 70.07V85.47ZM75.14 85.47H79.28L72 70.12C71.93 69.96 71.8 69.96 71.73 70.12L64.45 85.47H68.37L69.12 83.65H74.35L75.14 85.47ZM71.7 77.53L73.07 80.72H70.35L71.7 77.53ZM83.21 85.47H93.59V82.08H87.22V70.38H83.22L83.21 85.47ZM97.54 85.47H107.92V82.08H101.55V70.38H97.55L97.54 85.47ZM118.75 85.67C119.786 85.6966 120.817 85.5165 121.782 85.1402C122.748 84.7639 123.629 84.1989 124.374 83.4783C125.119 82.7578 125.712 81.896 126.12 80.9433C126.528 79.9907 126.742 78.9663 126.75 77.93C126.647 75.8644 125.754 73.9174 124.256 72.4919C122.757 71.0664 120.768 70.2714 118.7 70.2714C116.632 70.2714 114.643 71.0664 113.144 72.4919C111.646 73.9174 110.753 75.8644 110.65 77.93C110.658 78.9663 110.872 79.9907 111.28 80.9433C111.688 81.896 112.281 82.7578 113.026 83.4783C113.771 84.1989 114.652 84.7639 115.618 85.1402C116.583 85.5165 117.614 85.6966 118.65 85.67M118.65 82.17C116.14 82.17 114.65 80.3 114.65 77.93C114.65 75.56 116.09 73.71 118.65 73.71C121.21 73.71 122.65 75.55 122.65 77.93C122.65 80.31 121.21 82.17 118.65 82.17ZM135.12 80.75H136.49L139.13 85.47H143.48L140.37 80.12C141.215 79.7494 141.928 79.1317 142.415 78.3481C142.903 77.5645 143.141 76.6518 143.1 75.73C143.1 72.65 140.99 70.38 137.17 70.38H131.11V85.47H135.11L135.12 80.75ZM135.12 77.66V73.8H136.97C138.34 73.8 139.07 74.49 139.07 75.73C139.07 76.97 138.34 77.66 136.97 77.66H135.12ZM161.03 82.79C162.196 81.4399 162.835 79.714 162.83 77.93C162.757 75.8454 161.877 73.8708 160.376 72.422C158.875 70.9733 156.871 70.1637 154.785 70.1637C152.699 70.1637 150.695 70.9733 149.194 72.422C147.693 73.8708 146.814 75.8454 146.74 77.93C146.748 78.9663 146.962 79.9907 147.37 80.9433C147.778 81.896 148.371 82.7578 149.116 83.4783C149.861 84.1989 150.742 84.7639 151.708 85.1402C152.673 85.5165 153.704 85.6966 154.74 85.67C155.998 85.6649 157.238 85.3779 158.37 84.83L160.45 86.91L162.76 84.58L161.03 82.79ZM155.8 82.17C155.471 82.2378 155.136 82.2746 154.8 82.28C152.28 82.28 150.85 80.5 150.85 77.93C150.85 75.55 152.28 73.71 154.8 73.71C157.32 73.71 158.74 75.55 158.74 77.93C158.753 78.6589 158.621 79.3831 158.35 80.06L156.76 78.44L154.42 80.77L155.8 82.17ZM173.15 85.69C176.9 85.69 179.66 83.69 179.66 79.69V70.38H175.66V79.59C175.66 81.3 174.87 82.28 173.17 82.28C171.47 82.28 170.68 81.28 170.68 79.59V70.38H166.68V79.64C166.68 83.7 169.43 85.64 173.18 85.64M184.32 85.42H188.32V70.38H184.32V85.42ZM206.74 85.69C206.98 85.89 207.05 85.82 207.05 85.64V70.38H203.28V78L193.93 70.14C193.69 69.94 193.62 70.05 193.62 70.14V85.47H197.4V78L206.74 85.69ZM220.74 85.42H225L217.72 70.12C217.66 69.96 217.52 69.96 217.46 70.12L210.16 85.47H214.09L214.84 83.65H220.06L220.74 85.42ZM217.3 77.48L218.67 80.67H215.96L217.3 77.48Z" fill="#1D1D1B"/>
<path d="M80.33 96.13H79.48V95.87H80.61V102H80.33V96.13Z" fill="#1D1D1B" stroke="#1D1D1B" stroke-width="0.5" stroke-miterlimit="10"/>
<path d="M102.9 99.55C102.6 99.7841 102.23 99.9108 101.85 99.91C101.443 99.908 101.046 99.7855 100.708 99.558C100.371 99.3304 100.108 99.008 99.954 98.6314C99.7996 98.2548 99.7602 97.8409 99.8409 97.442C99.9215 97.0431 100.118 96.6769 100.407 96.3898C100.695 96.1027 101.062 95.9075 101.462 95.8289C101.861 95.7502 102.275 95.7916 102.651 95.9478C103.026 96.104 103.348 96.368 103.574 96.7066C103.799 97.0451 103.92 97.443 103.92 97.85C103.911 98.3369 103.75 98.8088 103.46 99.2L101.56 102H101.25L102.9 99.55ZM103.64 97.85C103.63 97.5066 103.52 97.1737 103.322 96.8928C103.124 96.6118 102.848 96.3953 102.528 96.2702C102.208 96.1451 101.859 96.1169 101.523 96.1892C101.187 96.2614 100.88 96.4309 100.639 96.6766C100.399 96.9222 100.237 97.2331 100.172 97.5705C100.107 97.9078 100.143 98.2568 100.276 98.5738C100.408 98.8909 100.631 99.162 100.916 99.3534C101.201 99.5447 101.537 99.6479 101.88 99.65C102.117 99.6572 102.352 99.6153 102.571 99.5269C102.791 99.4385 102.99 99.3055 103.155 99.1363C103.321 98.9671 103.449 98.7654 103.533 98.544C103.616 98.3226 103.653 98.0863 103.64 97.85Z" fill="#1D1D1B" stroke="#1D1D1B" stroke-width="0.5" stroke-miterlimit="10"/>
<path d="M126.2 100.47V100.72H125.58V102H125.3V100.72H121.81L125.54 95.72V100.47H126.2ZM125.3 96.47L122.3 100.47H125.3V96.47Z" fill="#1D1D1B" stroke="#1D1D1B" stroke-width="0.5" stroke-miterlimit="10"/>
<path d="M148.42 96.13H144.69V95.87H148.82L145.71 102H145.42L148.42 96.13Z" fill="#1D1D1B" stroke="#1D1D1B" stroke-width="0.5" stroke-miterlimit="10"/>
</g>
<path d="M106.685 39.8417C106.627 39.8417 106.583 39.8125 106.539 39.7833L105.402 38.5583C105.329 38.4708 105.329 38.3542 105.417 38.2667C105.504 38.1938 105.621 38.1938 105.708 38.2813L106.846 39.5063C106.919 39.5938 106.919 39.7104 106.831 39.7979C106.787 39.8271 106.744 39.8417 106.685 39.8417ZM108.975 42.2771C108.917 42.2771 108.873 42.2625 108.829 42.2188L107.692 40.9938C107.619 40.9063 107.619 40.7896 107.706 40.7021C107.794 40.6292 107.91 40.6292 107.998 40.7167L109.135 41.9417C109.208 42.0292 109.208 42.1458 109.121 42.2333C109.062 42.2625 109.019 42.2771 108.975 42.2771ZM111.25 44.7271C111.192 44.7271 111.148 44.7125 111.104 44.6688L109.967 43.4438C109.894 43.3563 109.894 43.2396 109.981 43.1521C110.069 43.0792 110.185 43.0792 110.273 43.1667L111.41 44.3917C111.483 44.4792 111.483 44.5958 111.396 44.6833C111.352 44.6979 111.294 44.7271 111.25 44.7271Z" fill="#1D1D1B"/>
<path d="M106.685 39.8417C106.627 39.8417 106.583 39.8125 106.539 39.7833L105.402 38.5583C105.329 38.4708 105.329 38.3542 105.417 38.2667C105.504 38.1938 105.621 38.1938 105.708 38.2813L106.846 39.5063C106.919 39.5938 106.919 39.7104 106.831 39.7979C106.787 39.8271 106.744 39.8417 106.685 39.8417ZM108.975 42.2771C108.917 42.2771 108.873 42.2625 108.829 42.2188L107.692 40.9938C107.619 40.9063 107.619 40.7896 107.706 40.7021C107.794 40.6292 107.91 40.6292 107.998 40.7167L109.135 41.9417C109.208 42.0292 109.208 42.1458 109.121 42.2333C109.062 42.2625 109.019 42.2771 108.975 42.2771ZM111.25 44.7271C111.192 44.7271 111.148 44.7125 111.104 44.6688L109.967 43.4438C109.894 43.3563 109.894 43.2396 109.981 43.1521C110.069 43.0792 110.185 43.0792 110.273 43.1667L111.41 44.3917C111.483 44.4792 111.483 44.5958 111.396 44.6833C111.352 44.6979 111.294 44.7271 111.25 44.7271Z" stroke="#1D1D1B" stroke-width="0.5" stroke-miterlimit="10"/>
<path d="M103.842 41.0813C103.725 41.0813 103.637 40.9938 103.637 40.8771V39.1563C103.637 39.0396 103.725 38.9521 103.842 38.9521C103.958 38.9521 104.046 39.0396 104.046 39.1563V40.8771C104.046 40.9938 103.958 41.0813 103.842 41.0813ZM103.842 44.5083C103.725 44.5083 103.637 44.4208 103.637 44.3042V42.5833C103.637 42.4667 103.725 42.3792 103.842 42.3792C103.958 42.3792 104.046 42.4667 104.046 42.5833V44.3042C104.046 44.4208 103.958 44.5083 103.842 44.5083ZM103.842 47.9354C103.725 47.9354 103.637 47.8479 103.637 47.7313V46.0104C103.637 45.8938 103.725 45.8063 103.842 45.8063C103.958 45.8063 104.046 45.8938 104.046 46.0104V47.7313C104.046 47.8479 103.958 47.9354 103.842 47.9354ZM103.842 51.3625C103.725 51.3625 103.637 51.275 103.637 51.1583V49.4375C103.637 49.3208 103.725 49.2333 103.842 49.2333C103.958 49.2333 104.046 49.3208 104.046 49.4375V51.1583C104.046 51.275 103.958 51.3625 103.842 51.3625Z" fill="#1D1D1B"/>
<path d="M103.842 41.0813C103.725 41.0813 103.637 40.9938 103.637 40.8771V39.1563C103.637 39.0396 103.725 38.9521 103.842 38.9521C103.958 38.9521 104.046 39.0396 104.046 39.1563V40.8771C104.046 40.9938 103.958 41.0813 103.842 41.0813ZM103.842 44.5083C103.725 44.5083 103.637 44.4208 103.637 44.3042V42.5833C103.637 42.4667 103.725 42.3792 103.842 42.3792C103.958 42.3792 104.046 42.4667 104.046 42.5833V44.3042C104.046 44.4208 103.958 44.5083 103.842 44.5083ZM103.842 47.9354C103.725 47.9354 103.637 47.8479 103.637 47.7313V46.0104C103.637 45.8938 103.725 45.8063 103.842 45.8063C103.958 45.8063 104.046 45.8938 104.046 46.0104V47.7313C104.046 47.8479 103.958 47.9354 103.842 47.9354ZM103.842 51.3625C103.725 51.3625 103.637 51.275 103.637 51.1583V49.4375C103.637 49.3208 103.725 49.2333 103.842 49.2333C103.958 49.2333 104.046 49.3208 104.046 49.4375V51.1583C104.046 51.275 103.958 51.3625 103.842 51.3625Z" stroke="#1D1D1B" stroke-width="0.5" stroke-miterlimit="10"/>
<path d="M98.0957 53.9437H96.4478C96.3312 53.9437 96.2437 53.8562 96.2437 53.7396C96.2437 53.6229 96.3312 53.5354 96.4478 53.5354H98.0957C98.2124 53.5354 98.2999 53.6229 98.2999 53.7396C98.2999 53.8562 98.2124 53.9437 98.0957 53.9437ZM101.377 53.9437H99.7291C99.6124 53.9437 99.5249 53.8562 99.5249 53.7396C99.5249 53.6229 99.6124 53.5354 99.7291 53.5354H101.377C101.494 53.5354 101.581 53.6229 101.581 53.7396C101.581 53.8562 101.494 53.9437 101.377 53.9437Z" fill="#1D1D1B"/>
<path d="M98.0957 53.9437H96.4478C96.3312 53.9437 96.2437 53.8562 96.2437 53.7396C96.2437 53.6229 96.3312 53.5354 96.4478 53.5354H98.0957C98.2124 53.5354 98.2999 53.6229 98.2999 53.7396C98.2999 53.8562 98.2124 53.9437 98.0957 53.9437ZM101.377 53.9437H99.7291C99.6124 53.9437 99.5249 53.8562 99.5249 53.7396C99.5249 53.6229 99.6124 53.5354 99.7291 53.5354H101.377C101.494 53.5354 101.581 53.6229 101.581 53.7396C101.581 53.8562 101.494 53.9437 101.377 53.9437Z" stroke="#1D1D1B" stroke-width="0.5" stroke-miterlimit="10"/>
<path d="M93.9979 20.9562C93.8812 20.9562 93.7937 20.8687 93.7937 20.7521V19.0604C93.7937 18.9437 93.8812 18.8562 93.9979 18.8562C94.1145 18.8562 94.202 18.9437 94.202 19.0604V20.7521C94.1875 20.8687 94.1 20.9562 93.9979 20.9562ZM93.9979 24.3396C93.8812 24.3396 93.7937 24.2521 93.7937 24.1354V22.4437C93.7937 22.3271 93.8812 22.2396 93.9979 22.2396C94.1145 22.2396 94.202 22.3271 94.202 22.4437V24.1354C94.1875 24.2521 94.1 24.3396 93.9979 24.3396ZM93.9979 27.7229C93.8812 27.7229 93.7937 27.6354 93.7937 27.5187V25.8271C93.7937 25.7104 93.8812 25.6229 93.9979 25.6229C94.1145 25.6229 94.202 25.7104 94.202 25.8271V27.5187C94.1875 27.6354 94.1 27.7229 93.9979 27.7229ZM93.9979 31.1062C93.8812 31.1062 93.7937 31.0187 93.7937 30.9021V29.2104C93.7937 29.0937 93.8812 29.0062 93.9979 29.0062C94.1145 29.0062 94.202 29.0937 94.202 29.2104V30.9021C94.1875 31.0187 94.1 31.1062 93.9979 31.1062ZM93.9979 34.4896C93.8812 34.4896 93.7937 34.4021 93.7937 34.2854V32.5937C93.7937 32.4771 93.8812 32.3896 93.9979 32.3896C94.1145 32.3896 94.202 32.4771 94.202 32.5937V34.2854C94.1875 34.4021 94.1 34.4896 93.9979 34.4896ZM93.9979 37.8729C93.8812 37.8729 93.7937 37.7854 93.7937 37.6687V35.9771C93.7937 35.8604 93.8812 35.7729 93.9979 35.7729C94.1145 35.7729 94.202 35.8604 94.202 35.9771V37.6687C94.1875 37.7854 94.1 37.8729 93.9979 37.8729ZM93.9979 41.2562C93.8812 41.2562 93.7937 41.1687 93.7937 41.0521V39.3604C93.7937 39.2437 93.8812 39.1562 93.9979 39.1562C94.1145 39.1562 94.202 39.2437 94.202 39.3604V41.0521C94.1875 41.1687 94.1 41.2562 93.9979 41.2562ZM93.9979 44.6396C93.8812 44.6396 93.7937 44.5521 93.7937 44.4354V42.7437C93.7937 42.6271 93.8812 42.5396 93.9979 42.5396C94.1145 42.5396 94.202 42.6271 94.202 42.7437V44.4354C94.1875 44.5521 94.1 44.6396 93.9979 44.6396ZM93.9979 48.0229C93.8812 48.0229 93.7937 47.9354 93.7937 47.8187V46.1271C93.7937 46.0104 93.8812 45.9229 93.9979 45.9229C94.1145 45.9229 94.202 46.0104 94.202 46.1271V47.8187C94.1875 47.9354 94.1 48.0229 93.9979 48.0229ZM93.9979 51.4062C93.8812 51.4062 93.7937 51.3187 93.7937 51.2021V49.5104C93.7937 49.3937 93.8812 49.3062 93.9979 49.3062C94.1145 49.3062 94.202 49.3937 94.202 49.5104V51.2021C94.1875 51.3041 94.1 51.4062 93.9979 51.4062Z" fill="#1D1D1B"/>
<path d="M93.9979 20.9562C93.8812 20.9562 93.7937 20.8687 93.7937 20.7521V19.0604C93.7937 18.9437 93.8812 18.8562 93.9979 18.8562C94.1145 18.8562 94.202 18.9437 94.202 19.0604V20.7521C94.1875 20.8687 94.1 20.9562 93.9979 20.9562ZM93.9979 24.3396C93.8812 24.3396 93.7937 24.2521 93.7937 24.1354V22.4437C93.7937 22.3271 93.8812 22.2396 93.9979 22.2396C94.1145 22.2396 94.202 22.3271 94.202 22.4437V24.1354C94.1875 24.2521 94.1 24.3396 93.9979 24.3396ZM93.9979 27.7229C93.8812 27.7229 93.7937 27.6354 93.7937 27.5187V25.8271C93.7937 25.7104 93.8812 25.6229 93.9979 25.6229C94.1145 25.6229 94.202 25.7104 94.202 25.8271V27.5187C94.1875 27.6354 94.1 27.7229 93.9979 27.7229ZM93.9979 31.1062C93.8812 31.1062 93.7937 31.0187 93.7937 30.9021V29.2104C93.7937 29.0937 93.8812 29.0062 93.9979 29.0062C94.1145 29.0062 94.202 29.0937 94.202 29.2104V30.9021C94.1875 31.0187 94.1 31.1062 93.9979 31.1062ZM93.9979 34.4896C93.8812 34.4896 93.7937 34.4021 93.7937 34.2854V32.5937C93.7937 32.4771 93.8812 32.3896 93.9979 32.3896C94.1145 32.3896 94.202 32.4771 94.202 32.5937V34.2854C94.1875 34.4021 94.1 34.4896 93.9979 34.4896ZM93.9979 37.8729C93.8812 37.8729 93.7937 37.7854 93.7937 37.6687V35.9771C93.7937 35.8604 93.8812 35.7729 93.9979 35.7729C94.1145 35.7729 94.202 35.8604 94.202 35.9771V37.6687C94.1875 37.7854 94.1 37.8729 93.9979 37.8729ZM93.9979 41.2562C93.8812 41.2562 93.7937 41.1687 93.7937 41.0521V39.3604C93.7937 39.2437 93.8812 39.1562 93.9979 39.1562C94.1145 39.1562 94.202 39.2437 94.202 39.3604V41.0521C94.1875 41.1687 94.1 41.2562 93.9979 41.2562ZM93.9979 44.6396C93.8812 44.6396 93.7937 44.5521 93.7937 44.4354V42.7437C93.7937 42.6271 93.8812 42.5396 93.9979 42.5396C94.1145 42.5396 94.202 42.6271 94.202 42.7437V44.4354C94.1875 44.5521 94.1 44.6396 93.9979 44.6396ZM93.9979 48.0229C93.8812 48.0229 93.7937 47.9354 93.7937 47.8187V46.1271C93.7937 46.0104 93.8812 45.9229 93.9979 45.9229C94.1145 45.9229 94.202 46.0104 94.202 46.1271V47.8187C94.1875 47.9354 94.1 48.0229 93.9979 48.0229ZM93.9979 51.4062C93.8812 51.4062 93.7937 51.3187 93.7937 51.2021V49.5104C93.7937 49.3937 93.8812 49.3062 93.9979 49.3062C94.1145 49.3062 94.202 49.3937 94.202 49.5104V51.2021C94.1875 51.3041 94.1 51.4062 93.9979 51.4062Z" stroke="#1D1D1B" stroke-width="0.5" stroke-miterlimit="10"/>
<path d="M96.9729 19.5271C96.9292 19.5271 96.8708 19.5125 96.8417 19.4687L95.6458 18.3604C95.5583 18.2875 95.5583 18.1562 95.6312 18.0687C95.7042 17.9812 95.8354 17.9812 95.9229 18.0541L97.1187 19.1625C97.2062 19.2354 97.2062 19.3666 97.1333 19.4541C97.0896 19.4979 97.0312 19.5271 96.9729 19.5271ZM99.3646 21.7437C99.3208 21.7437 99.2625 21.7291 99.2333 21.6854L98.0375 20.5771C97.95 20.5041 97.95 20.3729 98.0229 20.2854C98.0958 20.1979 98.2271 20.1979 98.3146 20.2708L99.5104 21.3791C99.5979 21.4521 99.5979 21.5833 99.525 21.6708C99.4667 21.7291 99.4229 21.7437 99.3646 21.7437ZM101.756 23.975C101.712 23.975 101.654 23.9604 101.625 23.9166L100.429 22.8083C100.342 22.7354 100.342 22.6041 100.415 22.5166C100.487 22.4291 100.619 22.4291 100.706 22.5021L101.902 23.6104C101.99 23.6833 101.99 23.8146 101.917 23.9021C101.858 23.9604 101.8 23.975 101.756 23.975ZM104.133 26.2062C104.09 26.2062 104.031 26.1916 104.002 26.1479L102.806 25.0396C102.719 24.9666 102.719 24.8354 102.792 24.7479C102.865 24.6604 102.996 24.6604 103.083 24.7333L104.279 25.8416C104.367 25.9146 104.367 26.0458 104.294 26.1333C104.25 26.1916 104.192 26.2062 104.133 26.2062ZM106.525 28.4375C106.481 28.4375 106.423 28.4229 106.394 28.3792L105.198 27.2708C105.11 27.1979 105.11 27.0666 105.183 26.9791C105.256 26.8916 105.387 26.8916 105.475 26.9646L106.671 28.0729C106.758 28.1458 106.758 28.2771 106.685 28.3646C106.642 28.4229 106.583 28.4375 106.525 28.4375ZM108.917 30.6687C108.873 30.6687 108.815 30.6541 108.785 30.6104L107.59 29.5021C107.502 29.4291 107.502 29.2979 107.575 29.2104C107.648 29.1229 107.779 29.1229 107.867 29.1958L109.062 30.3042C109.15 30.3771 109.15 30.5083 109.077 30.5958C109.019 30.6396 108.975 30.6687 108.917 30.6687ZM111.308 32.9C111.265 32.9 111.206 32.8854 111.177 32.8416L109.981 31.7333C109.894 31.6604 109.894 31.5292 109.967 31.4417C110.04 31.3542 110.171 31.3541 110.258 31.4271L111.454 32.5354C111.542 32.6083 111.542 32.7396 111.469 32.8271C111.41 32.8708 111.352 32.9 111.308 32.9Z" fill="#1D1D1B"/>
<path d="M96.9729 19.5271C96.9292 19.5271 96.8708 19.5125 96.8417 19.4687L95.6458 18.3604C95.5583 18.2875 95.5583 18.1562 95.6312 18.0687C95.7042 17.9812 95.8354 17.9812 95.9229 18.0541L97.1187 19.1625C97.2062 19.2354 97.2062 19.3666 97.1333 19.4541C97.0896 19.4979 97.0312 19.5271 96.9729 19.5271ZM99.3646 21.7437C99.3208 21.7437 99.2625 21.7291 99.2333 21.6854L98.0375 20.5771C97.95 20.5041 97.95 20.3729 98.0229 20.2854C98.0958 20.1979 98.2271 20.1979 98.3146 20.2708L99.5104 21.3791C99.5979 21.4521 99.5979 21.5833 99.525 21.6708C99.4667 21.7291 99.4229 21.7437 99.3646 21.7437ZM101.756 23.975C101.712 23.975 101.654 23.9604 101.625 23.9166L100.429 22.8083C100.342 22.7354 100.342 22.6041 100.415 22.5166C100.487 22.4291 100.619 22.4291 100.706 22.5021L101.902 23.6104C101.99 23.6833 101.99 23.8146 101.917 23.9021C101.858 23.9604 101.8 23.975 101.756 23.975ZM104.133 26.2062C104.09 26.2062 104.031 26.1916 104.002 26.1479L102.806 25.0396C102.719 24.9666 102.719 24.8354 102.792 24.7479C102.865 24.6604 102.996 24.6604 103.083 24.7333L104.279 25.8416C104.367 25.9146 104.367 26.0458 104.294 26.1333C104.25 26.1916 104.192 26.2062 104.133 26.2062ZM106.525 28.4375C106.481 28.4375 106.423 28.4229 106.394 28.3792L105.198 27.2708C105.11 27.1979 105.11 27.0666 105.183 26.9791C105.256 26.8916 105.387 26.8916 105.475 26.9646L106.671 28.0729C106.758 28.1458 106.758 28.2771 106.685 28.3646C106.642 28.4229 106.583 28.4375 106.525 28.4375ZM108.917 30.6687C108.873 30.6687 108.815 30.6541 108.785 30.6104L107.59 29.5021C107.502 29.4292 107.502 29.2979 107.575 29.2104C107.648 29.1229 107.779 29.1229 107.867 29.1958L109.062 30.3042C109.15 30.3771 109.15 30.5083 109.077 30.5958C109.019 30.6396 108.975 30.6687 108.917 30.6687ZM111.308 32.9C111.265 32.9 111.206 32.8854 111.177 32.8416L109.981 31.7333C109.894 31.6604 109.894 31.5292 109.967 31.4417C110.04 31.3542 110.171 31.3541 110.258 31.4271L111.454 32.5354C111.542 32.6083 111.542 32.7396 111.469 32.8271C111.41 32.8708 111.352 32.9 111.308 32.9Z" stroke="#1D1D1B" stroke-width="0.5" stroke-miterlimit="10"/>
<path d="M93.9979 17.5875C93.8812 17.5875 93.7937 17.5 93.7937 17.3833V16.0708L94.727 16.9458C94.8145 17.0187 94.8145 17.15 94.7416 17.2375C94.6687 17.325 94.5375 17.325 94.45 17.2521L94.1875 17.0187V17.3979C94.1875 17.4854 94.1 17.5875 93.9979 17.5875ZM113.087 34.5625C113.044 34.5625 112.985 34.5479 112.956 34.5042L112.358 33.95C112.271 33.8771 112.271 33.7458 112.344 33.6583C112.417 33.5708 112.548 33.5708 112.635 33.6437L113.233 34.1979C113.321 34.2708 113.321 34.4021 113.248 34.4896C113.204 34.5479 113.146 34.5625 113.087 34.5625ZM103.842 37.6542C103.725 37.6542 103.637 37.5667 103.637 37.45V36.0792L104.556 37.0708C104.629 37.1583 104.629 37.275 104.542 37.3625C104.454 37.4354 104.337 37.4354 104.25 37.3479L104.031 37.1146V37.4646C104.046 37.5667 103.958 37.6542 103.842 37.6542ZM112.956 46.55C112.898 46.55 112.854 46.5354 112.81 46.4917L112.242 45.8792C112.169 45.7917 112.169 45.675 112.256 45.5875C112.344 45.5146 112.46 45.5146 112.548 45.6021L113.117 46.2146C113.19 46.3021 113.19 46.4187 113.102 46.5062C113.058 46.5354 113.015 46.55 112.956 46.55ZM94.8145 53.9437H93.7937V52.8937C93.7937 52.7771 93.8812 52.6896 93.9979 52.6896C94.1145 52.6896 94.202 52.7771 94.202 52.8937V53.5354H94.8145C94.9312 53.5354 95.0187 53.6229 95.0187 53.7396C95.0187 53.8562 94.9312 53.9437 94.8145 53.9437ZM104.046 53.9437H103.025C102.908 53.9437 102.821 53.8562 102.821 53.7396C102.821 53.6229 102.908 53.5354 103.025 53.5354H103.637V52.8792C103.637 52.7625 103.725 52.675 103.842 52.675C103.958 52.675 104.046 52.7625 104.046 52.8792V53.9437Z" fill="#1D1D1B"/>
<path d="M93.9979 17.5875C93.8812 17.5875 93.7937 17.5 93.7937 17.3833V16.0708L94.727 16.9458C94.8145 17.0187 94.8145 17.15 94.7416 17.2375C94.6687 17.325 94.5375 17.325 94.45 17.2521L94.1875 17.0187V17.3979C94.1875 17.4854 94.1 17.5875 93.9979 17.5875ZM113.087 34.5625C113.044 34.5625 112.985 34.5479 112.956 34.5042L112.358 33.95C112.271 33.8771 112.271 33.7458 112.344 33.6583C112.417 33.5708 112.548 33.5708 112.635 33.6437L113.233 34.1979C113.321 34.2708 113.321 34.4021 113.248 34.4896C113.204 34.5479 113.146 34.5625 113.087 34.5625ZM103.842 37.6542C103.725 37.6542 103.637 37.5667 103.637 37.45V36.0792L104.556 37.0708C104.629 37.1583 104.629 37.275 104.542 37.3625C104.454 37.4354 104.337 37.4354 104.25 37.3479L104.031 37.1146V37.4646C104.046 37.5667 103.958 37.6542 103.842 37.6542ZM112.956 46.55C112.898 46.55 112.854 46.5354 112.81 46.4917L112.242 45.8792C112.169 45.7917 112.169 45.675 112.256 45.5875C112.344 45.5146 112.46 45.5146 112.548 45.6021L113.117 46.2146C113.19 46.3021 113.19 46.4187 113.102 46.5062C113.058 46.5354 113.015 46.55 112.956 46.55ZM94.8145 53.9437H93.7937V52.8937C93.7937 52.7771 93.8812 52.6896 93.9979 52.6896C94.1145 52.6896 94.202 52.7771 94.202 52.8937V53.5354H94.8145C94.9312 53.5354 95.0187 53.6229 95.0187 53.7396C95.0187 53.8562 94.9312 53.9437 94.8145 53.9437ZM104.046 53.9437H103.025C102.908 53.9437 102.821 53.8562 102.821 53.7396C102.821 53.6229 102.908 53.5354 103.025 53.5354H103.637V52.8792C103.637 52.7625 103.725 52.675 103.842 52.675C103.958 52.675 104.046 52.7625 104.046 52.8792V53.9437Z" stroke="#1D1D1B" stroke-width="0.5" stroke-miterlimit="10"/>
<path d="M119.315 39.8417C119.271 39.8417 119.212 39.8271 119.183 39.7833C119.096 39.7104 119.096 39.5792 119.169 39.4917L120.306 38.2667C120.379 38.1792 120.51 38.1792 120.598 38.2521C120.685 38.325 120.685 38.4563 120.612 38.5438L119.475 39.7688C119.417 39.8271 119.358 39.8417 119.315 39.8417ZM117.025 42.2771C116.981 42.2771 116.923 42.2625 116.894 42.2188C116.806 42.1458 116.806 42.0146 116.879 41.9271L118.017 40.7021C118.09 40.6146 118.221 40.6146 118.308 40.6875C118.396 40.7604 118.396 40.8917 118.323 40.9792L117.185 42.2042C117.142 42.2625 117.083 42.2771 117.025 42.2771ZM114.75 44.7271C114.706 44.7271 114.648 44.7125 114.619 44.6688C114.531 44.5958 114.531 44.4646 114.604 44.3771L115.742 43.1521C115.815 43.0646 115.946 43.0646 116.033 43.1375C116.121 43.2104 116.121 43.3417 116.048 43.4292L114.91 44.6542C114.867 44.6979 114.808 44.7271 114.75 44.7271Z" fill="#1D1D1B"/>
<path d="M119.315 39.8417C119.271 39.8417 119.212 39.8271 119.183 39.7833C119.096 39.7104 119.096 39.5792 119.169 39.4917L120.306 38.2667C120.379 38.1792 120.51 38.1792 120.598 38.2521C120.685 38.325 120.685 38.4563 120.612 38.5438L119.475 39.7688C119.417 39.8271 119.358 39.8417 119.315 39.8417ZM117.025 42.2771C116.981 42.2771 116.923 42.2625 116.894 42.2188C116.806 42.1458 116.806 42.0146 116.879 41.9271L118.017 40.7021C118.09 40.6146 118.221 40.6146 118.308 40.6875C118.396 40.7604 118.396 40.8917 118.323 40.9792L117.185 42.2042C117.142 42.2625 117.083 42.2771 117.025 42.2771ZM114.75 44.7271C114.706 44.7271 114.648 44.7125 114.619 44.6688C114.531 44.5958 114.531 44.4646 114.604 44.3771L115.742 43.1521C115.815 43.0646 115.946 43.0646 116.033 43.1375C116.121 43.2104 116.121 43.3417 116.048 43.4292L114.91 44.6542C114.867 44.6979 114.808 44.7271 114.75 44.7271Z" stroke="#1D1D1B" stroke-width="0.5" stroke-miterlimit="10"/>
<path d="M122.158 41.0813C122.042 41.0813 121.954 40.9938 121.954 40.8771V39.1563C121.954 39.0396 122.042 38.9521 122.158 38.9521C122.275 38.9521 122.362 39.0396 122.362 39.1563V40.8771C122.362 40.9938 122.275 41.0813 122.158 41.0813ZM122.158 44.5083C122.042 44.5083 121.954 44.4208 121.954 44.3042V42.5833C121.954 42.4667 122.042 42.3792 122.158 42.3792C122.275 42.3792 122.362 42.4667 122.362 42.5833V44.3042C122.362 44.4208 122.275 44.5083 122.158 44.5083ZM122.158 47.9354C122.042 47.9354 121.954 47.8479 121.954 47.7313V46.0104C121.954 45.8938 122.042 45.8063 122.158 45.8063C122.275 45.8063 122.362 45.8938 122.362 46.0104V47.7313C122.362 47.8479 122.275 47.9354 122.158 47.9354ZM122.158 51.3625C122.042 51.3625 121.954 51.275 121.954 51.1583V49.4375C121.954 49.3208 122.042 49.2333 122.158 49.2333C122.275 49.2333 122.362 49.3208 122.362 49.4375V51.1583C122.362 51.275 122.275 51.3625 122.158 51.3625Z" fill="#1D1D1B"/>
<path d="M122.158 41.0813C122.042 41.0813 121.954 40.9938 121.954 40.8771V39.1563C121.954 39.0396 122.042 38.9521 122.158 38.9521C122.275 38.9521 122.362 39.0396 122.362 39.1563V40.8771C122.362 40.9938 122.275 41.0813 122.158 41.0813ZM122.158 44.5083C122.042 44.5083 121.954 44.4208 121.954 44.3042V42.5833C121.954 42.4667 122.042 42.3792 122.158 42.3792C122.275 42.3792 122.362 42.4667 122.362 42.5833V44.3042C122.362 44.4208 122.275 44.5083 122.158 44.5083ZM122.158 47.9354C122.042 47.9354 121.954 47.8479 121.954 47.7313V46.0104C121.954 45.8938 122.042 45.8063 122.158 45.8063C122.275 45.8063 122.362 45.8938 122.362 46.0104V47.7313C122.362 47.8479 122.275 47.9354 122.158 47.9354ZM122.158 51.3625C122.042 51.3625 121.954 51.275 121.954 51.1583V49.4375C121.954 49.3208 122.042 49.2333 122.158 49.2333C122.275 49.2333 122.362 49.3208 122.362 49.4375V51.1583C122.362 51.275 122.275 51.3625 122.158 51.3625Z" stroke="#1D1D1B" stroke-width="0.5" stroke-miterlimit="10"/>
<path d="M126.256 53.9437H124.608C124.492 53.9437 124.404 53.8562 124.404 53.7396C124.404 53.6229 124.492 53.5354 124.608 53.5354H126.256C126.373 53.5354 126.46 53.6229 126.46 53.7396C126.46 53.8562 126.373 53.9437 126.256 53.9437ZM129.552 53.9437H127.904C127.788 53.9437 127.7 53.8562 127.7 53.7396C127.7 53.6229 127.788 53.5354 127.904 53.5354H129.552C129.669 53.5354 129.756 53.6229 129.756 53.7396C129.756 53.8562 129.654 53.9437 129.552 53.9437Z" fill="#1D1D1B"/>
<path d="M126.256 53.9437H124.608C124.492 53.9437 124.404 53.8562 124.404 53.7396C124.404 53.6229 124.492 53.5354 124.608 53.5354H126.256C126.373 53.5354 126.46 53.6229 126.46 53.7396C126.46 53.8562 126.373 53.9437 126.256 53.9437ZM129.552 53.9437H127.904C127.788 53.9437 127.7 53.8562 127.7 53.7396C127.7 53.6229 127.788 53.5354 127.904 53.5354H129.552C129.669 53.5354 129.756 53.6229 129.756 53.7396C129.756 53.8562 129.654 53.9437 129.552 53.9437Z" stroke="#1D1D1B" stroke-width="0.5" stroke-miterlimit="10"/>
<path d="M132.002 20.9562C131.885 20.9562 131.798 20.8687 131.798 20.7521V19.0604C131.798 18.9437 131.885 18.8562 132.002 18.8562C132.119 18.8562 132.206 18.9437 132.206 19.0604V20.7521C132.206 20.8687 132.119 20.9562 132.002 20.9562ZM132.002 24.3396C131.885 24.3396 131.798 24.2521 131.798 24.1354V22.4437C131.798 22.3271 131.885 22.2396 132.002 22.2396C132.119 22.2396 132.206 22.3271 132.206 22.4437V24.1354C132.206 24.2521 132.119 24.3396 132.002 24.3396ZM132.002 27.7229C131.885 27.7229 131.798 27.6354 131.798 27.5187V25.8271C131.798 25.7104 131.885 25.6229 132.002 25.6229C132.119 25.6229 132.206 25.7104 132.206 25.8271V27.5187C132.206 27.6354 132.119 27.7229 132.002 27.7229ZM132.002 31.1062C131.885 31.1062 131.798 31.0187 131.798 30.9021V29.2104C131.798 29.0937 131.885 29.0062 132.002 29.0062C132.119 29.0062 132.206 29.0937 132.206 29.2104V30.9021C132.206 31.0187 132.119 31.1062 132.002 31.1062ZM132.002 34.4896C131.885 34.4896 131.798 34.4021 131.798 34.2854V32.5937C131.798 32.4771 131.885 32.3896 132.002 32.3896C132.119 32.3896 132.206 32.4771 132.206 32.5937V34.2854C132.206 34.4021 132.119 34.4896 132.002 34.4896ZM132.002 37.8729C131.885 37.8729 131.798 37.7854 131.798 37.6687V35.9771C131.798 35.8604 131.885 35.7729 132.002 35.7729C132.119 35.7729 132.206 35.8604 132.206 35.9771V37.6687C132.206 37.7854 132.119 37.8729 132.002 37.8729ZM132.002 41.2562C131.885 41.2562 131.798 41.1687 131.798 41.0521V39.3604C131.798 39.2437 131.885 39.1562 132.002 39.1562C132.119 39.1562 132.206 39.2437 132.206 39.3604V41.0521C132.206 41.1687 132.119 41.2562 132.002 41.2562ZM132.002 44.6396C131.885 44.6396 131.798 44.5521 131.798 44.4354V42.7437C131.798 42.6271 131.885 42.5396 132.002 42.5396C132.119 42.5396 132.206 42.6271 132.206 42.7437V44.4354C132.206 44.5521 132.119 44.6396 132.002 44.6396ZM132.002 48.0229C131.885 48.0229 131.798 47.9354 131.798 47.8187V46.1271C131.798 46.0104 131.885 45.9229 132.002 45.9229C132.119 45.9229 132.206 46.0104 132.206 46.1271V47.8187C132.206 47.9354 132.119 48.0229 132.002 48.0229ZM132.002 51.4062C131.885 51.4062 131.798 51.3187 131.798 51.2021V49.5104C131.798 49.3937 131.885 49.3062 132.002 49.3062C132.119 49.3062 132.206 49.3937 132.206 49.5104V51.2021C132.206 51.3041 132.119 51.4062 132.002 51.4062Z" fill="#1D1D1B"/>
<path d="M132.002 20.9562C131.885 20.9562 131.798 20.8687 131.798 20.7521V19.0604C131.798 18.9437 131.885 18.8562 132.002 18.8562C132.119 18.8562 132.206 18.9437 132.206 19.0604V20.7521C132.206 20.8687 132.119 20.9562 132.002 20.9562ZM132.002 24.3396C131.885 24.3396 131.798 24.2521 131.798 24.1354V22.4437C131.798 22.3271 131.885 22.2396 132.002 22.2396C132.119 22.2396 132.206 22.3271 132.206 22.4437V24.1354C132.206 24.2521 132.119 24.3396 132.002 24.3396ZM132.002 27.7229C131.885 27.7229 131.798 27.6354 131.798 27.5187V25.8271C131.798 25.7104 131.885 25.6229 132.002 25.6229C132.119 25.6229 132.206 25.7104 132.206 25.8271V27.5187C132.206 27.6354 132.119 27.7229 132.002 27.7229ZM132.002 31.1062C131.885 31.1062 131.798 31.0187 131.798 30.9021V29.2104C131.798 29.0937 131.885 29.0062 132.002 29.0062C132.119 29.0062 132.206 29.0937 132.206 29.2104V30.9021C132.206 31.0187 132.119 31.1062 132.002 31.1062ZM132.002 34.4896C131.885 34.4896 131.798 34.4021 131.798 34.2854V32.5937C131.798 32.4771 131.885 32.3896 132.002 32.3896C132.119 32.3896 132.206 32.4771 132.206 32.5937V34.2854C132.206 34.4021 132.119 34.4896 132.002 34.4896ZM132.002 37.8729C131.885 37.8729 131.798 37.7854 131.798 37.6687V35.9771C131.798 35.8604 131.885 35.7729 132.002 35.7729C132.119 35.7729 132.206 35.8604 132.206 35.9771V37.6687C132.206 37.7854 132.119 37.8729 132.002 37.8729ZM132.002 41.2562C131.885 41.2562 131.798 41.1687 131.798 41.0521V39.3604C131.798 39.2437 131.885 39.1562 132.002 39.1562C132.119 39.1562 132.206 39.2437 132.206 39.3604V41.0521C132.206 41.1687 132.119 41.2562 132.002 41.2562ZM132.002 44.6396C131.885 44.6396 131.798 44.5521 131.798 44.4354V42.7437C131.798 42.6271 131.885 42.5396 132.002 42.5396C132.119 42.5396 132.206 42.6271 132.206 42.7437V44.4354C132.206 44.5521 132.119 44.6396 132.002 44.6396ZM132.002 48.0229C131.885 48.0229 131.798 47.9354 131.798 47.8187V46.1271C131.798 46.0104 131.885 45.9229 132.002 45.9229C132.119 45.9229 132.206 46.0104 132.206 46.1271V47.8187C132.206 47.9354 132.119 48.0229 132.002 48.0229ZM132.002 51.4062C131.885 51.4062 131.798 51.3187 131.798 51.2021V49.5104C131.798 49.3937 131.885 49.3062 132.002 49.3062C132.119 49.3062 132.206 49.3937 132.206 49.5104V51.2021C132.206 51.3041 132.119 51.4062 132.002 51.4062Z" stroke="#1D1D1B" stroke-width="0.5" stroke-miterlimit="10"/>
<path d="M129.056 19.5271C128.998 19.5271 128.954 19.5125 128.91 19.4687C128.837 19.3812 128.837 19.2646 128.925 19.1771L130.106 18.0687C130.194 17.9958 130.31 17.9958 130.398 18.0833C130.471 18.1708 130.471 18.2875 130.383 18.375L129.202 19.4833C129.158 19.4979 129.115 19.5271 129.056 19.5271ZM126.708 21.7583C126.65 21.7583 126.606 21.7437 126.562 21.7C126.49 21.6125 126.49 21.4958 126.577 21.4083L127.758 20.3C127.846 20.2271 127.962 20.2271 128.05 20.3146C128.123 20.4021 128.123 20.5187 128.035 20.6062L126.854 21.7146C126.796 21.7292 126.752 21.7583 126.708 21.7583ZM124.346 23.975C124.287 23.975 124.244 23.9604 124.2 23.9167C124.127 23.8292 124.127 23.7125 124.215 23.625L125.396 22.5167C125.483 22.4437 125.6 22.4437 125.687 22.5312C125.76 22.6187 125.76 22.7354 125.673 22.8229L124.492 23.9312C124.448 23.9604 124.39 23.975 124.346 23.975ZM121.983 26.2062C121.925 26.2062 121.881 26.1917 121.837 26.1479C121.765 26.0604 121.765 25.9437 121.852 25.8562L123.033 24.7479C123.121 24.675 123.237 24.675 123.325 24.7625C123.398 24.85 123.398 24.9667 123.31 25.0542L122.129 26.1625C122.085 26.1917 122.027 26.2062 121.983 26.2062ZM119.621 28.4375C119.562 28.4375 119.519 28.4229 119.475 28.3792C119.402 28.2917 119.402 28.175 119.49 28.0875L120.671 26.9792C120.758 26.9062 120.875 26.9062 120.962 26.9937C121.035 27.0812 121.035 27.1979 120.948 27.2854L119.767 28.3937C119.723 28.4229 119.679 28.4375 119.621 28.4375ZM117.273 30.6687C117.215 30.6687 117.171 30.6542 117.127 30.6104C117.054 30.5229 117.054 30.4062 117.142 30.3187L118.323 29.2104C118.41 29.1375 118.527 29.1375 118.615 29.225C118.687 29.3125 118.687 29.4292 118.6 29.5167L117.419 30.625C117.36 30.6542 117.317 30.6687 117.273 30.6687ZM114.91 32.9C114.852 32.9 114.808 32.8854 114.765 32.8417C114.692 32.7542 114.692 32.6375 114.779 32.55L115.96 31.4417C116.048 31.3687 116.165 31.3687 116.252 31.4562C116.325 31.5437 116.325 31.6604 116.237 31.7479L115.056 32.8562C115.012 32.8854 114.954 32.9 114.91 32.9Z" fill="#1D1D1B"/>
<path d="M129.056 19.5271C128.998 19.5271 128.954 19.5125 128.91 19.4687C128.837 19.3812 128.837 19.2646 128.925 19.1771L130.106 18.0687C130.194 17.9958 130.31 17.9958 130.398 18.0833C130.471 18.1708 130.471 18.2875 130.383 18.375L129.202 19.4833C129.158 19.4979 129.115 19.5271 129.056 19.5271ZM126.708 21.7583C126.65 21.7583 126.606 21.7437 126.562 21.7C126.49 21.6125 126.49 21.4958 126.577 21.4083L127.758 20.3C127.846 20.2271 127.962 20.2271 128.05 20.3146C128.123 20.4021 128.123 20.5187 128.035 20.6062L126.854 21.7146C126.796 21.7292 126.752 21.7583 126.708 21.7583ZM124.346 23.975C124.287 23.975 124.244 23.9604 124.2 23.9167C124.127 23.8292 124.127 23.7125 124.215 23.625L125.396 22.5167C125.483 22.4437 125.6 22.4437 125.687 22.5312C125.76 22.6187 125.76 22.7354 125.673 22.8229L124.492 23.9312C124.448 23.9604 124.39 23.975 124.346 23.975ZM121.983 26.2062C121.925 26.2062 121.881 26.1917 121.837 26.1479C121.765 26.0604 121.765 25.9437 121.852 25.8562L123.033 24.7479C123.121 24.675 123.237 24.675 123.325 24.7625C123.398 24.85 123.398 24.9667 123.31 25.0542L122.129 26.1625C122.085 26.1917 122.027 26.2062 121.983 26.2062ZM119.621 28.4375C119.562 28.4375 119.519 28.4229 119.475 28.3792C119.402 28.2917 119.402 28.175 119.49 28.0875L120.671 26.9792C120.758 26.9062 120.875 26.9062 120.962 26.9937C121.035 27.0812 121.035 27.1979 120.948 27.2854L119.767 28.3937C119.723 28.4229 119.679 28.4375 119.621 28.4375ZM117.273 30.6687C117.215 30.6687 117.171 30.6542 117.127 30.6104C117.054 30.5229 117.054 30.4062 117.142 30.3187L118.323 29.2104C118.41 29.1375 118.527 29.1375 118.615 29.225C118.687 29.3125 118.687 29.4292 118.6 29.5167L117.419 30.625C117.36 30.6542 117.317 30.6687 117.273 30.6687ZM114.91 32.9C114.852 32.9 114.808 32.8854 114.765 32.8417C114.692 32.7542 114.692 32.6375 114.779 32.55L115.96 31.4417C116.048 31.3687 116.165 31.3687 116.252 31.4562C116.325 31.5437 116.325 31.6604 116.237 31.7479L115.056 32.8562C115.012 32.8854 114.954 32.9 114.91 32.9Z" stroke="#1D1D1B" stroke-width="0.5" stroke-miterlimit="10"/>
<path d="M132.002 17.5875C131.885 17.5875 131.798 17.5 131.798 17.3833V17.0042L131.55 17.2375C131.462 17.3104 131.346 17.3104 131.258 17.2229C131.185 17.1354 131.185 17.0187 131.273 16.9312L132.206 16.0562V17.3687C132.206 17.4854 132.119 17.5875 132.002 17.5875ZM113.146 34.5625C113.087 34.5625 113.044 34.5479 113 34.5042C112.927 34.4167 112.927 34.3 113.015 34.2125L113.598 33.6583C113.685 33.5854 113.802 33.5854 113.89 33.6729C113.962 33.7604 113.962 33.8771 113.875 33.9646L113.292 34.5187C113.233 34.5479 113.19 34.5625 113.146 34.5625ZM122.158 37.6542C122.042 37.6542 121.954 37.5667 121.954 37.45V37.1L121.735 37.3333C121.662 37.4208 121.531 37.4208 121.444 37.3479C121.356 37.275 121.356 37.1437 121.429 37.0562L122.348 36.0646V37.4354C122.362 37.5667 122.275 37.6542 122.158 37.6542ZM113.044 46.55C113 46.55 112.942 46.5354 112.912 46.4917C112.825 46.4187 112.825 46.2875 112.898 46.2L113.467 45.5875C113.54 45.5 113.671 45.5 113.758 45.5729C113.846 45.6458 113.846 45.7771 113.773 45.8646L113.204 46.4771C113.146 46.5354 113.102 46.55 113.044 46.55ZM122.975 53.9437H121.954V52.8792C121.954 52.7625 122.042 52.675 122.158 52.675C122.275 52.675 122.362 52.7625 122.362 52.8792V53.5354H122.975C123.092 53.5354 123.179 53.6229 123.179 53.7396C123.179 53.8562 123.092 53.9437 122.975 53.9437ZM132.206 53.9437H131.185C131.069 53.9437 130.981 53.8562 130.981 53.7396C130.981 53.6229 131.069 53.5354 131.185 53.5354H131.798V52.8937C131.798 52.7771 131.885 52.6896 132.002 52.6896C132.119 52.6896 132.206 52.7771 132.206 52.8937V53.9437Z" fill="#1D1D1B"/>
<path d="M132.002 17.5875C131.885 17.5875 131.798 17.5 131.798 17.3833V17.0042L131.55 17.2375C131.462 17.3104 131.346 17.3104 131.258 17.2229C131.185 17.1354 131.185 17.0187 131.273 16.9312L132.206 16.0562V17.3687C132.206 17.4854 132.119 17.5875 132.002 17.5875ZM113.146 34.5625C113.087 34.5625 113.044 34.5479 113 34.5042C112.927 34.4167 112.927 34.3 113.015 34.2125L113.598 33.6583C113.685 33.5854 113.802 33.5854 113.89 33.6729C113.962 33.7604 113.962 33.8771 113.875 33.9646L113.292 34.5187C113.233 34.5479 113.19 34.5625 113.146 34.5625ZM122.158 37.6542C122.042 37.6542 121.954 37.5667 121.954 37.45V37.1L121.735 37.3333C121.662 37.4208 121.531 37.4208 121.444 37.3479C121.356 37.275 121.356 37.1437 121.429 37.0562L122.348 36.0646V37.4354C122.362 37.5667 122.275 37.6542 122.158 37.6542ZM113.044 46.55C113 46.55 112.942 46.5354 112.912 46.4917C112.825 46.4187 112.825 46.2875 112.898 46.2L113.467 45.5875C113.54 45.5 113.671 45.5 113.758 45.5729C113.846 45.6458 113.846 45.7771 113.773 45.8646L113.204 46.4771C113.146 46.5354 113.102 46.55 113.044 46.55ZM122.975 53.9437H121.954V52.8792C121.954 52.7625 122.042 52.675 122.158 52.675C122.275 52.675 122.362 52.7625 122.362 52.8792V53.5354H122.975C123.092 53.5354 123.179 53.6229 123.179 53.7396C123.179 53.8562 123.092 53.9437 122.975 53.9437ZM132.206 53.9437H131.185C131.069 53.9437 130.981 53.8562 130.981 53.7396C130.981 53.6229 131.069 53.5354 131.185 53.5354H131.798V52.8937C131.798 52.7771 131.885 52.6896 132.002 52.6896C132.119 52.6896 132.206 52.7771 132.206 52.8937V53.9437Z" stroke="#1D1D1B" stroke-width="0.5" stroke-miterlimit="10"/>
<defs>
<clipPath id="clip0_241_939">
<rect width="225" height="32.25" fill="white" transform="translate(0 70)"/>
</clipPath>
</defs>
</svg>
