<svg width="48" height="49" viewBox="0 0 48 49" fill="none" xmlns="http://www.w3.org/2000/svg">
<path fill-rule="evenodd" clip-rule="evenodd" d="M31.94 36.142C28.553 38.649 39.085 27.879 36.088 31.973C36.163 31.967 36.024 32.194 35.558 32.763C35.558 32.763 43.562 40.713 47.491 44.759C48.855 46.234 46.394 49.178 44.722 47.641C41.164 44.189 32.745 35.61 32.732 35.596L31.94 36.142Z" fill="white"/>
<path d="M20.1789 40.162C25.3289 40.112 30.4269 37.979 34.0929 34.356C38.4469 30.053 40.6889 23.687 39.9069 17.609C38.5669 7.19397 30.0049 0.125977 20.0509 0.125977C12.4879 0.125977 5.13791 4.85698 1.91391 11.717C-0.554089 16.969 -0.559089 23.31 1.91391 28.571C5.11491 35.383 12.3449 40.089 19.9219 40.162C20.0079 40.162 20.0939 40.162 20.1789 40.162ZM19.9429 36.825C12.2519 36.751 5.07591 30.803 3.64891 23.177C2.64291 17.801 4.54191 11.983 8.49791 8.16498C13.1159 3.70598 20.3749 2.21298 26.4109 4.73998C31.8109 7.00098 35.8529 12.251 36.5979 18.035C37.2359 22.993 35.4569 28.189 31.9609 31.768C28.8939 34.908 24.5929 36.782 20.1579 36.825C20.0859 36.825 20.0149 36.825 19.9429 36.825Z" fill="white"/>
</svg>
