<svg width="667" height="734" viewBox="0 0 667 734" fill="none" xmlns="http://www.w3.org/2000/svg">
<path d="M166.667 433.333C166.667 414.923 181.591 400 200 400C218.41 400 233.333 414.923 233.333 433.333C233.333 451.743 218.41 466.667 200 466.667C181.591 466.667 166.667 451.743 166.667 433.333Z" fill="black"/>
<path d="M200 533.333C181.591 533.333 166.667 548.257 166.667 566.667C166.667 585.077 181.591 600 200 600C218.41 600 233.333 585.077 233.333 566.667C233.333 548.257 218.41 533.333 200 533.333Z" fill="black"/>
<path d="M300 433.333C300 414.923 314.923 400 333.333 400C351.743 400 366.667 414.923 366.667 433.333C366.667 451.743 351.743 466.667 333.333 466.667C314.923 466.667 300 451.743 300 433.333Z" fill="black"/>
<path d="M333.333 533.333C314.923 533.333 300 548.257 300 566.667C300 585.077 314.923 600 333.333 600C351.743 600 366.667 585.077 366.667 566.667C366.667 548.257 351.743 533.333 333.333 533.333Z" fill="black"/>
<path d="M433.333 433.333C433.333 414.923 448.257 400 466.667 400C485.077 400 500 414.923 500 433.333C500 451.743 485.077 466.667 466.667 466.667C448.257 466.667 433.333 451.743 433.333 433.333Z" fill="black"/>
<path d="M466.667 533.333C448.257 533.333 433.333 548.257 433.333 566.667C433.333 585.077 448.257 600 466.667 600C485.077 600 500 585.077 500 566.667C500 548.257 485.077 533.333 466.667 533.333Z" fill="black"/>
<path fill-rule="evenodd" clip-rule="evenodd" d="M133.333 33.3333C133.333 14.924 148.257 0 166.667 0C185.076 0 200 14.924 200 33.3333V66.6667H466.667V33.3333C466.667 14.924 481.59 0 500 0C518.41 0 533.333 14.924 533.333 33.3333V66.6667H566.667C621.897 66.6667 666.667 111.438 666.667 166.667V633.333C666.667 688.563 621.897 733.333 566.667 733.333H100C44.7717 733.333 0 688.563 0 633.333V166.667C0 111.438 44.7717 66.6667 100 66.6667H133.333V33.3333ZM466.667 133.333V166.667C466.667 185.076 481.59 200 500 200C518.41 200 533.333 185.076 533.333 166.667V133.333H566.667C585.077 133.333 600 148.257 600 166.667V266.667H66.6667V166.667C66.6667 148.257 81.5907 133.333 100 133.333H133.333V166.667C133.333 185.076 148.257 200 166.667 200C185.076 200 200 185.076 200 166.667V133.333H466.667ZM66.6667 333.333V633.333C66.6667 651.743 81.5907 666.667 100 666.667H566.667C585.077 666.667 600 651.743 600 633.333V333.333H66.6667Z" fill="black"/>
</svg>
