<svg width="668" height="601" viewBox="0 0 668 601" fill="none" xmlns="http://www.w3.org/2000/svg">
<path d="M586.215 82C616.768 112.675 633.922 154.205 633.922 197.5C633.922 240.795 616.768 282.325 586.215 313L333.882 567.333L81.5482 313C58.8563 290.155 43.4073 261.124 37.1351 229.541C30.8629 197.958 34.0463 165.227 46.2866 135.444C58.5269 105.662 79.2804 80.1516 105.949 62.1071C132.618 44.0627 164.016 34.2856 196.215 34C239.27 34.2612 280.48 51.512 310.882 82C319.748 90.7741 327.476 100.629 333.882 111.333C340.287 100.629 348.015 90.7741 356.881 82C371.861 66.8018 389.712 54.7331 409.397 46.4955C429.082 38.2579 450.209 34.0157 471.548 34.0157C492.887 34.0157 514.014 38.2579 533.699 46.4955C553.384 54.7331 571.236 66.8018 586.215 82Z" stroke="black" stroke-width="66.6667" stroke-linecap="round" stroke-linejoin="round"/>
</svg>
