<svg width="800" height="800" viewBox="0 0 800 800" fill="none" xmlns="http://www.w3.org/2000/svg">
<path d="M783.218 432.249L367.726 16.7567C354.522 3.53014 335.69 -2.37375 317.246 0.875681L88.0007 41.6995C64.3852 45.91 45.8955 64.3997 41.6849 88.0153L0.884016 317.26C-2.3883 335.681 3.53848 354.514 16.765 367.741L432.234 783.21C443.401 794.354 458.046 799.937 472.692 799.937C487.383 799.937 501.982 794.354 513.195 783.21L783.287 513.095C805.575 490.784 805.575 454.56 783.218 432.249ZM215.69 216.345C192.806 238.885 155.987 238.61 133.447 215.75C110.907 192.867 111.159 156.047 134.042 133.484C156.925 110.944 193.744 111.219 216.307 134.102C238.847 156.94 238.55 193.759 215.69 216.345Z" fill="black"/>
</svg>
