<svg width="629" height="686" viewBox="0 0 629 686" fill="none" xmlns="http://www.w3.org/2000/svg">
<path d="M562.117 0H557.055C533.297 0 511.297 13.3672 498.195 35.7422C493.383 43.875 480.781 44.9063 474.789 37.6406C454.852 13.3672 428.375 0 400.07 0C371.961 0 345.492 13.3672 325.531 37.6406C320.078 44.2656 308.93 44.3125 303.445 37.625C283.484 13.3672 257.016 0 228.906 0C200.797 0 174.328 13.3672 154.367 37.6406C148.383 44.9688 135.781 43.9609 130.969 35.7422C117.844 13.3672 95.8437 0 72.0937 0H66.4453C29.8125 0 0 29.8125 0 66.4453V619.266C0 655.898 29.8125 685.711 66.4453 685.711H72.0937C95.8359 685.711 117.836 672.344 130.984 649.938C135.727 641.789 148.352 640.727 154.367 648.078C174.328 672.336 200.797 685.703 228.906 685.703C257.016 685.703 283.484 672.336 303.445 648.063C308.93 641.406 320.078 641.422 325.531 648.078C345.492 672.336 371.961 685.703 400.266 685.703C428.375 685.703 454.859 672.336 474.781 648.094C480.82 640.797 493.445 641.844 498.187 649.938C511.305 672.344 533.305 685.711 557.063 685.711H562.125C598.758 685.711 628.57 655.898 628.57 619.266V66.4531C628.57 29.8125 598.75 0 562.117 0ZM571.422 619.266C571.422 624.398 567.25 628.57 562.117 628.57H557.055C552.258 628.57 548.531 622.836 547.5 621.063C534.719 599.258 511.086 585.711 485.836 585.711C464.406 585.711 444.305 595.211 430.648 611.797C425.5 618.063 414.703 628.563 400.07 628.563C385.633 628.563 374.82 618.047 369.672 611.797C342.453 578.633 286.555 578.625 259.305 611.781C254.156 618.047 243.344 628.563 228.906 628.563C214.469 628.563 203.656 618.047 198.508 611.797C184.891 595.211 164.773 585.711 143.336 585.711C118.055 585.711 94.4219 599.273 81.6719 621.063C80.6406 622.82 76.8984 628.57 72.1016 628.57H66.4531C61.3203 628.57 57.1484 624.398 57.1484 619.266V66.4531C57.1484 61.3203 61.3203 57.1484 66.4531 57.1484H72.1016C76.8984 57.1484 80.6406 62.8984 81.6563 64.625C94.4219 86.4453 118.055 100.008 143.336 100.008C164.781 100.008 184.898 90.5078 198.508 73.9297C203.656 67.6641 214.469 57.1484 228.906 57.1484C243.344 57.1484 254.156 67.6641 259.305 73.9141C286.555 107.102 342.453 107.063 369.672 73.9297C374.82 67.6641 385.633 57.1484 400.266 57.1484C414.703 57.1484 425.5 67.6563 430.664 73.9453C444.305 90.5078 464.414 100.008 485.836 100.008C511.086 100.008 534.719 86.4609 547.516 64.625C548.531 62.8828 552.258 57.1484 557.055 57.1484H562.117C567.25 57.1484 571.422 61.3203 571.422 66.4531V619.266Z" fill="black"/>
<path d="M114.281 228.375H514.281V285.516H114.281V228.375ZM114.211 371.141H399.922V428.469H114.211V371.141Z" fill="black"/>
</svg>
